{"glyphs":{"0":{"ha":783,"x_min":167,"x_max":817,"o":"m 601 985 q 767 904 718 983 q 817 694 817 825 q 785 445 817 572 q 697 215 754 318 q 560 45 640 111 q 383 -21 481 -21 q 283 0 325 -21 q 216 59 242 21 q 178 151 190 97 q 167 269 167 204 q 181 436 167 351 q 221 600 194 521 q 286 749 247 679 q 373 872 325 819 q 478 954 421 924 q 601 985 536 985 m 390 63 q 519 117 458 63 q 624 259 579 171 q 696 458 669 347 q 722 682 722 569 q 690 849 722 797 q 593 901 657 901 q 465 847 525 901 q 359 705 404 793 q 288 506 314 617 q 261 282 261 394 q 294 115 261 167 q 390 63 326 63 z "},"1":{"ha":783,"x_min":357,"x_max":744,"o":"m 622 822 q 511 742 578 778 q 374 683 444 706 l 357 764 q 518 839 438 793 q 678 963 599 885 l 744 963 l 514 0 l 425 0 l 622 822 z "},"2":{"ha":783,"x_min":140,"x_max":814,"o":"m 696 79 l 678 0 l 140 0 q 206 181 157 104 q 319 315 256 257 q 453 422 383 374 q 582 519 524 471 q 678 624 640 568 q 717 754 717 679 q 674 867 717 832 q 572 901 632 901 q 453 877 514 901 q 347 815 392 853 l 317 890 q 442 958 369 933 q 586 983 515 983 q 673 971 632 983 q 745 932 714 958 q 795 864 776 906 q 814 765 814 822 q 790 647 814 700 q 727 547 765 593 q 640 462 689 501 q 542 386 592 422 q 431 302 481 340 q 344 228 381 264 q 283 156 307 192 q 250 79 260 119 l 696 79 z "},"3":{"ha":783,"x_min":108,"x_max":786,"o":"m 144 108 q 234 74 183 85 q 339 63 285 63 q 450 77 399 63 q 540 121 501 92 q 600 195 578 150 q 622 301 622 240 q 556 435 622 394 q 379 476 490 476 l 399 551 l 433 551 q 549 572 500 551 q 628 625 597 593 q 674 696 660 657 q 689 772 689 735 q 678 832 689 807 q 647 872 667 857 q 602 893 628 886 q 547 900 576 900 q 449 885 499 900 q 364 846 400 869 l 344 918 q 449 966 393 949 q 564 983 504 983 q 647 972 607 983 q 718 937 688 961 q 767 874 749 913 q 786 781 786 836 q 774 699 786 739 q 735 623 761 658 q 671 559 710 588 q 581 513 632 531 q 630 486 606 503 q 674 444 654 469 q 707 385 694 419 q 719 304 719 350 q 687 161 719 222 q 601 60 654 100 q 480 -1 549 19 q 339 -21 411 -21 q 219 -8 278 -21 q 108 31 160 4 l 144 108 z "},"4":{"ha":783,"x_min":132,"x_max":814,"o":"m 575 336 l 697 843 q 579 739 640 797 q 459 615 518 681 q 346 478 400 549 q 250 336 292 407 l 575 336 m 146 315 q 252 475 189 390 q 391 645 315 560 q 551 813 467 731 q 724 963 636 894 l 814 963 l 664 336 l 782 336 l 764 261 l 647 261 l 586 0 l 497 0 l 558 261 l 132 261 l 146 315 z "},"5":{"ha":783,"x_min":111,"x_max":856,"o":"m 149 111 q 237 75 189 88 q 333 63 285 63 q 442 78 389 63 q 535 123 494 93 q 601 199 576 153 q 626 306 626 244 q 608 392 626 357 q 560 450 589 426 q 493 486 531 474 q 419 506 456 499 q 351 514 383 513 q 297 517 318 515 q 338 633 319 579 q 372 740 356 688 q 405 846 389 792 q 436 963 421 900 l 856 963 l 838 883 l 499 883 q 477 813 489 851 q 453 733 465 774 q 427 655 440 693 q 404 588 414 617 q 534 562 475 581 q 635 510 593 543 q 701 428 678 476 q 724 317 724 381 q 692 169 724 232 q 607 63 660 106 q 484 0 554 21 q 339 -21 414 -21 q 223 -9 281 -21 q 111 29 165 3 l 149 111 z "},"6":{"ha":783,"x_min":174,"x_max":849,"o":"m 535 575 q 642 558 597 575 q 717 510 688 540 q 760 438 746 479 q 774 346 774 396 q 744 190 774 258 q 665 75 714 122 q 555 3 617 28 q 429 -21 493 -21 q 330 -3 376 -21 q 249 51 283 15 q 194 140 214 86 q 174 265 174 193 q 222 533 174 407 q 357 755 269 660 q 569 907 444 850 q 849 967 694 964 l 839 885 q 653 853 738 882 q 503 776 569 825 q 389 661 438 728 q 311 518 340 594 q 420 560 364 544 q 535 575 476 575 m 676 329 q 638 448 676 404 q 507 492 599 492 q 392 475 450 492 q 286 435 333 458 q 271 351 275 394 q 267 265 267 308 q 279 172 267 211 q 314 107 292 132 q 365 70 336 82 q 426 58 394 58 q 523 78 478 58 q 602 133 568 97 q 656 218 636 168 q 676 329 676 268 z "},"7":{"ha":783,"x_min":239,"x_max":908,"o":"m 239 0 q 299 160 263 76 q 380 328 335 244 q 476 494 425 413 q 582 647 528 575 q 690 779 636 719 q 794 879 744 839 l 321 879 l 339 963 l 908 963 l 889 882 q 747 726 826 822 q 588 510 667 629 q 442 260 510 392 q 335 0 374 129 l 239 0 z "},"8":{"ha":783,"x_min":138,"x_max":835,"o":"m 835 779 q 824 698 835 739 q 788 618 814 657 q 720 543 763 579 q 614 476 678 507 q 711 390 679 440 q 743 282 743 340 q 713 153 743 210 q 633 58 683 97 q 518 -1 583 19 q 381 -21 453 -21 q 288 -8 332 -21 q 211 29 244 4 q 158 93 178 54 q 138 185 138 132 q 148 267 138 225 q 185 351 158 310 q 259 433 213 393 q 376 506 306 472 q 305 576 333 532 q 276 679 276 621 q 304 808 276 751 q 378 904 332 865 q 483 963 424 943 q 606 983 543 983 q 771 933 707 983 q 835 779 835 882 m 647 272 q 629 346 647 315 q 582 399 611 376 q 517 438 553 421 q 443 469 481 454 q 346 407 386 440 q 281 340 306 374 q 244 272 256 306 q 233 208 233 238 q 246 140 233 168 q 281 93 258 111 q 332 66 303 75 q 393 57 361 57 q 488 72 442 57 q 569 115 533 88 q 626 183 604 143 q 647 272 647 224 m 371 683 q 386 621 371 647 q 426 574 401 594 q 483 540 451 554 q 547 513 514 525 q 694 630 647 565 q 740 767 740 694 q 702 871 740 836 q 593 906 664 906 q 509 892 549 906 q 438 849 469 878 q 389 779 407 821 q 371 683 371 738 z "},"9":{"ha":783,"x_min":122,"x_max":819,"o":"m 471 388 q 359 405 406 388 q 283 452 313 422 q 239 522 253 482 q 225 608 225 563 q 254 768 225 699 q 332 885 283 838 q 443 958 381 933 q 572 983 506 983 q 665 969 621 983 q 744 922 710 954 q 799 835 779 889 q 819 704 819 782 q 773 429 819 558 q 640 204 726 300 q 432 53 554 108 q 158 -3 310 -3 q 142 -3 151 -3 q 122 -1 132 -3 l 139 78 q 332 101 244 75 q 488 176 419 128 q 604 294 556 225 q 682 444 653 363 q 560 401 617 414 q 471 388 503 388 m 572 904 q 476 886 522 904 q 397 833 431 868 q 342 744 363 797 q 322 624 322 692 q 360 516 322 561 q 486 471 399 471 q 587 483 532 471 q 706 526 642 496 q 726 707 726 611 q 687 854 726 804 q 572 904 647 904 z "},"\u0000":{"ha":0,"x_min":0,"x_max":0,"o":""},"\b":{"ha":0,"x_min":0,"x_max":0,"o":""},"\u001d":{"ha":0,"x_min":0,"x_max":0,"o":""},"\t":{"ha":322,"x_min":0,"x_max":0,"o":""},"\r":{"ha":322,"x_min":0,"x_max":0,"o":""}," ":{"ha":322,"x_min":0,"x_max":0,"o":""},"!":{"ha":314,"x_min":101,"x_max":435,"o":"m 204 296 q 231 482 215 388 q 274 694 246 576 l 338 963 l 435 963 l 371 693 q 351 618 365 669 q 320 507 338 567 q 285 389 303 447 q 254 296 268 331 l 204 296 m 171 -17 q 118 3 135 -17 q 101 50 101 24 q 122 108 101 81 q 181 135 143 135 q 233 115 217 135 q 250 68 250 94 q 229 10 250 38 q 171 -17 208 -17 z "},"\"":{"ha":494,"x_min":275,"x_max":636,"o":"m 483 719 q 499 862 489 790 q 526 1004 508 933 l 539 1056 l 636 1056 l 624 1003 q 582 860 606 933 q 529 719 558 786 l 483 719 m 275 719 q 290 862 281 790 q 318 1004 300 933 l 331 1056 l 428 1056 l 415 1003 q 374 860 397 933 q 321 719 350 786 l 275 719 z "},"#":{"ha":865,"x_min":122,"x_max":965,"o":"m 846 699 l 965 699 l 946 624 l 814 624 l 692 338 l 879 338 l 860 263 l 660 263 l 547 0 l 461 0 l 574 263 l 331 263 l 218 0 l 132 0 l 244 263 l 122 263 l 140 338 l 278 338 l 401 624 l 208 624 l 226 699 l 433 699 l 547 963 l 633 963 l 519 699 l 760 699 l 874 963 l 960 963 l 846 699 m 364 338 l 606 338 l 728 624 l 486 624 l 364 338 z "},"$":{"ha":783,"x_min":136,"x_max":839,"o":"m 358 35 q 292 40 326 33 q 227 55 258 46 q 172 74 196 64 q 136 93 147 85 l 181 168 q 210 151 192 161 q 254 132 228 142 q 314 116 281 122 q 388 110 347 110 q 479 119 433 110 q 560 151 525 129 q 618 208 596 172 q 640 293 640 243 q 616 367 640 339 q 555 417 592 396 q 475 456 518 438 q 395 500 432 474 q 334 565 358 526 q 310 668 310 604 q 378 835 310 772 q 569 914 446 897 l 608 1078 l 692 1078 l 654 921 q 767 900 718 918 q 839 867 815 882 l 794 790 q 735 819 778 801 q 617 836 692 836 q 531 827 571 836 q 461 799 492 818 q 413 751 431 781 q 396 681 396 721 q 421 604 396 633 q 483 553 446 575 q 563 513 519 532 q 642 469 606 494 q 704 403 679 443 q 729 303 729 364 q 708 198 729 244 q 649 117 688 151 q 558 62 611 83 q 440 33 504 40 l 396 -151 l 314 -151 l 358 35 z "},"%":{"ha":1090,"x_min":219,"x_max":1093,"o":"m 382 556 q 466 582 432 556 q 522 645 500 608 q 553 722 543 682 q 563 789 563 761 q 560 838 563 815 q 547 876 557 860 q 521 902 538 893 q 475 911 504 911 q 391 885 425 911 q 336 822 357 858 q 306 744 315 785 q 297 678 297 704 q 300 631 297 653 q 311 592 303 608 q 336 565 319 575 q 382 556 353 556 m 985 963 l 1082 963 l 321 0 l 224 0 l 985 963 m 219 667 q 235 771 219 715 q 283 873 251 826 q 364 951 315 919 q 479 982 413 982 q 599 935 558 982 q 640 801 640 889 q 624 697 640 753 q 576 594 608 642 q 495 516 544 547 q 379 485 446 485 q 260 532 300 485 q 219 667 219 579 m 835 50 q 919 76 885 50 q 974 140 953 103 q 1006 216 996 176 q 1015 283 1015 256 q 1013 332 1015 310 q 1000 371 1010 354 q 974 397 990 388 q 928 406 957 406 q 844 379 878 406 q 789 316 810 353 q 759 239 768 279 q 750 172 750 199 q 753 125 750 147 q 764 86 756 103 q 789 60 772 69 q 835 50 806 50 m 672 161 q 688 265 672 210 q 736 367 704 321 q 817 445 768 414 q 932 476 865 476 q 1052 430 1011 476 q 1093 296 1093 383 q 1077 192 1093 247 q 1029 89 1061 136 q 948 10 997 42 q 832 -21 899 -21 q 713 26 753 -21 q 672 161 672 74 z "},"&":{"ha":881,"x_min":136,"x_max":911,"o":"m 771 0 q 742 63 760 32 q 701 125 724 93 q 547 23 629 58 q 376 -12 464 -12 q 274 6 318 -12 q 199 56 229 25 q 152 129 168 88 q 136 218 136 171 q 149 303 136 263 q 194 383 163 344 q 277 458 225 422 q 406 526 329 493 q 358 624 374 575 q 343 721 343 674 q 363 823 343 775 q 417 906 382 871 q 503 963 453 942 q 617 983 554 983 q 692 969 658 983 q 751 932 726 956 q 790 876 776 908 q 803 806 803 843 q 792 733 803 769 q 753 659 782 696 q 674 585 725 622 q 543 508 624 547 l 531 501 l 713 251 q 774 341 744 292 q 828 450 803 390 l 911 440 q 844 302 883 365 q 761 186 806 239 q 817 98 792 142 q 865 0 843 54 l 771 0 m 383 71 q 519 100 450 71 q 654 189 589 129 l 450 465 q 373 426 413 447 q 301 378 333 406 q 248 314 268 350 q 228 229 228 278 q 235 174 228 201 q 260 123 243 146 q 308 85 278 100 q 383 71 338 71 m 431 732 q 445 644 431 689 q 488 560 460 599 q 606 622 561 592 q 676 683 651 653 q 708 742 700 713 q 717 799 717 771 q 685 878 717 851 q 608 906 653 906 q 529 892 563 906 q 474 854 496 878 q 441 799 451 831 q 431 732 431 767 z "},"'":{"ha":286,"x_min":275,"x_max":428,"o":"m 275 719 q 290 862 281 790 q 318 1004 300 933 l 331 1056 l 428 1056 l 415 1003 q 374 860 397 933 q 321 719 350 786 l 275 719 z "},"(":{"ha":419,"x_min":178,"x_max":658,"o":"m 268 -249 q 201 -38 224 -143 q 178 178 178 67 q 205 425 178 301 q 285 666 232 549 q 417 890 339 783 q 596 1088 494 997 l 658 1042 q 489 854 563 956 q 365 642 415 753 q 290 416 315 532 q 264 185 264 300 q 282 -16 264 85 q 338 -210 300 -117 l 268 -249 z "},")":{"ha":419,"x_min":-31,"x_max":450,"o":"m -31 -212 q 139 -27 65 -126 q 263 181 213 72 q 338 406 313 290 q 364 640 364 522 q 345 846 364 742 q 286 1046 326 950 l 358 1082 q 427 870 404 975 q 450 653 450 765 q 423 404 450 528 q 342 163 396 281 q 211 -61 289 46 q 32 -258 133 -168 l -31 -212 z "},"*":{"ha":597,"x_min":185,"x_max":732,"o":"m 257 501 q 296 553 276 531 q 335 597 315 576 q 376 639 354 618 q 425 683 399 660 q 362 690 392 686 q 303 698 332 693 q 246 711 275 703 q 185 732 217 719 l 215 821 q 327 777 279 800 q 435 724 375 754 q 425 785 429 757 q 417 842 421 814 q 412 899 414 869 q 410 963 410 928 l 507 963 q 505 899 507 928 q 499 842 503 869 q 492 785 496 814 q 482 724 488 757 q 590 777 542 754 q 701 821 638 800 l 732 732 q 613 697 667 706 q 490 683 558 689 q 539 639 517 660 q 581 597 561 618 q 621 553 601 576 q 660 501 640 531 l 581 447 q 546 503 561 476 q 516 554 531 529 q 488 605 501 579 q 458 661 474 631 q 428 605 442 631 q 399 554 414 579 q 369 503 385 529 q 335 447 353 476 l 257 501 l 257 501 z "},"+":{"ha":783,"x_min":178,"x_max":807,"o":"m 443 363 l 178 363 l 197 440 l 461 440 l 535 742 l 617 742 l 543 440 l 807 440 l 788 363 l 525 363 l 451 60 l 371 60 l 443 363 z "},",":{"ha":331,"x_min":18,"x_max":250,"o":"m 18 -185 q 69 -107 46 -150 q 110 -20 93 -64 q 138 63 128 24 q 153 132 149 103 l 250 132 q 224 38 242 86 q 183 -57 207 -11 q 131 -144 158 -103 q 74 -218 103 -186 l 18 -185 z "},"-":{"ha":388,"x_min":110,"x_max":447,"o":"m 131 446 l 447 446 l 426 358 l 110 358 l 131 446 z "},".":{"ha":338,"x_min":108,"x_max":257,"o":"m 178 -18 q 125 2 142 -18 q 108 49 108 22 q 129 106 108 79 q 188 133 150 133 q 240 113 224 133 q 257 67 257 93 q 236 9 257 36 q 178 -18 215 -18 z "},"/":{"ha":525,"x_min":-86,"x_max":778,"o":"m 689 1088 l 778 1088 l 1 -257 l -86 -257 l 689 1088 z "},":":{"ha":338,"x_min":108,"x_max":403,"o":"m 178 -18 q 125 2 142 -18 q 108 49 108 22 q 129 106 108 79 q 188 133 150 133 q 240 113 224 133 q 257 67 257 93 q 236 9 257 36 q 178 -18 215 -18 m 324 567 q 271 587 288 567 q 254 633 254 607 q 275 691 254 664 q 333 718 296 718 q 386 698 369 718 q 403 651 403 678 q 382 594 403 621 q 324 567 361 567 z "},";":{"ha":331,"x_min":18,"x_max":403,"o":"m 18 -185 q 69 -107 46 -150 q 110 -20 93 -64 q 138 63 128 24 q 153 132 149 103 l 250 132 q 224 38 242 86 q 183 -57 207 -11 q 131 -144 158 -103 q 74 -218 103 -186 l 18 -185 m 324 567 q 271 587 288 567 q 254 633 254 607 q 275 691 254 664 q 333 718 296 718 q 386 698 369 718 q 403 651 403 678 q 382 594 403 621 q 324 567 361 567 z "},"<":{"ha":783,"x_min":165,"x_max":825,"o":"m 185 456 l 818 701 l 825 617 l 274 408 l 719 203 l 675 128 l 165 375 l 185 456 z "},"=":{"ha":783,"x_min":144,"x_max":842,"o":"m 233 600 l 842 600 l 824 522 l 214 522 l 233 600 m 164 308 l 772 308 l 754 231 l 144 231 l 164 308 z "},">":{"ha":783,"x_min":150,"x_max":810,"o":"m 790 374 l 157 128 l 150 213 l 701 421 l 256 626 l 300 701 l 810 454 l 790 374 z "},"?":{"ha":507,"x_min":164,"x_max":649,"o":"m 221 296 q 236 386 222 346 q 274 460 250 426 q 328 524 297 494 q 397 583 360 554 l 414 596 q 521 697 490 653 q 551 796 551 742 q 514 879 551 856 q 425 903 476 903 q 335 890 381 903 q 257 863 290 878 l 246 939 q 339 971 288 958 q 442 983 390 983 q 521 974 483 983 q 587 942 558 964 q 632 885 615 921 q 649 799 649 850 q 623 696 649 740 q 558 613 597 651 q 473 540 518 575 q 388 469 428 506 q 323 390 349 432 q 297 296 297 349 l 221 296 m 233 -17 q 181 3 197 -17 q 164 50 164 24 q 185 108 164 81 q 243 135 206 135 q 296 115 279 135 q 313 68 313 94 q 292 10 313 38 q 233 -17 271 -17 z "},"@":{"ha":1289,"x_min":164,"x_max":1319,"o":"m 835 -185 q 635 -212 728 -212 q 445 -182 532 -212 q 296 -93 358 -151 q 199 51 233 -35 q 164 246 164 136 q 222 563 164 425 q 376 794 279 700 q 601 935 474 888 q 871 983 729 983 q 1053 956 971 983 q 1195 874 1136 929 q 1287 735 1254 818 q 1319 538 1319 651 q 1286 328 1319 414 q 1201 186 1253 242 q 1088 106 1150 131 q 971 81 1026 81 q 903 94 932 81 q 863 132 874 107 q 784 94 831 110 q 692 78 738 78 q 600 91 642 78 q 528 132 558 104 q 481 202 499 160 q 464 301 464 244 q 492 463 464 389 q 569 589 519 536 q 690 672 619 642 q 846 701 760 701 q 965 690 913 701 q 1042 669 1018 679 l 938 247 q 931 224 935 236 q 928 199 928 211 q 936 172 928 185 q 986 158 944 158 q 1100 197 1053 158 q 1176 292 1147 235 q 1219 419 1206 350 q 1232 549 1232 488 q 1206 705 1232 638 q 1130 816 1179 772 q 1011 882 1081 860 q 856 904 942 904 q 634 862 742 904 q 442 738 526 819 q 307 535 358 656 q 256 258 256 415 q 358 -32 256 69 q 646 -133 460 -133 q 842 -108 735 -133 l 835 -185 m 939 615 q 928 619 938 617 q 903 622 918 621 q 872 625 889 624 q 838 626 854 626 q 726 603 776 626 q 638 537 675 579 q 581 436 601 494 q 560 310 560 378 q 596 191 560 228 q 694 154 632 154 q 788 167 756 154 q 844 192 821 179 q 848 239 844 221 q 854 271 851 257 l 939 615 z "},"A":{"ha":864,"x_min":28,"x_max":856,"o":"m 758 0 q 744 132 751 67 q 728 264 736 197 l 275 264 q 203 135 239 200 q 131 0 167 69 l 28 0 q 322 503 171 258 q 619 963 474 747 l 721 963 q 790 524 756 760 q 856 0 824 289 l 758 0 m 646 854 q 481 600 561 725 q 322 344 400 475 l 718 344 q 685 595 703 469 q 646 854 667 721 z "},"B":{"ha":829,"x_min":115,"x_max":888,"o":"m 338 944 q 443 964 382 956 q 569 972 504 972 q 686 963 629 972 q 788 928 743 953 q 860 860 833 903 q 888 754 888 818 q 871 667 888 707 q 827 595 854 626 q 764 541 800 564 q 689 506 728 518 q 747 479 721 497 q 790 437 772 461 q 817 383 807 413 q 826 322 826 353 q 786 160 826 224 q 681 58 746 96 q 531 6 615 21 q 358 -8 447 -8 q 230 -1 292 -8 q 115 18 168 7 l 338 944 m 224 82 q 288 74 253 76 q 361 72 322 72 q 495 82 429 72 q 613 119 561 92 q 695 193 664 146 q 726 317 726 240 q 671 430 726 399 q 489 461 615 461 l 313 461 l 224 82 m 463 542 q 713 595 638 542 q 789 738 789 649 q 730 856 789 821 q 550 890 671 890 q 478 888 513 890 q 417 881 443 885 l 333 542 l 463 542 z "},"C":{"ha":847,"x_min":192,"x_max":989,"o":"m 815 43 q 686 -4 758 13 q 543 -21 614 -21 q 401 1 465 -21 q 290 67 336 22 q 217 183 243 113 q 192 351 192 253 q 238 617 192 500 q 361 816 283 735 q 540 940 439 897 q 753 983 642 983 q 874 969 818 983 q 989 924 931 956 l 946 838 q 733 899 846 899 q 566 860 646 899 q 425 751 486 822 q 328 580 364 681 q 292 354 292 479 q 353 138 292 213 q 540 64 414 64 q 639 71 596 64 q 713 88 682 78 q 766 108 744 97 q 803 126 788 118 l 815 43 z "},"D":{"ha":943,"x_min":115,"x_max":988,"o":"m 225 83 q 292 76 260 78 q 356 74 324 74 q 585 112 486 74 q 751 217 685 150 q 852 374 818 283 q 886 572 886 465 q 806 811 886 732 q 557 890 726 890 q 487 888 522 890 q 415 879 451 885 l 225 83 m 336 944 q 460 965 404 960 q 569 971 515 971 q 885 868 782 971 q 988 576 988 765 q 946 341 988 449 q 823 156 904 233 q 621 35 742 78 q 342 -8 500 -8 q 283 -6 314 -8 q 222 -1 251 -4 q 164 6 192 1 q 115 18 136 11 l 336 944 z "},"E":{"ha":728,"x_min":115,"x_max":883,"o":"m 346 963 l 883 963 l 865 881 l 419 881 l 338 546 l 735 546 l 717 465 l 322 465 l 226 82 l 704 82 l 688 0 l 115 0 l 346 963 z "},"F":{"ha":694,"x_min":115,"x_max":878,"o":"m 346 963 l 878 963 l 860 881 l 419 881 l 336 542 l 729 542 l 710 460 l 321 460 l 210 0 l 115 0 l 346 963 z "},"G":{"ha":889,"x_min":192,"x_max":1017,"o":"m 824 450 l 918 450 l 818 32 q 689 -7 756 7 q 560 -21 622 -21 q 394 6 464 -21 q 279 82 324 32 q 213 202 235 132 q 192 360 192 272 q 231 594 192 482 q 342 793 269 707 q 517 931 414 879 q 749 983 621 983 q 856 976 811 983 q 931 960 900 969 q 982 939 963 950 q 1017 921 1001 928 l 974 835 q 950 849 969 839 q 899 871 931 860 q 827 890 868 882 q 738 899 786 899 q 552 854 635 899 q 412 736 469 810 q 323 566 354 663 q 292 364 292 469 q 354 142 292 219 q 556 64 417 64 q 647 72 600 64 q 742 96 693 79 l 824 450 z "},"H":{"ha":910,"x_min":115,"x_max":1031,"o":"m 346 963 l 440 963 l 338 544 l 836 544 l 936 963 l 1031 963 l 801 0 l 707 0 l 818 463 l 321 463 l 210 0 l 115 0 l 346 963 z "},"I":{"ha":319,"x_min":115,"x_max":440,"o":"m 346 963 l 440 963 l 211 0 l 115 0 l 346 963 z "},"J":{"ha":625,"x_min":25,"x_max":746,"o":"m 74 132 q 143 88 94 111 q 258 64 192 64 q 329 72 296 64 q 392 101 363 79 q 444 165 421 124 q 485 272 468 206 l 651 963 l 746 963 l 579 261 q 528 124 560 178 q 454 37 496 69 q 362 -8 413 4 q 254 -21 311 -21 q 124 1 182 -21 q 25 60 67 24 l 74 132 z "},"K":{"ha":832,"x_min":115,"x_max":1006,"o":"m 346 963 l 439 963 l 333 519 q 481 631 401 568 q 638 756 561 693 q 778 873 714 818 q 881 963 843 928 l 1006 963 q 889 861 960 921 q 739 738 818 801 q 580 610 660 674 q 436 497 500 547 q 540 399 486 460 q 645 269 594 339 q 739 129 696 200 q 807 0 782 58 l 704 0 q 531 278 624 156 q 324 483 439 400 l 210 0 l 115 0 l 346 963 z "},"L":{"ha":658,"x_min":115,"x_max":654,"o":"m 344 963 l 439 963 l 228 81 l 654 81 l 636 0 l 115 0 l 344 963 z "},"M":{"ha":1154,"x_min":94,"x_max":1213,"o":"m 94 0 q 242 503 165 260 q 390 963 319 746 l 485 963 q 527 785 506 879 q 568 595 549 690 q 603 410 588 500 q 631 247 619 321 q 746 423 682 326 q 875 617 810 519 q 1003 804 940 714 q 1115 963 1065 894 l 1213 963 q 1183 716 1200 836 q 1148 478 1167 596 q 1108 241 1129 360 q 1063 0 1086 122 l 965 0 q 1049 432 1014 226 q 1111 821 1085 638 q 1053 742 1090 794 q 972 625 1017 690 q 880 488 928 560 q 788 348 832 415 q 707 226 743 281 q 651 139 671 171 l 568 139 q 553 235 563 178 q 531 357 543 292 q 506 492 519 422 q 480 624 493 561 q 455 739 467 688 q 435 822 443 790 q 311 429 374 639 q 189 0 249 219 l 94 0 z "},"N":{"ha":929,"x_min":115,"x_max":1050,"o":"m 346 963 l 439 963 q 541 764 490 874 q 637 542 592 654 q 716 328 682 431 q 768 151 750 225 l 957 963 l 1050 963 l 822 0 l 729 0 q 667 198 704 85 q 585 428 629 311 q 496 652 542 544 q 408 835 450 760 l 208 0 l 115 0 l 346 963 z "},"O":{"ha":1039,"x_min":192,"x_max":1083,"o":"m 192 358 q 239 617 192 501 q 364 815 286 733 q 540 940 442 896 q 740 983 638 983 q 871 960 808 983 q 981 891 933 938 q 1056 773 1028 844 q 1083 606 1083 701 q 1036 345 1083 461 q 911 148 989 229 q 735 23 833 67 q 535 -21 636 -21 q 403 2 465 -21 q 294 72 342 25 q 219 190 247 118 q 192 358 192 261 m 292 343 q 311 219 292 272 q 365 133 331 167 q 445 81 400 99 q 543 64 490 64 q 707 101 628 64 q 847 208 786 138 q 946 383 908 279 q 983 619 983 486 q 964 743 983 690 q 910 830 944 796 q 829 881 875 864 q 732 899 783 899 q 568 862 647 899 q 427 754 489 825 q 328 580 365 683 q 292 343 292 476 z "},"P":{"ha":785,"x_min":115,"x_max":899,"o":"m 342 944 q 455 963 394 956 q 578 971 515 971 q 821 908 743 971 q 899 728 899 846 q 867 585 899 650 q 777 472 836 519 q 631 399 718 425 q 431 372 543 372 l 300 372 l 210 0 l 115 0 l 342 944 m 443 454 q 706 524 613 454 q 799 715 799 593 q 740 847 799 806 q 557 889 682 889 q 485 885 521 889 q 421 879 450 882 l 318 454 l 443 454 z "},"Q":{"ha":1039,"x_min":192,"x_max":1083,"o":"m 192 358 q 239 617 192 501 q 364 815 286 733 q 540 940 442 896 q 740 983 638 983 q 871 960 808 983 q 981 891 933 938 q 1056 773 1028 844 q 1083 606 1083 701 q 1041 358 1083 469 q 928 167 999 247 q 768 39 858 86 q 582 -18 678 -8 q 578 -42 578 -31 q 600 -91 578 -69 q 660 -129 622 -112 q 745 -158 697 -146 q 844 -178 793 -169 l 808 -256 q 703 -237 760 -250 q 599 -202 647 -225 q 519 -144 551 -179 q 488 -54 488 -108 q 488 -37 488 -46 q 490 -18 488 -28 q 374 15 429 -11 q 279 88 319 42 q 215 202 239 135 q 192 358 192 269 m 292 343 q 311 219 292 272 q 365 133 331 167 q 445 81 400 99 q 543 64 490 64 q 707 101 628 64 q 847 208 786 138 q 946 383 908 279 q 983 619 983 486 q 964 743 983 690 q 910 830 944 796 q 829 881 875 864 q 732 899 783 899 q 568 862 647 899 q 427 754 489 825 q 328 580 365 683 q 292 343 292 476 z "},"R":{"ha":822,"x_min":115,"x_max":894,"o":"m 567 971 q 813 905 731 971 q 894 718 894 839 q 825 528 894 610 q 614 411 756 447 q 654 331 631 381 q 702 225 678 282 q 749 109 726 168 q 788 0 772 50 l 688 0 q 602 220 649 118 q 515 393 556 322 q 419 389 469 389 l 303 389 l 210 0 l 115 0 l 342 944 q 448 963 390 954 q 567 971 506 971 m 436 469 q 703 535 610 469 q 796 721 796 601 q 738 849 796 808 q 553 889 679 889 q 483 885 517 889 q 421 879 449 882 l 321 469 l 436 469 z "},"S":{"ha":676,"x_min":67,"x_max":818,"o":"m 115 129 q 213 80 156 99 q 333 61 271 61 q 430 73 383 61 q 513 110 476 85 q 572 176 550 136 q 594 271 594 215 q 568 361 594 326 q 502 421 542 396 q 416 467 463 446 q 330 519 369 489 q 264 594 290 550 q 238 708 238 638 q 258 808 238 758 q 323 896 279 857 q 433 959 367 935 q 589 983 499 983 q 702 972 649 983 q 818 929 756 960 l 769 850 q 673 891 721 879 q 572 903 625 903 q 484 892 526 903 q 408 860 442 882 q 355 803 375 839 q 335 718 335 768 q 361 628 335 663 q 428 568 388 593 q 514 522 468 543 q 600 470 560 500 q 667 394 640 440 q 693 275 693 349 q 672 167 693 221 q 603 72 650 114 q 485 5 557 31 q 314 -21 414 -21 q 184 -3 247 -21 q 67 47 121 15 l 115 129 z "},"T":{"ha":731,"x_min":236,"x_max":939,"o":"m 531 881 l 236 881 l 254 963 l 939 963 l 919 881 l 625 881 l 414 0 l 319 0 l 531 881 z "},"U":{"ha":900,"x_min":192,"x_max":1028,"o":"m 347 963 l 442 963 l 301 381 q 290 317 294 349 q 285 257 285 286 q 294 180 285 215 q 328 118 304 144 q 389 76 351 92 q 483 61 426 61 q 596 79 547 61 q 681 135 644 97 q 744 233 718 174 q 792 376 771 293 l 933 963 l 1028 963 l 883 363 q 824 188 858 261 q 740 69 789 115 q 625 0 690 22 q 475 -22 560 -22 q 348 -2 401 -22 q 260 54 294 18 q 208 140 225 90 q 192 250 192 190 q 208 378 192 311 l 347 963 z "},"V":{"ha":826,"x_min":236,"x_max":1049,"o":"m 458 0 l 371 0 q 334 193 351 97 q 301 400 317 289 q 269 647 285 511 q 236 963 253 783 l 328 963 q 353 697 340 818 q 378 472 365 576 q 406 278 392 368 q 436 106 419 188 q 697 504 569 288 q 943 963 824 721 l 1049 963 q 883 663 961 800 q 733 409 806 526 q 594 191 661 292 q 458 0 526 90 z "},"W":{"ha":1204,"x_min":233,"x_max":1413,"o":"m 257 0 q 237 475 233 236 q 256 963 240 714 l 347 963 q 328 538 333 753 q 332 104 324 324 q 441 278 390 196 q 542 445 492 360 q 644 626 592 531 q 761 839 697 721 l 844 839 q 861 632 851 735 q 881 434 871 529 q 903 255 892 339 q 926 106 915 171 q 1021 287 972 186 q 1118 499 1069 388 q 1215 728 1167 610 q 1310 963 1264 846 l 1413 963 q 1189 445 1300 682 q 960 0 1078 208 l 860 0 q 811 319 833 146 q 774 693 789 492 q 569 338 671 506 q 357 0 467 169 l 257 0 z "},"X":{"ha":764,"x_min":14,"x_max":944,"o":"m 451 508 l 256 963 l 358 963 l 524 572 q 693 773 614 675 q 839 963 772 871 l 944 963 q 753 725 847 836 q 560 503 660 614 q 664 255 610 382 q 765 0 718 128 l 663 0 q 630 94 649 43 q 589 201 611 144 q 542 316 567 257 q 490 433 517 375 l 128 0 l 14 0 l 451 508 z "},"Y":{"ha":771,"x_min":250,"x_max":993,"o":"m 431 389 q 380 535 404 460 q 333 683 356 610 q 289 828 310 757 q 250 963 268 900 l 353 963 q 417 716 381 843 q 497 479 453 589 q 597 593 544 532 q 701 718 650 654 q 799 844 753 782 q 881 963 844 907 l 993 963 q 776 686 897 835 q 525 389 656 538 l 433 0 l 339 0 l 431 389 z "},"Z":{"ha":760,"x_min":56,"x_max":926,"o":"m 71 71 q 167 197 111 128 q 288 340 224 265 q 422 492 353 415 q 557 640 490 568 q 685 773 624 711 q 794 881 746 835 l 290 881 l 310 963 l 926 963 l 907 876 q 811 785 867 840 q 691 663 756 729 q 558 522 626 597 q 423 372 490 447 q 294 222 356 296 q 185 82 233 147 l 722 82 l 704 0 l 56 0 l 71 71 z "},"[":{"ha":424,"x_min":81,"x_max":676,"o":"m 404 1088 l 676 1088 l 661 1018 l 472 1018 l 181 -187 l 371 -187 l 353 -257 l 81 -257 l 404 1088 z "},"\\":{"ha":501,"x_min":247,"x_max":476,"o":"m 393 -257 l 247 1088 l 331 1088 l 476 -257 l 393 -257 z "},"]":{"ha":425,"x_min":-72,"x_max":525,"o":"m -56 -187 l 133 -187 l 425 1018 l 235 1018 l 253 1088 l 525 1088 l 201 -257 l -72 -257 l -56 -187 z "},"^":{"ha":783,"x_min":208,"x_max":786,"o":"m 572 963 l 640 963 l 786 490 l 718 460 l 589 868 l 271 464 l 208 500 l 572 963 z "},"_":{"ha":763,"x_min":-17,"x_max":696,"o":"m 1 -182 l 696 -182 l 678 -257 l -17 -257 l 1 -182 z "},"`":{"ha":467,"x_min":296,"x_max":572,"o":"m 369 1074 l 572 858 l 524 810 l 296 993 l 369 1074 z "},"a":{"ha":725,"x_min":136,"x_max":783,"o":"m 676 640 q 631 649 651 646 q 588 651 610 651 q 435 618 501 651 q 322 531 368 585 q 252 407 276 476 q 228 265 228 338 q 239 170 228 208 q 269 109 250 132 q 315 76 289 86 q 369 65 340 65 q 476 92 426 65 q 571 169 526 119 q 582 256 571 207 q 603 343 593 304 l 676 640 m 596 -8 q 581 30 588 8 q 572 74 575 51 q 470 4 524 26 q 360 -18 417 -18 q 275 -3 315 -18 q 204 44 235 13 q 155 127 174 76 q 136 247 136 178 q 172 449 136 358 q 273 602 208 539 q 426 700 338 665 q 618 735 514 735 q 783 706 704 735 l 676 274 q 663 208 668 239 q 657 150 657 178 q 664 79 657 113 q 689 6 671 46 l 596 -8 z "},"b":{"ha":726,"x_min":108,"x_max":771,"o":"m 214 82 q 313 67 264 67 q 472 103 403 67 q 586 196 540 139 q 656 322 632 253 q 679 460 679 392 q 635 606 679 560 q 525 651 592 651 q 430 631 481 651 q 331 574 379 611 l 214 82 m 357 679 q 446 721 399 707 q 539 735 493 735 q 714 663 657 735 q 771 467 771 590 q 740 291 771 378 q 650 136 710 204 q 501 26 590 68 q 296 -17 413 -17 q 108 24 197 -17 l 357 1061 l 451 1078 l 357 679 z "},"c":{"ha":632,"x_min":136,"x_max":718,"o":"m 604 35 q 519 0 576 17 q 390 -17 461 -17 q 200 56 264 -17 q 136 254 136 128 q 165 435 136 349 q 251 589 194 522 q 389 695 307 656 q 575 735 471 735 q 718 711 647 735 l 681 629 q 617 647 649 642 q 557 651 586 651 q 423 620 483 651 q 319 535 363 589 q 253 412 276 482 q 229 264 229 342 q 272 119 229 172 q 407 67 314 67 q 466 72 436 67 q 521 85 496 78 q 565 101 546 93 q 594 117 585 110 l 604 35 z "},"d":{"ha":750,"x_min":136,"x_max":878,"o":"m 685 644 q 642 649 665 647 q 599 651 618 651 q 431 616 501 651 q 316 524 361 581 q 249 399 271 468 q 228 264 228 331 q 235 187 228 222 q 260 124 243 151 q 303 82 276 97 q 367 67 329 67 q 433 76 401 67 q 491 101 464 86 q 540 133 518 115 q 578 168 563 151 q 588 249 578 204 q 610 343 597 294 l 685 644 m 603 -8 q 589 28 596 6 q 579 74 582 51 q 547 44 567 60 q 499 15 526 28 q 436 -8 471 1 q 360 -17 401 -17 q 258 5 300 -17 q 188 63 215 26 q 149 148 161 99 q 136 251 136 197 q 165 425 136 339 q 252 580 193 511 q 401 692 311 649 q 614 735 492 735 q 704 726 658 735 l 783 1061 l 878 1078 l 678 249 q 667 200 671 224 q 664 154 664 176 q 671 78 664 114 q 696 6 678 42 l 603 -8 z "},"e":{"ha":678,"x_min":136,"x_max":750,"o":"m 750 550 q 712 424 750 472 q 605 347 674 375 q 440 306 536 318 q 225 288 343 293 l 225 258 q 233 183 225 218 q 264 123 242 149 q 326 82 286 97 q 428 67 365 67 q 526 81 476 67 q 619 122 575 94 l 629 39 q 525 -2 582 13 q 410 -17 468 -17 q 281 3 333 -17 q 197 57 229 22 q 150 140 164 92 q 136 247 136 189 q 163 424 136 336 q 243 581 190 511 q 373 692 296 650 q 549 735 450 735 q 698 684 646 735 q 750 550 750 633 m 540 653 q 436 630 485 653 q 349 568 388 607 q 281 478 310 529 q 239 369 253 426 q 438 385 357 372 q 567 419 518 397 q 638 473 617 442 q 658 544 658 504 q 626 626 658 599 q 540 653 593 653 z "},"f":{"ha":493,"x_min":-19,"x_max":760,"o":"m 238 142 q 205 19 221 75 q 169 -86 189 -37 q 122 -178 149 -135 q 60 -262 96 -221 l -19 -250 q 40 -163 15 -203 q 81 -85 64 -124 q 110 -6 97 -46 q 133 81 122 33 l 306 796 q 358 933 325 879 q 431 1019 390 988 q 519 1065 472 1051 q 615 1078 567 1078 q 697 1069 663 1078 q 760 1050 731 1061 l 717 978 q 662 993 688 988 q 601 999 636 999 q 535 989 565 999 q 478 956 504 979 q 432 892 453 932 q 396 793 411 853 l 376 718 l 617 718 l 600 640 l 357 640 l 238 142 z "},"g":{"ha":728,"x_min":22,"x_max":786,"o":"m 683 642 q 597 653 639 653 q 431 619 501 653 q 315 534 361 586 q 247 419 269 482 q 225 297 225 356 q 232 226 225 260 q 256 167 239 192 q 301 127 272 142 q 376 113 331 113 q 474 130 424 113 q 571 176 525 147 l 683 642 m 61 -124 q 145 -162 90 -147 q 254 -178 200 -178 q 451 -119 382 -178 q 540 46 519 -61 l 547 82 q 458 42 506 56 q 364 29 411 29 q 260 49 304 29 q 189 102 217 68 q 147 181 161 136 q 133 278 133 226 q 162 438 133 357 q 250 585 190 519 q 399 693 310 651 q 613 735 489 735 q 707 724 663 735 q 786 694 751 714 l 631 47 q 594 -67 617 -11 q 529 -165 572 -122 q 415 -235 486 -208 q 231 -261 343 -261 q 181 -258 208 -261 q 124 -247 153 -254 q 69 -231 96 -240 q 22 -210 43 -222 l 61 -124 z "},"h":{"ha":757,"x_min":115,"x_max":760,"o":"m 206 0 l 115 0 l 368 1061 l 463 1078 l 371 699 q 536 735 458 735 q 624 721 583 735 q 694 679 664 707 q 742 609 725 651 q 760 508 760 567 q 754 434 760 472 q 739 357 749 396 l 653 0 l 563 0 l 639 319 q 660 413 650 365 q 669 503 669 460 q 656 573 669 544 q 622 619 643 601 q 571 644 600 636 q 510 651 542 651 q 428 643 469 651 q 351 622 388 635 l 206 0 z "},"i":{"ha":326,"x_min":115,"x_max":447,"o":"m 289 718 l 379 718 l 206 0 l 115 0 l 289 718 m 325 928 q 345 983 325 964 q 389 1001 365 1001 q 432 984 417 1001 q 447 939 447 967 q 425 888 447 906 q 381 869 403 869 q 339 885 353 869 q 325 928 325 901 z "},"j":{"ha":326,"x_min":-140,"x_max":464,"o":"m -119 -160 q -77 -176 -97 -171 q -31 -182 -57 -182 q 33 -167 7 -182 q 80 -124 60 -151 q 113 -60 100 -97 q 138 22 126 -22 l 303 718 l 393 718 l 231 39 q 191 -92 213 -36 q 138 -186 169 -149 q 63 -242 107 -224 q -42 -261 19 -261 q -101 -253 -76 -261 q -140 -236 -125 -246 l -119 -160 m 342 928 q 362 983 342 964 q 406 1001 382 1001 q 449 984 433 1001 q 464 939 464 967 q 442 888 464 906 q 397 869 419 869 q 356 885 369 869 q 342 928 342 901 z "},"k":{"ha":693,"x_min":115,"x_max":765,"o":"m 371 1061 l 465 1078 l 306 414 q 408 490 356 447 q 508 574 460 532 q 594 655 556 617 q 656 718 633 693 l 765 718 q 694 640 740 686 q 595 547 647 594 q 492 459 543 500 q 408 399 442 418 q 501 314 456 363 q 583 211 546 265 q 651 102 621 157 q 697 0 681 47 l 600 0 q 461 224 539 131 q 297 376 383 318 l 206 0 l 115 0 l 371 1061 z "},"l":{"ha":369,"x_min":150,"x_max":442,"o":"m 349 1061 l 442 1078 l 269 354 q 248 265 258 307 q 238 186 238 222 q 242 145 238 164 q 258 112 246 126 q 294 86 271 97 q 353 67 317 75 l 332 -12 q 190 49 231 0 q 150 174 150 99 q 156 244 150 207 q 171 321 161 281 l 349 1061 z "},"m":{"ha":1140,"x_min":115,"x_max":1143,"o":"m 281 693 q 328 707 301 700 q 383 719 354 714 q 443 728 413 725 q 501 732 474 732 q 608 716 560 732 q 688 658 656 700 q 812 716 758 700 q 917 732 865 732 q 1005 722 964 732 q 1076 686 1046 711 q 1125 618 1107 661 q 1143 508 1143 575 q 1138 434 1143 472 q 1122 357 1132 396 l 1036 0 l 946 0 l 1022 319 q 1043 413 1033 365 q 1053 503 1053 460 q 1042 574 1053 546 q 1010 619 1031 603 q 964 642 990 636 q 907 649 938 649 q 831 638 878 649 q 719 586 785 628 q 728 508 728 550 q 722 434 728 472 q 707 357 717 396 l 621 0 l 531 0 l 607 319 q 628 413 618 365 q 638 503 638 460 q 626 574 638 546 q 595 619 615 603 q 549 642 575 636 q 492 649 522 649 q 424 643 460 649 q 357 629 388 638 l 206 0 l 115 0 l 281 693 z "},"n":{"ha":758,"x_min":115,"x_max":761,"o":"m 281 693 q 396 720 335 708 q 517 732 457 732 q 611 722 567 732 q 689 685 656 711 q 742 615 722 658 q 761 508 761 572 q 756 434 761 472 q 740 357 750 396 l 654 0 l 564 0 l 640 319 q 660 413 651 365 q 671 503 669 460 q 658 574 671 546 q 622 618 644 601 q 568 642 599 635 q 504 649 538 649 q 431 643 468 649 q 357 629 393 638 l 206 0 l 115 0 l 281 693 z "},"o":{"ha":731,"x_min":136,"x_max":775,"o":"m 228 231 q 274 107 228 149 q 383 65 319 65 q 486 91 433 65 q 583 169 539 117 q 655 300 626 221 q 683 486 683 379 q 638 610 683 568 q 528 651 592 651 q 425 626 478 651 q 328 548 372 600 q 256 417 285 496 q 228 231 228 338 m 775 493 q 738 267 775 363 q 644 108 701 171 q 516 14 586 44 q 378 -17 446 -17 q 285 -1 329 -17 q 208 44 242 14 q 156 120 175 75 q 136 225 136 165 q 173 451 136 356 q 267 610 210 547 q 395 703 325 672 q 533 733 465 733 q 626 718 582 733 q 703 672 669 703 q 756 597 736 642 q 775 493 775 551 z "},"p":{"ha":721,"x_min":53,"x_max":765,"o":"m 228 83 q 315 71 271 71 q 468 105 401 71 q 581 194 535 139 q 650 317 626 249 q 674 457 674 386 q 628 609 674 561 q 490 657 582 657 q 426 651 458 657 q 358 636 393 646 l 228 83 m 281 689 q 397 722 339 710 q 513 735 456 735 q 765 471 765 735 q 735 290 765 378 q 645 135 704 203 q 501 28 586 68 q 306 -12 415 -12 q 206 0 251 -12 l 144 -257 l 53 -257 l 281 689 z "},"q":{"ha":749,"x_min":136,"x_max":793,"o":"m 689 643 q 656 650 674 646 q 625 654 639 654 q 462 624 535 654 q 337 542 389 594 q 256 416 285 489 q 228 257 228 343 q 233 194 228 228 q 256 131 239 160 q 303 82 272 101 q 386 63 335 63 q 482 80 435 63 q 564 125 529 97 l 689 643 m 539 22 q 462 -6 507 4 q 367 -17 417 -17 q 260 5 304 -17 q 189 63 217 26 q 149 146 161 99 q 136 244 136 193 q 165 420 136 332 q 255 578 193 508 q 415 691 317 647 q 653 735 513 735 q 722 726 679 735 q 793 699 764 718 l 563 -257 l 472 -257 l 539 22 z "},"r":{"ha":508,"x_min":115,"x_max":636,"o":"m 279 686 q 395 721 332 707 q 519 735 458 735 q 581 731 551 735 q 636 717 610 726 l 613 635 q 501 651 558 651 q 429 646 465 651 q 357 629 393 640 l 206 0 l 115 0 l 279 686 z "},"s":{"ha":556,"x_min":67,"x_max":628,"o":"m 106 114 q 196 76 157 86 q 283 67 235 67 q 350 74 318 67 q 406 97 382 82 q 443 138 429 113 q 457 196 457 163 q 437 256 457 232 q 387 297 417 279 q 322 331 357 314 q 258 369 288 347 q 208 425 228 392 q 188 511 188 458 q 210 613 188 571 q 269 683 232 656 q 356 722 307 710 q 456 735 404 735 q 544 727 500 735 q 628 704 588 719 l 592 624 q 525 644 563 636 q 447 651 488 651 q 383 644 414 651 q 328 622 351 638 q 290 581 304 606 q 275 522 275 557 q 295 463 275 486 q 344 421 315 439 q 409 387 374 403 q 474 349 444 371 q 523 295 503 326 q 543 215 543 264 q 520 110 543 154 q 460 38 497 65 q 374 -3 422 10 q 274 -17 325 -17 q 165 -5 219 -17 q 67 32 111 7 l 106 114 z "},"t":{"ha":524,"x_min":157,"x_max":624,"o":"m 331 929 l 425 946 l 371 718 l 624 718 l 606 640 l 351 640 l 267 289 q 255 235 260 264 q 250 179 250 207 q 281 92 250 117 q 357 67 311 67 q 434 76 401 67 q 503 103 467 86 l 511 21 q 427 -6 474 6 q 335 -17 381 -17 q 267 -8 299 -17 q 210 19 235 0 q 172 71 186 39 q 157 151 157 103 q 176 289 157 211 l 331 929 z "},"u":{"ha":725,"x_min":136,"x_max":783,"o":"m 344 -17 q 244 -1 285 -17 q 181 41 204 14 q 147 105 157 68 q 136 185 136 142 q 143 270 136 225 q 161 361 150 315 l 247 718 l 338 718 l 261 401 q 237 299 250 353 q 224 197 224 246 q 230 146 224 169 q 251 104 236 122 q 292 76 267 86 q 356 67 317 67 q 473 93 422 67 q 568 169 524 119 q 579 256 568 207 q 600 343 590 304 l 693 718 l 783 718 l 674 274 q 660 208 665 239 q 654 150 654 178 q 661 79 654 113 q 686 6 668 46 l 593 -8 q 578 30 585 8 q 569 74 572 51 q 466 5 521 26 q 344 -17 411 -17 z "},"v":{"ha":632,"x_min":181,"x_max":771,"o":"m 274 0 q 211 339 239 154 q 181 718 183 524 l 269 718 q 276 560 271 643 q 292 393 282 476 q 315 232 301 310 q 344 93 328 154 q 435 226 386 149 q 532 388 485 303 q 619 559 579 474 q 682 718 658 644 l 771 718 q 699 535 743 631 q 600 344 654 439 q 484 161 546 250 q 363 0 422 72 l 274 0 z "},"w":{"ha":1060,"x_min":181,"x_max":1199,"o":"m 342 0 l 247 0 q 201 335 218 153 q 181 718 183 517 l 269 718 q 275 558 271 644 q 286 385 279 471 q 301 222 293 299 q 321 94 310 146 q 412 233 365 157 q 501 392 458 310 q 580 558 543 475 q 642 718 617 642 l 735 718 q 738 569 735 650 q 747 406 742 489 q 760 242 753 322 q 778 94 768 161 q 859 208 811 132 q 956 373 907 283 q 1047 554 1004 463 q 1110 718 1089 646 l 1199 718 q 1115 508 1167 615 q 1006 303 1064 400 q 892 127 949 207 q 792 0 835 47 l 697 0 q 671 264 683 122 q 656 543 658 406 q 591 403 628 478 q 513 256 554 329 q 427 117 471 183 q 342 0 383 50 z "},"x":{"ha":628,"x_min":17,"x_max":742,"o":"m 353 376 l 175 718 l 281 718 l 421 428 q 545 583 485 506 q 642 718 606 660 l 742 718 q 606 535 681 626 q 463 363 532 443 q 503 285 481 328 q 548 194 525 242 q 591 97 571 146 q 626 0 611 47 l 532 0 q 507 72 522 32 q 473 153 492 111 q 435 235 454 194 q 399 310 415 276 l 126 0 l 17 0 l 353 376 z "},"y":{"ha":628,"x_min":-82,"x_max":753,"o":"m -50 -161 q 35 -182 -12 -182 q 174 -143 106 -182 q 300 -25 242 -104 q 208 350 242 160 q 169 718 175 540 l 264 718 q 273 572 267 651 q 292 407 279 493 q 322 231 304 321 q 367 57 340 142 q 479 256 429 156 q 567 446 529 357 q 628 606 604 535 q 664 718 653 678 l 753 718 q 722 619 744 689 q 663 456 700 549 q 572 255 625 363 q 449 44 518 147 q 242 -188 342 -115 q 33 -261 142 -261 q -21 -257 8 -261 q -82 -236 -50 -253 l -50 -161 z "},"z":{"ha":594,"x_min":56,"x_max":733,"o":"m 71 64 q 140 161 99 108 q 230 268 182 214 q 329 376 278 322 q 430 479 381 431 q 523 569 479 528 q 600 640 567 611 l 226 640 l 243 718 l 733 718 l 717 647 q 642 578 688 621 q 543 483 596 535 q 435 373 490 431 q 328 261 379 315 q 238 159 278 207 q 176 78 197 111 l 586 78 l 569 0 l 56 0 l 71 64 z "},"{":{"ha":424,"x_min":150,"x_max":663,"o":"m 335 -271 q 201 -237 249 -271 q 153 -129 153 -203 q 157 -88 153 -114 q 168 -35 161 -62 l 221 179 q 231 227 228 204 q 235 269 235 250 q 216 336 235 310 q 150 367 197 363 l 167 435 q 234 455 207 435 q 279 506 261 475 q 308 571 297 536 q 326 635 319 606 l 363 779 q 400 914 382 858 q 449 1005 418 969 q 529 1057 479 1040 q 663 1074 579 1074 l 644 1004 q 581 999 610 1004 q 530 978 553 994 q 490 933 507 963 q 460 854 472 903 l 419 690 q 388 576 403 625 q 354 490 372 526 q 313 431 336 454 q 258 393 290 407 q 303 342 293 372 q 314 276 314 311 q 309 226 314 251 q 299 176 304 200 l 243 -53 q 233 -118 233 -90 q 264 -182 233 -162 q 354 -201 294 -201 l 335 -271 l 335 -271 z "},"|":{"ha":374,"x_min":81,"x_max":488,"o":"m 404 1088 l 488 1088 l 164 -257 l 81 -257 l 404 1088 z "},"}":{"ha":424,"x_min":-25,"x_max":488,"o":"m 303 1074 q 437 1040 389 1074 q 485 932 485 1006 q 481 891 485 917 q 469 838 476 865 l 417 624 q 406 576 410 599 q 403 533 403 553 q 422 467 403 493 q 488 436 440 440 l 471 368 q 403 348 431 368 q 358 297 376 328 q 329 232 340 267 q 311 168 318 197 l 275 24 q 238 -112 256 -56 q 189 -203 219 -168 q 108 -255 158 -239 q -25 -271 58 -271 l -7 -201 q 56 -197 28 -201 q 108 -176 85 -192 q 148 -130 131 -160 q 178 -51 165 -100 l 218 113 q 250 227 235 178 q 283 313 265 276 q 324 372 301 349 q 379 410 347 396 q 334 461 344 431 q 324 526 324 492 q 328 577 324 551 q 339 626 333 603 l 394 856 q 404 921 404 893 q 374 985 404 965 q 283 1004 343 1004 l 303 1074 l 303 1074 z "},"~":{"ha":783,"x_min":147,"x_max":807,"o":"m 147 328 q 174 382 157 351 q 216 440 190 413 q 276 485 242 467 q 357 504 311 504 q 433 484 401 504 q 491 440 464 464 q 546 395 518 415 q 611 375 574 375 q 663 390 640 375 q 701 424 685 404 q 726 462 717 443 q 740 489 736 481 l 807 467 q 783 414 799 444 q 740 356 767 383 q 678 310 714 329 q 594 292 642 292 q 519 312 550 292 q 460 356 488 332 q 406 401 433 381 q 343 421 379 421 q 292 406 314 421 q 253 371 269 390 q 228 333 238 351 q 214 306 218 314 l 147 328 z "},"€":{"ha":783,"x_min":138,"x_max":911,"o":"m 354 329 q 353 303 353 315 q 353 278 353 290 q 358 202 353 240 q 383 133 364 164 q 440 83 403 103 q 542 64 478 64 q 649 74 604 64 q 726 99 694 85 l 729 21 q 644 -4 701 10 q 519 -18 588 -18 q 389 8 440 -18 q 308 74 338 33 q 266 166 278 115 q 254 265 254 217 q 254 297 254 281 q 256 329 254 314 l 138 329 l 154 403 l 261 403 q 294 568 272 489 l 194 568 l 211 642 l 319 642 q 392 779 349 717 q 490 886 435 842 q 614 955 546 931 q 763 979 682 979 q 835 974 801 979 q 911 953 868 968 l 871 872 q 739 899 813 899 q 632 879 681 899 q 544 826 583 860 q 472 744 504 792 q 418 642 440 697 l 753 642 l 722 568 l 392 568 q 360 403 368 486 l 649 403 l 618 329 l 354 329 z "},"‚":{"ha":315,"x_min":25,"x_max":263,"o":"m 97 -172 l 25 -143 q 107 -8 78 -71 q 150 132 136 56 l 263 132 q 204 -23 246 53 q 97 -172 163 -99 z "},"ƒ":{"ha":510,"x_min":-140,"x_max":776,"o":"m 322 796 q 374 933 342 879 q 448 1019 407 988 q 536 1065 489 1051 q 632 1078 583 1078 q 713 1069 679 1078 q 776 1050 747 1061 l 733 978 q 678 993 704 988 q 618 999 653 999 q 551 989 582 999 q 495 956 521 979 q 449 892 469 932 q 413 793 428 853 l 393 718 l 633 718 l 617 640 l 374 640 l 231 39 q 191 -92 213 -36 q 138 -186 169 -149 q 63 -242 107 -224 q -42 -261 19 -261 q -101 -253 -76 -261 q -140 -236 -125 -246 l -119 -160 q -77 -176 -97 -171 q -31 -182 -57 -182 q 33 -167 7 -182 q 79 -124 60 -151 q 113 -60 99 -97 q 138 22 126 -22 l 322 796 z "},"„":{"ha":544,"x_min":25,"x_max":492,"o":"m 97 -172 l 25 -143 q 107 -8 78 -71 q 150 132 136 56 l 263 132 q 204 -23 246 53 q 97 -172 163 -99 m 326 -172 l 254 -143 q 336 -8 307 -71 q 379 132 365 56 l 492 132 q 433 -23 475 53 q 326 -172 392 -99 z "},"…":{"ha":1242,"x_min":108,"x_max":1161,"o":"m 178 -18 q 125 2 142 -18 q 108 49 108 22 q 129 106 108 79 q 188 133 150 133 q 240 113 224 133 q 257 67 257 93 q 236 9 257 36 q 178 -18 215 -18 m 629 -18 q 576 2 593 -18 q 560 49 560 22 q 581 106 560 79 q 639 133 601 133 q 692 113 675 133 q 708 67 708 93 q 688 9 708 36 q 629 -18 667 -18 m 1082 -18 q 1029 2 1046 -18 q 1013 49 1013 22 q 1033 106 1013 79 q 1092 133 1054 133 q 1144 113 1128 133 q 1161 67 1161 93 q 1140 9 1161 36 q 1082 -18 1119 -18 z "},"†":{"ha":624,"x_min":178,"x_max":724,"o":"m 238 -200 q 264 -14 247 -108 q 310 199 281 81 l 399 571 l 178 571 l 197 650 l 419 650 l 494 963 l 576 963 l 501 650 l 724 650 l 704 571 l 483 571 l 393 199 q 335 -15 364 81 q 275 -200 307 -110 l 238 -200 z "},"‡":{"ha":642,"x_min":122,"x_max":756,"o":"m 268 -201 q 296 -12 278 -107 q 344 204 314 83 l 122 204 l 140 283 l 363 283 l 431 571 l 210 571 l 229 650 l 451 650 l 526 963 l 608 963 l 533 650 l 756 650 l 736 571 l 514 571 l 444 283 l 667 283 l 647 204 l 426 204 q 371 -12 399 83 q 308 -201 343 -108 l 268 -201 z "},"ˆ":{"ha":467,"x_min":222,"x_max":594,"o":"m 258 810 l 222 856 l 457 1060 l 594 856 l 547 810 l 435 943 l 258 810 z "},"‰":{"ha":1569,"x_min":219,"x_max":1572,"o":"m 1314 50 q 1398 76 1364 50 q 1453 140 1432 103 q 1485 216 1475 176 q 1494 283 1494 256 q 1492 332 1494 310 q 1479 371 1489 354 q 1453 397 1469 388 q 1407 406 1436 406 q 1323 379 1357 406 q 1268 316 1289 353 q 1238 239 1247 279 q 1229 172 1229 199 q 1232 125 1229 147 q 1243 86 1235 103 q 1268 60 1251 69 q 1314 50 1285 50 m 1151 161 q 1167 265 1151 210 q 1215 367 1183 321 q 1296 445 1247 414 q 1411 476 1344 476 q 1531 430 1490 476 q 1572 296 1572 383 q 1556 192 1572 247 q 1508 89 1540 136 q 1427 10 1476 42 q 1311 -21 1378 -21 q 1192 26 1232 -21 q 1151 161 1151 74 m 382 556 q 466 582 432 556 q 522 645 500 608 q 553 722 543 682 q 563 789 563 761 q 560 838 563 815 q 547 876 557 860 q 521 902 538 893 q 475 911 504 911 q 391 885 425 911 q 336 822 357 858 q 306 744 315 785 q 297 678 297 704 q 300 631 297 653 q 311 592 303 608 q 336 565 319 575 q 382 556 353 556 m 985 963 l 1082 963 l 321 0 l 224 0 l 985 963 m 219 667 q 235 771 219 715 q 283 873 251 826 q 364 951 315 919 q 479 982 413 982 q 599 935 558 982 q 640 801 640 889 q 624 697 640 753 q 576 594 608 642 q 495 516 544 547 q 379 485 446 485 q 260 532 300 485 q 219 667 219 579 m 835 50 q 919 76 885 50 q 974 140 953 103 q 1006 216 996 176 q 1015 283 1015 256 q 1013 332 1015 310 q 1000 371 1010 354 q 974 397 990 388 q 928 406 957 406 q 844 379 878 406 q 789 316 810 353 q 759 239 768 279 q 750 172 750 199 q 753 125 750 147 q 764 86 756 103 q 789 60 772 69 q 835 50 806 50 m 672 161 q 688 265 672 210 q 736 367 704 321 q 817 445 768 414 q 932 476 865 476 q 1052 430 1011 476 q 1093 296 1093 383 q 1077 192 1093 247 q 1029 89 1061 136 q 948 10 997 42 q 832 -21 899 -21 q 713 26 753 -21 q 672 161 672 74 z "},"Š":{"ha":676,"x_min":67,"x_max":831,"o":"m 115 129 q 213 80 156 99 q 333 61 271 61 q 430 73 383 61 q 513 110 476 85 q 572 176 550 136 q 594 271 594 215 q 568 361 594 326 q 502 421 542 396 q 416 467 463 446 q 330 519 369 489 q 264 594 290 550 q 238 708 238 638 q 258 808 238 758 q 323 896 279 857 q 433 959 367 935 q 589 983 499 983 q 702 972 649 983 q 818 929 756 960 l 769 850 q 673 891 721 879 q 572 903 625 903 q 484 892 526 903 q 408 860 442 882 q 355 803 375 839 q 335 718 335 768 q 361 628 335 663 q 428 568 388 593 q 514 522 468 543 q 600 470 560 500 q 667 394 640 440 q 693 275 693 349 q 672 167 693 221 q 603 72 650 114 q 485 5 557 31 q 314 -21 414 -21 q 184 -3 247 -21 q 67 47 121 15 l 115 129 m 794 1272 l 831 1226 l 596 1022 l 458 1226 l 506 1272 l 618 1139 l 794 1272 z "},"‹":{"ha":418,"x_min":164,"x_max":476,"o":"m 322 100 l 164 394 l 426 688 l 476 646 l 271 389 l 386 131 l 322 100 z "},"Œ":{"ha":1317,"x_min":192,"x_max":1472,"o":"m 756 0 q 680 -8 717 -6 q 607 -11 643 -11 q 293 87 394 -11 q 192 385 192 185 q 233 615 192 508 q 358 801 275 722 q 561 926 440 881 q 840 972 682 972 q 904 969 872 972 q 969 963 936 967 l 1472 963 l 1454 881 l 1029 881 l 947 546 l 1324 546 l 1306 465 l 932 465 l 836 82 l 1293 82 l 1276 0 l 756 0 m 603 74 q 673 76 638 74 q 744 83 708 79 l 936 883 q 886 888 911 886 q 838 889 861 889 q 602 853 704 889 q 431 750 500 817 q 327 591 363 683 q 292 386 292 499 q 367 146 292 218 q 603 74 443 74 z "},"‘":{"ha":328,"x_min":275,"x_max":506,"o":"m 436 1043 l 506 1015 q 461 947 481 979 q 427 881 442 914 q 403 814 413 849 q 388 739 393 779 l 275 739 q 301 823 283 781 q 340 904 318 865 q 386 978 361 943 q 436 1043 411 1014 z "},"’":{"ha":328,"x_min":260,"x_max":490,"o":"m 329 725 l 260 753 q 304 822 285 789 q 338 887 324 854 q 363 954 353 919 q 378 1029 372 989 l 490 1029 q 465 945 482 988 q 426 864 447 903 q 379 790 404 825 q 329 725 354 754 z "},"“":{"ha":550,"x_min":275,"x_max":733,"o":"m 664 1043 l 733 1015 q 689 947 708 979 q 655 881 669 914 q 631 814 640 849 q 615 739 621 779 l 503 739 q 528 823 511 781 q 567 904 546 865 q 614 978 589 943 q 664 1043 639 1014 m 436 1043 l 506 1015 q 461 947 481 979 q 427 881 442 914 q 403 814 413 849 q 388 739 393 779 l 275 739 q 301 823 283 781 q 340 904 318 865 q 386 978 361 943 q 436 1043 411 1014 z "},"”":{"ha":550,"x_min":247,"x_max":704,"o":"m 317 725 l 247 753 q 292 822 272 789 q 326 887 311 854 q 350 954 340 919 q 365 1029 360 989 l 478 1029 q 452 945 469 988 q 413 864 435 903 q 367 790 392 825 q 317 725 342 754 m 543 725 l 474 753 q 518 822 499 789 q 552 887 538 854 q 576 954 567 919 q 592 1029 586 989 l 704 1029 q 678 945 696 988 q 640 864 661 903 q 593 790 618 825 q 543 725 568 754 z "},"•":{"ha":467,"x_min":206,"x_max":539,"o":"m 539 490 q 527 426 539 457 q 494 373 515 396 q 442 337 472 350 q 372 324 411 324 q 302 337 333 324 q 249 373 271 350 q 217 426 228 396 q 206 490 206 457 q 217 553 206 524 q 249 606 228 583 q 302 643 271 629 q 372 657 333 657 q 442 643 411 657 q 494 606 472 629 q 527 553 515 583 q 539 490 539 524 z "},"–":{"ha":679,"x_min":81,"x_max":793,"o":"m 100 464 l 793 464 l 775 385 l 81 385 l 100 464 z "},"—":{"ha":1375,"x_min":81,"x_max":1489,"o":"m 100 464 l 1489 464 l 1468 385 l 81 385 l 100 464 z "},"˜":{"ha":467,"x_min":229,"x_max":696,"o":"m 535 874 q 489 882 508 874 q 451 901 469 890 q 415 919 433 911 q 371 928 396 928 q 321 912 340 928 q 279 864 301 896 l 229 894 q 254 933 240 914 q 287 968 268 953 q 331 992 306 983 q 390 1001 356 1001 q 435 993 415 1001 q 472 974 454 985 q 510 956 490 964 q 554 947 529 947 q 604 963 585 947 q 646 1011 624 979 l 696 979 q 671 940 685 960 q 638 906 657 921 q 594 883 619 892 q 535 874 569 874 z "},"™":{"ha":985,"x_min":192,"x_max":1099,"o":"m 550 963 l 550 907 l 401 907 l 401 513 l 340 513 l 340 907 l 192 907 l 192 963 l 550 963 m 844 660 q 888 744 864 699 q 935 831 913 789 q 978 908 958 872 q 1011 963 999 943 l 1060 963 q 1072 881 1065 929 q 1083 774 1078 833 q 1092 649 1088 715 q 1099 513 1096 582 l 1036 513 q 1026 699 1032 613 q 1011 847 1019 785 q 972 779 994 818 q 929 701 950 740 q 891 628 908 663 q 864 575 874 594 l 819 575 q 792 628 810 594 q 754 701 775 663 q 711 779 733 740 q 672 847 689 818 q 658 699 664 785 q 647 513 651 613 l 588 513 q 594 649 589 582 q 603 774 599 715 q 615 881 608 833 q 626 963 621 929 l 678 963 q 710 908 690 943 q 753 831 731 872 q 801 744 776 789 q 844 660 825 699 z "},"š":{"ha":556,"x_min":67,"x_max":692,"o":"m 106 114 q 196 76 157 86 q 283 67 235 67 q 350 74 318 67 q 406 97 382 82 q 443 138 429 113 q 457 196 457 163 q 437 256 457 232 q 387 297 417 279 q 322 331 357 314 q 258 369 288 347 q 208 425 228 392 q 188 511 188 458 q 210 613 188 571 q 269 683 232 656 q 356 722 307 710 q 456 735 404 735 q 544 727 500 735 q 628 704 588 719 l 592 624 q 525 644 563 636 q 447 651 488 651 q 383 644 414 651 q 328 622 351 638 q 290 581 304 606 q 275 522 275 557 q 295 463 275 486 q 344 421 315 439 q 409 387 374 403 q 474 349 444 371 q 523 295 503 326 q 543 215 543 264 q 520 110 543 154 q 460 38 497 65 q 374 -3 422 10 q 274 -17 325 -17 q 165 -5 219 -17 q 67 32 111 7 l 106 114 m 656 1060 l 692 1014 l 457 810 l 319 1014 l 367 1060 l 479 926 l 656 1060 z "},"›":{"ha":418,"x_min":150,"x_max":463,"o":"m 304 688 l 463 393 l 200 100 l 150 142 l 356 399 l 240 657 l 304 688 z "},"œ":{"ha":1175,"x_min":136,"x_max":1247,"o":"m 533 735 q 676 696 625 735 q 750 574 728 657 q 888 694 808 654 q 1050 735 967 735 q 1126 723 1090 735 q 1190 688 1163 711 q 1232 631 1217 665 q 1247 550 1247 596 q 1214 418 1247 468 q 1116 339 1181 368 q 956 297 1051 310 q 736 278 861 283 q 735 265 736 271 q 735 254 735 260 q 750 156 735 193 q 792 99 765 118 q 853 73 818 79 q 929 67 889 67 q 1117 115 1015 67 l 1126 32 q 1025 -2 1085 13 q 903 -17 965 -17 q 824 -9 863 -17 q 753 17 786 -1 q 697 67 721 36 q 660 143 672 97 q 528 20 601 57 q 378 -17 454 -17 q 268 3 314 -17 q 193 60 222 24 q 150 144 164 96 q 136 251 136 193 q 165 428 136 342 q 245 583 193 515 q 370 693 297 651 q 533 735 443 735 m 528 651 q 408 617 463 651 q 313 526 353 582 q 251 398 274 469 q 229 254 229 326 q 265 115 229 167 q 383 64 301 64 q 484 90 433 64 q 576 168 535 115 q 643 300 617 221 q 669 486 669 379 q 631 610 669 568 q 528 651 592 651 m 1156 544 q 1123 625 1156 597 q 1036 653 1090 653 q 951 636 994 653 q 869 585 908 619 q 799 500 831 551 q 753 378 768 449 l 750 365 q 947 379 868 367 q 1072 414 1025 392 q 1137 469 1118 436 q 1156 544 1156 501 z "},"Ÿ":{"ha":771,"x_min":250,"x_max":993,"o":"m 431 389 q 380 535 404 460 q 333 683 356 610 q 289 828 310 757 q 250 963 268 900 l 353 963 q 417 716 381 843 q 497 479 453 589 q 597 593 544 532 q 701 718 650 654 q 799 844 753 782 q 881 963 844 907 l 993 963 q 776 686 897 835 q 525 389 656 538 l 433 0 l 339 0 l 431 389 m 764 1082 q 717 1099 732 1082 q 703 1140 703 1117 q 722 1192 703 1168 q 774 1215 740 1215 q 819 1197 804 1215 q 833 1157 833 1179 q 815 1106 833 1131 q 764 1082 797 1082 m 524 1082 q 478 1099 493 1082 q 464 1140 464 1117 q 482 1192 464 1168 q 533 1215 500 1215 q 580 1197 565 1215 q 594 1157 594 1179 q 576 1106 594 1131 q 524 1082 557 1082 z "}," ":{"ha":322,"x_min":0,"x_max":0,"o":""},"¡":{"ha":369,"x_min":128,"x_max":461,"o":"m 308 410 q 277 316 294 374 q 242 199 260 258 q 211 87 225 139 q 192 13 197 35 l 128 -257 l 225 -257 l 289 11 q 332 224 317 129 q 358 410 347 318 l 308 410 m 392 722 q 444 702 428 722 q 461 656 461 682 q 440 598 461 625 q 382 571 419 571 q 329 591 346 571 q 313 638 313 611 q 333 695 313 668 q 392 722 354 722 z "},"¢":{"ha":783,"x_min":207,"x_max":811,"o":"m 404 47 q 312 83 350 58 q 251 142 274 108 q 217 219 228 176 q 207 307 207 261 q 231 460 207 385 q 302 597 256 535 q 417 704 349 660 q 575 764 486 749 l 624 963 l 706 963 l 658 767 q 735 758 693 767 q 811 733 776 749 l 775 654 q 701 680 738 672 q 629 688 665 688 q 500 658 560 688 q 395 578 440 629 q 324 456 350 526 q 299 306 299 386 q 315 222 299 257 q 358 165 331 188 q 421 133 385 143 q 496 122 457 122 q 583 133 539 122 q 664 165 626 144 l 669 85 q 597 58 649 74 q 485 43 546 43 l 438 -151 l 356 -151 l 404 47 z "},"£":{"ha":783,"x_min":179,"x_max":893,"o":"m 203 506 l 336 506 l 367 633 q 425 800 390 733 q 504 907 460 867 q 603 964 549 947 q 721 981 657 981 q 813 968 768 981 q 893 935 857 956 l 850 860 q 704 896 790 896 q 624 884 661 896 q 557 842 588 872 q 502 762 526 813 q 460 635 478 711 l 429 506 l 701 506 l 682 429 l 411 429 q 367 262 396 356 q 303 79 339 168 l 718 79 l 699 0 l 179 0 q 255 207 215 96 q 318 429 294 318 l 185 429 l 203 506 z "},"¤":{"ha":783,"x_min":200,"x_max":828,"o":"m 254 482 q 267 569 254 528 q 303 642 279 610 l 200 747 l 256 804 l 361 696 q 432 732 393 719 q 514 744 471 744 q 596 732 557 744 q 667 696 635 719 l 772 804 l 828 747 l 725 642 q 761 569 749 610 q 774 482 774 528 q 761 395 774 436 q 725 322 749 354 l 828 217 l 772 160 l 667 268 q 596 232 635 244 q 514 219 557 219 q 432 232 471 219 q 361 268 393 244 l 256 160 l 200 217 l 303 322 q 267 395 279 354 q 254 482 254 436 m 693 482 q 679 558 693 524 q 641 618 665 593 q 584 657 617 643 q 514 671 551 671 q 444 657 476 671 q 387 618 411 643 q 349 558 363 593 q 335 482 335 524 q 349 406 335 440 q 387 346 363 371 q 444 307 411 321 q 514 293 476 293 q 584 307 551 293 q 641 346 617 321 q 679 406 665 371 q 693 482 693 440 z "},"¥":{"ha":783,"x_min":143,"x_max":956,"o":"m 503 517 q 692 739 603 626 q 864 963 782 851 l 956 963 q 867 843 911 903 q 774 722 822 783 q 673 599 726 661 q 557 472 619 536 l 774 472 l 756 399 l 522 399 l 483 233 l 717 233 l 699 160 l 465 160 l 426 0 l 336 0 l 375 160 l 143 160 l 161 233 l 393 233 l 432 399 l 200 399 l 218 472 l 431 472 q 338 722 378 601 q 267 963 297 842 l 363 963 q 422 735 388 844 q 503 517 456 626 z "},"¦":{"ha":365,"x_min":86,"x_max":496,"o":"m 410 1088 l 496 1088 l 371 565 l 283 565 l 410 1088 m 211 264 l 297 264 l 172 -257 l 86 -257 l 211 264 z "},"§":{"ha":683,"x_min":81,"x_max":811,"o":"m 182 394 q 232 534 182 474 q 367 643 282 594 q 335 699 346 669 q 324 757 324 729 q 349 860 324 817 q 415 930 374 903 q 508 970 456 957 q 617 983 561 983 q 720 972 669 983 q 811 940 771 961 l 772 869 q 699 902 740 892 q 615 913 657 913 q 540 903 576 913 q 476 877 504 894 q 432 834 449 860 q 415 775 415 808 q 440 706 415 731 q 499 664 464 681 q 577 633 535 647 q 655 598 619 619 q 715 541 690 576 q 739 447 739 506 q 689 310 739 369 q 560 207 639 251 q 600 158 585 188 q 615 88 615 128 q 589 -20 615 25 q 519 -94 563 -65 q 421 -137 476 -124 q 306 -151 365 -151 q 188 -139 246 -151 q 81 -101 129 -126 l 124 -24 q 210 -61 160 -49 q 311 -74 260 -74 q 390 -65 351 -74 q 457 -39 428 -57 q 504 6 486 -21 q 522 71 522 33 q 497 133 522 110 q 434 173 472 157 q 352 203 396 189 q 270 241 308 218 q 207 300 232 264 q 182 394 182 336 m 274 408 q 297 340 274 367 q 374 292 321 313 l 485 246 q 602 328 557 276 q 647 432 647 379 q 628 495 647 467 q 547 547 608 524 l 417 599 q 363 564 389 583 q 317 520 338 544 q 285 467 297 496 q 274 408 274 439 z "},"¨":{"ha":467,"x_min":244,"x_max":614,"o":"m 544 868 q 498 885 513 868 q 483 926 483 903 q 502 978 483 954 q 554 1001 521 1001 q 599 983 585 1001 q 614 943 614 965 q 596 892 614 917 q 544 868 578 868 m 304 868 q 259 885 274 868 q 244 926 244 903 q 263 978 244 954 q 314 1001 281 1001 q 360 983 346 1001 q 375 943 375 965 q 356 892 375 917 q 304 868 338 868 z "},"©":{"ha":1047,"x_min":164,"x_max":1106,"o":"m 642 197 q 541 217 588 197 q 460 272 494 236 q 406 362 425 308 q 386 483 386 415 q 408 602 386 550 q 465 691 429 654 q 549 747 501 728 q 647 765 596 765 q 758 747 715 765 q 815 717 800 728 l 789 654 q 735 678 768 665 q 647 692 703 692 q 520 638 571 692 q 469 483 469 583 q 519 326 469 381 q 653 271 568 271 q 747 284 713 271 q 796 307 781 297 l 819 240 q 756 213 801 229 q 642 197 710 197 m 1106 482 q 1067 269 1106 363 q 963 112 1028 176 q 813 13 899 47 q 635 -21 728 -21 q 456 13 542 -21 q 306 112 371 47 q 203 269 242 176 q 164 482 164 363 q 203 694 164 600 q 306 851 242 788 q 456 949 371 915 q 635 983 542 983 q 813 949 728 983 q 963 851 899 915 q 1067 694 1028 788 q 1106 482 1106 600 m 1024 482 q 994 657 1024 578 q 914 792 965 736 q 791 879 863 849 q 635 910 719 910 q 478 879 550 910 q 356 792 407 849 q 275 657 304 736 q 246 482 246 578 q 275 307 246 386 q 356 172 304 228 q 478 84 407 115 q 635 53 550 53 q 791 84 719 53 q 914 172 863 115 q 994 307 965 228 q 1024 482 1024 386 z "},"ª":{"ha":603,"x_min":254,"x_max":717,"o":"m 619 906 q 606 910 613 908 q 586 911 599 911 q 481 886 528 911 q 401 822 433 861 q 352 732 369 782 q 335 633 335 682 q 361 551 335 575 q 428 528 388 528 q 488 539 456 528 q 549 571 519 550 q 547 588 547 578 q 547 601 547 597 q 549 632 547 613 q 560 683 551 651 l 619 906 m 586 456 q 574 478 578 468 q 564 503 569 489 q 503 474 539 488 q 414 461 467 461 q 294 508 335 461 q 254 638 254 554 q 277 759 254 699 q 345 868 300 819 q 456 947 390 917 q 608 978 522 978 q 660 971 626 978 q 717 953 694 964 q 688 853 704 906 q 656 751 671 800 q 632 659 642 701 q 622 589 622 617 q 632 532 622 563 q 663 469 642 501 l 586 456 z "},"«":{"ha":664,"x_min":164,"x_max":722,"o":"m 322 100 l 164 394 l 426 688 l 476 646 l 271 389 l 386 131 l 322 100 m 568 100 l 410 394 l 672 688 l 722 646 l 517 389 l 632 131 l 568 100 z "},"¬":{"ha":783,"x_min":182,"x_max":800,"o":"m 690 75 l 610 75 l 701 458 l 182 458 l 200 536 l 800 536 l 690 75 z "},"­":{"ha":388,"x_min":110,"x_max":447,"o":"m 131 446 l 447 446 l 426 358 l 110 358 l 131 446 z "},"®":{"ha":1047,"x_min":164,"x_max":1106,"o":"m 785 207 q 710 331 749 272 q 642 425 671 390 q 624 424 632 424 q 608 424 615 424 l 521 424 l 521 207 l 444 207 l 444 744 q 516 756 476 751 q 590 760 556 760 q 770 717 708 760 q 832 586 832 674 q 804 497 832 536 q 722 438 776 457 q 752 399 733 425 q 792 342 771 374 q 833 274 813 310 q 869 207 854 238 l 785 207 m 521 486 l 590 486 q 654 490 625 486 q 705 506 683 494 q 738 538 726 518 q 750 588 750 557 q 737 637 750 617 q 702 669 724 657 q 653 688 681 682 q 594 693 625 693 q 555 692 574 693 q 521 690 536 692 l 521 486 m 1106 482 q 1067 269 1106 363 q 963 112 1028 176 q 813 13 899 47 q 635 -21 728 -21 q 456 13 542 -21 q 306 112 371 47 q 203 269 242 176 q 164 482 164 363 q 203 694 164 600 q 306 851 242 788 q 456 949 371 915 q 635 983 542 983 q 813 949 728 983 q 963 851 899 915 q 1067 694 1028 788 q 1106 482 1106 600 m 1024 482 q 994 657 1024 578 q 914 792 965 736 q 791 879 863 849 q 635 910 719 910 q 478 879 550 910 q 356 792 407 849 q 275 657 304 736 q 246 482 246 578 q 275 307 246 386 q 356 172 304 228 q 478 84 407 115 q 635 53 550 53 q 791 84 719 53 q 914 172 863 115 q 994 307 965 228 q 1024 482 1024 386 z "},"¯":{"ha":467,"x_min":244,"x_max":622,"o":"m 244 899 l 263 978 l 622 978 l 604 899 l 244 899 z "},"°":{"ha":429,"x_min":233,"x_max":594,"o":"m 414 710 q 345 722 378 710 q 288 758 313 735 q 248 815 263 781 q 233 892 233 849 q 248 969 233 935 q 288 1026 263 1003 q 345 1061 313 1049 q 414 1074 378 1074 q 483 1061 450 1074 q 540 1026 515 1049 q 580 969 565 1003 q 594 892 594 935 q 580 815 594 849 q 540 758 565 781 q 483 722 515 735 q 414 710 450 710 m 414 772 q 495 804 463 772 q 528 892 528 836 q 495 979 528 947 q 414 1011 463 1011 q 333 979 365 1011 q 300 892 300 947 q 333 804 300 836 q 414 772 365 772 z "},"±":{"ha":783,"x_min":103,"x_max":831,"o":"m 467 479 l 201 479 l 221 557 l 485 557 l 558 858 l 640 858 l 567 557 l 831 557 l 811 479 l 549 479 l 475 176 l 394 176 l 467 479 m 121 79 l 717 79 l 699 1 l 103 1 l 121 79 z "},"²":{"ha":504,"x_min":188,"x_max":608,"o":"m 188 440 q 219 547 192 503 q 284 622 246 590 q 365 678 322 654 q 445 727 408 703 q 506 779 482 751 q 531 847 531 807 q 509 899 531 882 q 456 917 488 917 q 376 903 413 917 q 314 869 339 889 l 288 921 q 369 969 328 954 q 457 983 411 983 q 513 977 486 983 q 562 956 540 971 q 596 916 583 942 q 608 853 608 890 q 585 774 608 808 q 528 711 563 739 q 453 659 494 683 q 374 611 411 635 q 310 563 338 588 q 275 507 282 538 l 539 507 l 522 440 l 188 440 z "},"³":{"ha":504,"x_min":189,"x_max":618,"o":"m 218 524 q 276 503 243 510 q 344 496 310 496 q 463 527 419 496 q 507 608 507 558 q 472 673 507 653 q 353 693 436 693 l 344 693 l 360 756 l 390 756 q 504 786 465 756 q 543 857 543 817 q 461 918 543 918 q 388 908 425 918 q 329 886 350 897 l 314 942 q 391 972 349 961 q 478 983 433 983 q 583 949 549 983 q 618 868 618 914 q 589 787 618 828 q 501 724 560 746 q 565 678 546 708 q 585 613 585 649 q 571 548 585 581 q 528 489 557 515 q 452 446 499 463 q 340 429 406 429 q 260 438 300 429 q 189 463 221 446 l 218 524 z "},"´":{"ha":467,"x_min":300,"x_max":583,"o":"m 583 988 l 340 810 l 300 871 l 531 1074 l 583 988 z "},"µ":{"ha":779,"x_min":53,"x_max":824,"o":"m 385 -17 q 282 3 322 -17 q 218 51 242 22 l 143 -257 l 53 -257 l 288 718 l 378 718 l 301 401 q 276 298 290 353 q 261 194 261 243 q 290 99 261 132 q 396 67 318 67 q 512 88 463 67 q 606 154 561 110 q 616 234 607 190 q 640 343 625 278 l 733 718 l 824 718 l 714 274 q 702 220 707 247 q 697 171 697 193 q 700 137 697 153 q 712 107 703 121 q 739 83 721 93 q 786 68 757 74 l 764 -12 q 728 -8 750 -12 q 686 6 707 -4 q 647 31 665 15 q 621 68 629 46 q 507 3 567 24 q 385 -17 447 -17 z "},"¶":{"ha":813,"x_min":192,"x_max":936,"o":"m 474 367 q 350 386 403 367 q 262 439 297 406 q 209 515 226 472 q 192 607 192 558 q 222 742 192 676 q 315 859 253 808 q 472 941 378 910 q 693 972 567 972 q 755 971 721 972 q 822 967 789 969 q 885 960 856 964 q 936 949 915 956 l 647 -257 l 567 -257 l 842 883 q 785 888 813 886 q 729 890 758 890 q 706 890 718 890 q 682 889 694 890 l 406 -257 l 325 -257 l 474 367 z "},"·":{"ha":282,"x_min":164,"x_max":313,"o":"m 233 399 q 181 419 197 399 q 164 465 164 439 q 185 523 164 496 q 243 550 206 550 q 296 530 279 550 q 313 483 313 510 q 292 426 313 453 q 233 399 271 399 z "},"¸":{"ha":467,"x_min":49,"x_max":300,"o":"m 74 -183 q 142 -196 104 -196 q 193 -186 174 -196 q 213 -153 213 -176 q 199 -119 213 -132 q 147 -92 186 -107 q 166 -60 154 -78 q 190 -24 178 -42 q 214 7 203 -7 q 231 28 225 21 l 296 28 q 267 -12 285 13 q 239 -53 250 -36 q 285 -90 271 -71 q 300 -142 300 -108 q 256 -229 300 -199 q 146 -260 213 -260 q 99 -257 122 -260 q 49 -243 76 -254 l 74 -183 z "},"¹":{"ha":504,"x_min":314,"x_max":572,"o":"m 371 440 l 474 868 q 389 824 433 840 q 325 803 344 808 l 314 861 q 431 910 382 885 q 522 971 479 936 l 572 971 l 446 440 l 371 440 z "},"º":{"ha":617,"x_min":254,"x_max":717,"o":"m 538 911 q 454 887 492 911 q 390 825 417 863 q 349 742 364 788 q 335 651 335 696 q 433 528 335 528 q 517 552 479 528 q 581 614 554 576 q 622 697 607 651 q 636 788 636 743 q 538 911 636 911 m 414 460 q 342 474 372 460 q 292 514 313 489 q 263 571 272 539 q 254 639 254 603 q 274 760 254 700 q 333 869 294 821 q 427 949 371 918 q 557 979 483 979 q 628 965 599 979 q 678 925 658 950 q 708 867 699 900 q 717 800 717 835 q 697 678 717 739 q 638 569 676 618 q 543 490 600 521 q 414 460 486 460 z "},"»":{"ha":664,"x_min":150,"x_max":708,"o":"m 550 688 l 708 393 l 446 100 l 396 142 l 601 399 l 486 657 l 550 688 m 304 688 l 463 393 l 200 100 l 150 142 l 356 399 l 240 657 l 304 688 z "},"¼":{"ha":1219,"x_min":228,"x_max":1122,"o":"m 1007 963 l 1104 963 l 325 0 l 228 0 l 1007 963 m 342 440 l 444 868 q 360 824 404 840 q 296 803 315 808 l 285 861 q 401 910 353 885 q 493 971 450 936 l 543 971 l 417 440 l 342 440 m 694 135 l 706 181 q 768 264 728 215 q 857 363 808 313 q 958 458 906 413 q 1057 532 1011 503 l 1122 532 l 1042 196 l 1108 196 l 1093 135 l 1028 135 l 996 1 l 922 1 l 953 135 l 694 135 m 969 196 l 1029 446 q 902 330 965 396 q 788 196 839 264 l 969 196 z "},"½":{"ha":1219,"x_min":242,"x_max":1194,"o":"m 1021 963 l 1118 963 l 339 0 l 242 0 l 1021 963 m 356 440 l 458 868 q 374 824 418 840 q 310 803 329 808 l 299 861 q 415 910 367 885 q 507 971 464 936 l 557 971 l 431 440 l 356 440 m 774 1 q 805 108 778 64 q 870 183 832 151 q 951 240 908 215 q 1031 288 994 264 q 1092 340 1068 313 q 1117 408 1117 368 q 1095 460 1117 443 q 1042 478 1074 478 q 962 464 999 478 q 900 431 925 450 l 874 482 q 956 530 914 515 q 1043 544 997 544 q 1099 538 1072 544 q 1148 517 1126 532 q 1182 477 1169 503 q 1194 414 1194 451 q 1172 335 1194 369 q 1115 272 1149 300 q 1039 220 1081 244 q 960 172 997 196 q 896 124 924 149 q 861 68 868 99 l 1125 68 l 1108 1 l 774 1 z "},"¾":{"ha":1219,"x_min":175,"x_max":1207,"o":"m 1058 963 l 1156 963 l 376 0 l 279 0 l 1058 963 m 204 524 q 263 503 229 510 q 331 496 296 496 q 449 527 406 496 q 493 608 493 558 q 458 673 493 653 q 339 693 422 693 l 331 693 l 346 756 l 376 756 q 490 786 451 756 q 529 857 529 817 q 447 918 529 918 q 374 908 411 918 q 315 886 336 897 l 300 942 q 377 972 335 961 q 464 983 419 983 q 569 949 535 983 q 604 868 604 914 q 575 787 604 828 q 488 724 546 746 q 551 678 532 708 q 571 613 571 649 q 557 548 571 581 q 514 489 543 515 q 438 446 485 463 q 326 429 392 429 q 247 438 286 429 q 175 463 207 446 l 204 524 m 779 135 l 790 181 q 853 264 813 215 q 942 363 893 313 q 1043 458 990 413 q 1142 532 1096 503 l 1207 532 l 1126 196 l 1193 196 l 1178 135 l 1113 135 l 1081 1 l 1007 1 l 1038 135 l 779 135 m 1054 196 l 1114 446 q 987 330 1050 396 q 872 196 924 264 l 1054 196 z "},"¿":{"ha":535,"x_min":128,"x_max":613,"o":"m 479 426 q 453 332 479 374 q 388 253 428 290 q 303 182 349 217 q 219 109 258 147 q 153 26 179 71 q 128 -76 128 -19 q 144 -163 128 -128 q 190 -220 161 -199 q 256 -251 218 -242 q 335 -261 293 -261 q 438 -249 386 -261 q 531 -217 489 -236 l 519 -140 q 441 -168 486 -156 q 351 -181 396 -181 q 303 -175 326 -181 q 263 -157 281 -169 q 235 -124 246 -144 q 225 -74 225 -104 q 256 25 225 -19 q 363 126 286 69 l 379 139 q 448 198 417 168 q 503 262 479 228 q 540 336 526 296 q 556 426 554 376 l 479 426 m 543 739 q 596 719 579 739 q 613 672 613 699 q 592 615 613 642 q 533 588 571 588 q 481 608 497 588 q 464 654 464 628 q 485 712 464 685 q 543 739 506 739 z "},"À":{"ha":864,"x_min":28,"x_max":856,"o":"m 758 0 q 744 132 751 67 q 728 264 736 197 l 275 264 q 203 135 239 200 q 131 0 167 69 l 28 0 q 322 503 171 258 q 619 963 474 747 l 721 963 q 790 524 756 760 q 856 0 824 289 l 758 0 m 646 854 q 481 600 561 725 q 322 344 400 475 l 718 344 q 685 595 703 469 q 646 854 667 721 m 614 1282 l 817 1067 l 768 1018 l 540 1201 l 614 1282 z "},"Á":{"ha":864,"x_min":28,"x_max":882,"o":"m 758 0 q 744 132 751 67 q 728 264 736 197 l 275 264 q 203 135 239 200 q 131 0 167 69 l 28 0 q 322 503 171 258 q 619 963 474 747 l 721 963 q 790 524 756 760 q 856 0 824 289 l 758 0 m 646 854 q 481 600 561 725 q 322 344 400 475 l 718 344 q 685 595 703 469 q 646 854 667 721 m 882 1196 l 639 1018 l 599 1079 l 829 1282 l 882 1196 z "},"Â":{"ha":864,"x_min":28,"x_max":878,"o":"m 758 0 q 744 132 751 67 q 728 264 736 197 l 275 264 q 203 135 239 200 q 131 0 167 69 l 28 0 q 322 503 171 258 q 619 963 474 747 l 721 963 q 790 524 756 760 q 856 0 824 289 l 758 0 m 646 854 q 481 600 561 725 q 322 344 400 475 l 718 344 q 685 595 703 469 q 646 854 667 721 m 542 1019 l 506 1065 l 740 1269 l 878 1065 l 831 1019 l 718 1153 l 542 1019 z "},"Ã":{"ha":864,"x_min":28,"x_max":947,"o":"m 758 0 q 744 132 751 67 q 728 264 736 197 l 275 264 q 203 135 239 200 q 131 0 167 69 l 28 0 q 322 503 171 258 q 619 963 474 747 l 721 963 q 790 524 756 760 q 856 0 824 289 l 758 0 m 646 854 q 481 600 561 725 q 322 344 400 475 l 718 344 q 685 595 703 469 q 646 854 667 721 m 786 1085 q 740 1093 760 1085 q 703 1112 721 1101 q 666 1131 685 1122 q 622 1139 647 1139 q 572 1123 592 1139 q 531 1075 553 1107 l 481 1106 q 506 1144 492 1125 q 538 1179 519 1164 q 582 1203 557 1194 q 642 1213 607 1213 q 686 1204 667 1213 q 724 1185 706 1196 q 761 1167 742 1175 q 806 1158 781 1158 q 856 1174 836 1158 q 897 1222 875 1190 l 947 1190 q 922 1151 936 1171 q 890 1117 908 1132 q 846 1094 871 1103 q 786 1085 821 1085 z "},"Ä":{"ha":864,"x_min":28,"x_max":900,"o":"m 758 0 q 744 132 751 67 q 728 264 736 197 l 275 264 q 203 135 239 200 q 131 0 167 69 l 28 0 q 322 503 171 258 q 619 963 474 747 l 721 963 q 790 524 756 760 q 856 0 824 289 l 758 0 m 646 854 q 481 600 561 725 q 322 344 400 475 l 718 344 q 685 595 703 469 q 646 854 667 721 m 831 1082 q 784 1099 799 1082 q 769 1140 769 1117 q 788 1192 769 1168 q 840 1215 807 1215 q 885 1197 871 1215 q 900 1157 900 1179 q 882 1106 900 1131 q 831 1082 864 1082 m 590 1082 q 545 1099 560 1082 q 531 1140 531 1117 q 549 1192 531 1168 q 600 1215 567 1215 q 647 1197 632 1215 q 661 1157 661 1179 q 642 1106 661 1131 q 590 1082 624 1082 z "},"Å":{"ha":864,"x_min":28,"x_max":856,"o":"m 814 1024 q 791 946 814 978 q 732 899 768 914 q 794 487 764 706 q 856 0 825 268 l 758 0 q 744 132 751 67 q 728 264 736 197 l 275 264 q 203 135 239 200 q 131 0 167 69 l 28 0 q 308 479 163 243 q 593 922 454 715 q 549 1024 549 960 q 588 1119 549 1083 q 682 1156 628 1156 q 733 1146 708 1156 q 775 1119 757 1136 q 803 1077 793 1101 q 814 1024 814 1053 m 646 854 q 481 600 561 725 q 322 344 400 475 l 718 344 q 685 595 703 469 q 646 854 667 721 m 761 1024 q 738 1084 761 1063 q 682 1106 715 1106 q 626 1084 649 1106 q 603 1024 603 1063 q 626 963 603 983 q 682 942 649 942 q 738 963 715 942 q 761 1024 761 983 z "},"Æ":{"ha":1238,"x_min":25,"x_max":1393,"o":"m 715 264 l 319 264 q 220 131 268 197 q 128 0 172 65 l 25 0 q 217 263 122 139 q 410 504 313 388 q 608 733 507 621 q 822 963 710 846 l 1393 963 l 1375 881 l 957 881 l 875 546 l 1244 546 l 1226 465 l 860 465 l 764 82 l 1214 82 l 1197 0 l 653 0 l 715 264 m 867 894 q 769 794 825 853 q 651 665 714 736 q 519 512 588 593 q 383 344 451 431 l 735 344 l 867 894 z "},"Ç":{"ha":847,"x_min":192,"x_max":989,"o":"m 367 -183 q 435 -196 397 -196 q 486 -186 467 -196 q 506 -153 506 -176 q 492 -119 506 -132 q 440 -92 479 -107 q 460 -56 447 -76 q 488 -18 474 -36 q 367 14 421 -11 q 274 84 313 39 q 213 195 235 129 q 192 351 192 261 q 238 617 192 500 q 361 816 283 735 q 540 940 439 897 q 753 983 642 983 q 874 969 818 983 q 989 924 931 956 l 946 838 q 733 899 846 899 q 566 860 646 899 q 425 751 486 822 q 328 580 364 681 q 292 354 292 479 q 353 138 292 213 q 540 64 414 64 q 639 71 596 64 q 713 88 682 78 q 766 108 744 97 q 803 126 788 118 l 815 43 q 691 -3 761 14 q 553 -21 621 -19 q 532 -53 542 -35 q 578 -90 564 -71 q 593 -142 593 -108 q 549 -229 593 -199 q 439 -260 506 -260 q 392 -257 415 -260 q 342 -243 369 -254 l 367 -183 z "},"È":{"ha":728,"x_min":115,"x_max":883,"o":"m 346 963 l 883 963 l 865 881 l 419 881 l 338 546 l 735 546 l 717 465 l 322 465 l 226 82 l 704 82 l 688 0 l 115 0 l 346 963 m 556 1282 l 758 1067 l 710 1018 l 482 1201 l 556 1282 z "},"É":{"ha":728,"x_min":115,"x_max":883,"o":"m 346 963 l 883 963 l 865 881 l 419 881 l 338 546 l 735 546 l 717 465 l 322 465 l 226 82 l 704 82 l 688 0 l 115 0 l 346 963 m 800 1196 l 557 1018 l 517 1079 l 747 1282 l 800 1196 z "},"Ê":{"ha":728,"x_min":115,"x_max":883,"o":"m 346 963 l 883 963 l 865 881 l 419 881 l 338 546 l 735 546 l 717 465 l 322 465 l 226 82 l 704 82 l 688 0 l 115 0 l 346 963 m 481 1019 l 444 1065 l 679 1269 l 817 1065 l 769 1019 l 657 1153 l 481 1019 z "},"Ë":{"ha":728,"x_min":115,"x_max":883,"o":"m 346 963 l 883 963 l 865 881 l 419 881 l 338 546 l 735 546 l 717 465 l 322 465 l 226 82 l 704 82 l 688 0 l 115 0 l 346 963 m 772 1082 q 726 1099 740 1082 q 711 1140 711 1117 q 730 1192 711 1168 q 782 1215 749 1215 q 827 1197 813 1215 q 842 1157 842 1179 q 824 1106 842 1131 q 772 1082 806 1082 m 532 1082 q 487 1099 501 1082 q 472 1140 472 1117 q 490 1192 472 1168 q 542 1215 508 1215 q 588 1197 574 1215 q 603 1157 603 1179 q 584 1106 603 1131 q 532 1082 565 1082 z "},"Ì":{"ha":319,"x_min":115,"x_max":506,"o":"m 346 963 l 440 963 l 211 0 l 115 0 l 346 963 m 303 1282 l 506 1067 l 457 1018 l 229 1201 l 303 1282 z "},"Í":{"ha":319,"x_min":115,"x_max":585,"o":"m 346 963 l 440 963 l 211 0 l 115 0 l 346 963 m 585 1196 l 342 1018 l 301 1079 l 532 1282 l 585 1196 z "},"Î":{"ha":319,"x_min":115,"x_max":597,"o":"m 346 963 l 440 963 l 211 0 l 115 0 l 346 963 m 261 1019 l 225 1065 l 460 1269 l 597 1065 l 550 1019 l 438 1153 l 261 1019 z "},"Ï":{"ha":319,"x_min":115,"x_max":622,"o":"m 346 963 l 440 963 l 211 0 l 115 0 l 346 963 m 553 1082 q 506 1099 521 1082 q 492 1140 492 1117 q 510 1192 492 1168 q 563 1215 529 1215 q 608 1197 593 1215 q 622 1157 622 1179 q 604 1106 622 1131 q 553 1082 586 1082 m 313 1082 q 267 1099 282 1082 q 253 1140 253 1117 q 271 1192 253 1168 q 322 1215 289 1215 q 369 1197 354 1215 q 383 1157 383 1179 q 365 1106 383 1131 q 313 1082 346 1082 z "},"Ð":{"ha":961,"x_min":129,"x_max":1006,"o":"m 240 465 l 129 465 l 147 542 l 258 542 l 354 944 q 478 965 422 960 q 588 971 533 971 q 897 877 788 971 q 1006 592 1006 783 q 972 374 1006 482 q 863 182 939 267 q 663 44 786 97 q 360 -8 540 -8 q 301 -6 332 -8 q 240 -1 269 -4 q 182 6 210 1 q 133 18 154 11 l 240 465 m 353 542 l 535 542 l 517 465 l 335 465 l 243 83 q 310 76 278 78 q 374 74 342 74 q 596 110 497 74 q 763 215 694 147 q 869 381 832 283 q 906 597 906 478 q 879 734 906 678 q 808 825 853 790 q 703 875 763 860 q 575 890 643 890 q 505 888 540 890 q 433 879 469 885 l 353 542 z "},"Ñ":{"ha":929,"x_min":115,"x_max":1050,"o":"m 346 963 l 439 963 q 541 764 490 874 q 637 542 592 654 q 716 328 682 431 q 768 151 750 225 l 957 963 l 1050 963 l 822 0 l 729 0 q 667 198 704 85 q 585 428 629 311 q 496 652 542 544 q 408 835 450 760 l 208 0 l 115 0 l 346 963 m 807 1085 q 761 1093 781 1085 q 724 1112 742 1101 q 687 1131 706 1122 q 643 1139 668 1139 q 593 1123 613 1139 q 551 1075 574 1107 l 501 1106 q 526 1144 513 1125 q 559 1179 540 1164 q 603 1203 578 1194 q 663 1213 628 1213 q 707 1204 688 1213 q 744 1185 726 1196 q 782 1167 763 1175 q 826 1158 801 1158 q 876 1174 857 1158 q 918 1222 896 1190 l 968 1190 q 943 1151 957 1171 q 910 1117 929 1132 q 867 1094 892 1103 q 807 1085 842 1085 z "},"Ò":{"ha":1039,"x_min":192,"x_max":1083,"o":"m 192 358 q 239 617 192 501 q 364 815 286 733 q 540 940 442 896 q 740 983 638 983 q 871 960 808 983 q 981 891 933 938 q 1056 773 1028 844 q 1083 606 1083 701 q 1036 345 1083 461 q 911 148 989 229 q 735 23 833 67 q 535 -21 636 -21 q 403 2 465 -21 q 294 72 342 25 q 219 190 247 118 q 192 358 192 261 m 292 343 q 311 219 292 272 q 365 133 331 167 q 445 81 400 99 q 543 64 490 64 q 707 101 628 64 q 847 208 786 138 q 946 383 908 279 q 983 619 983 486 q 964 743 983 690 q 910 830 944 796 q 829 881 875 864 q 732 899 783 899 q 568 862 647 899 q 427 754 489 825 q 328 580 365 683 q 292 343 292 476 m 667 1282 l 869 1067 l 821 1018 l 593 1201 l 667 1282 z "},"Ó":{"ha":1039,"x_min":192,"x_max":1083,"o":"m 192 358 q 239 617 192 501 q 364 815 286 733 q 540 940 442 896 q 740 983 638 983 q 871 960 808 983 q 981 891 933 938 q 1056 773 1028 844 q 1083 606 1083 701 q 1036 345 1083 461 q 911 148 989 229 q 735 23 833 67 q 535 -21 636 -21 q 403 2 465 -21 q 294 72 342 25 q 219 190 247 118 q 192 358 192 261 m 292 343 q 311 219 292 272 q 365 133 331 167 q 445 81 400 99 q 543 64 490 64 q 707 101 628 64 q 847 208 786 138 q 946 383 908 279 q 983 619 983 486 q 964 743 983 690 q 910 830 944 796 q 829 881 875 864 q 732 899 783 899 q 568 862 647 899 q 427 754 489 825 q 328 580 365 683 q 292 343 292 476 m 958 1196 l 715 1018 l 675 1079 l 906 1282 l 958 1196 z "},"Ô":{"ha":1039,"x_min":192,"x_max":1083,"o":"m 192 358 q 239 617 192 501 q 364 815 286 733 q 540 940 442 896 q 740 983 638 983 q 871 960 808 983 q 981 891 933 938 q 1056 773 1028 844 q 1083 606 1083 701 q 1036 345 1083 461 q 911 148 989 229 q 735 23 833 67 q 535 -21 636 -21 q 403 2 465 -21 q 294 72 342 25 q 219 190 247 118 q 192 358 192 261 m 292 343 q 311 219 292 272 q 365 133 331 167 q 445 81 400 99 q 543 64 490 64 q 707 101 628 64 q 847 208 786 138 q 946 383 908 279 q 983 619 983 486 q 964 743 983 690 q 910 830 944 796 q 829 881 875 864 q 732 899 783 899 q 568 862 647 899 q 427 754 489 825 q 328 580 365 683 q 292 343 292 476 m 618 1019 l 582 1065 l 817 1269 l 954 1065 l 907 1019 l 794 1153 l 618 1019 z "},"Õ":{"ha":1039,"x_min":192,"x_max":1083,"o":"m 192 358 q 239 617 192 501 q 364 815 286 733 q 540 940 442 896 q 740 983 638 983 q 871 960 808 983 q 981 891 933 938 q 1056 773 1028 844 q 1083 606 1083 701 q 1036 345 1083 461 q 911 148 989 229 q 735 23 833 67 q 535 -21 636 -21 q 403 2 465 -21 q 294 72 342 25 q 219 190 247 118 q 192 358 192 261 m 292 343 q 311 219 292 272 q 365 133 331 167 q 445 81 400 99 q 543 64 490 64 q 707 101 628 64 q 847 208 786 138 q 946 383 908 279 q 983 619 983 486 q 964 743 983 690 q 910 830 944 796 q 829 881 875 864 q 732 899 783 899 q 568 862 647 899 q 427 754 489 825 q 328 580 365 683 q 292 343 292 476 m 851 1085 q 806 1093 825 1085 q 768 1112 786 1101 q 731 1131 750 1122 q 688 1139 713 1139 q 638 1123 657 1139 q 596 1075 618 1107 l 546 1106 q 571 1144 557 1125 q 603 1179 585 1164 q 647 1203 622 1194 q 707 1213 672 1213 q 751 1204 732 1213 q 789 1185 771 1196 q 826 1167 807 1175 q 871 1158 846 1158 q 921 1174 901 1158 q 963 1222 940 1190 l 1013 1190 q 988 1151 1001 1171 q 955 1117 974 1132 q 911 1094 936 1103 q 851 1085 886 1085 z "},"Ö":{"ha":1039,"x_min":192,"x_max":1083,"o":"m 192 358 q 239 617 192 501 q 364 815 286 733 q 540 940 442 896 q 740 983 638 983 q 871 960 808 983 q 981 891 933 938 q 1056 773 1028 844 q 1083 606 1083 701 q 1036 345 1083 461 q 911 148 989 229 q 735 23 833 67 q 535 -21 636 -21 q 403 2 465 -21 q 294 72 342 25 q 219 190 247 118 q 192 358 192 261 m 292 343 q 311 219 292 272 q 365 133 331 167 q 445 81 400 99 q 543 64 490 64 q 707 101 628 64 q 847 208 786 138 q 946 383 908 279 q 983 619 983 486 q 964 743 983 690 q 910 830 944 796 q 829 881 875 864 q 732 899 783 899 q 568 862 647 899 q 427 754 489 825 q 328 580 365 683 q 292 343 292 476 m 939 1082 q 892 1099 907 1082 q 878 1140 878 1117 q 897 1192 878 1168 q 949 1215 915 1215 q 994 1197 979 1215 q 1008 1157 1008 1179 q 990 1106 1008 1131 q 939 1082 972 1082 m 699 1082 q 653 1099 668 1082 q 639 1140 639 1117 q 657 1192 639 1168 q 708 1215 675 1215 q 755 1197 740 1215 q 769 1157 769 1179 q 751 1106 769 1131 q 699 1082 732 1082 z "},"×":{"ha":783,"x_min":185,"x_max":800,"o":"m 231 143 l 185 203 l 432 403 l 271 615 l 331 664 l 490 453 l 753 664 l 800 606 l 536 396 l 693 190 l 633 143 l 479 346 l 231 143 z "},"Ø":{"ha":1039,"x_min":172,"x_max":1107,"o":"m 192 358 q 239 617 192 501 q 364 815 286 733 q 540 940 442 896 q 740 983 638 983 q 859 965 803 983 q 961 908 915 946 l 1049 1008 l 1107 958 l 1014 851 q 1065 745 1046 806 q 1083 606 1083 685 q 1036 345 1083 461 q 911 148 989 229 q 735 23 833 67 q 535 -21 636 -21 q 416 -3 472 -21 q 314 53 360 15 l 232 -40 l 172 11 l 260 111 q 210 218 228 157 q 192 358 192 279 m 983 619 q 949 776 983 711 l 375 122 q 543 64 442 64 q 707 101 628 64 q 847 208 786 138 q 946 383 908 279 q 983 619 983 486 m 292 343 q 325 186 292 249 l 900 839 q 824 884 867 869 q 732 899 781 899 q 568 862 647 899 q 427 754 489 825 q 328 580 365 683 q 292 343 292 476 z "},"Ù":{"ha":900,"x_min":192,"x_max":1028,"o":"m 347 963 l 442 963 l 301 381 q 290 317 294 349 q 285 257 285 286 q 294 180 285 215 q 328 118 304 144 q 389 76 351 92 q 483 61 426 61 q 596 79 547 61 q 681 135 644 97 q 744 233 718 174 q 792 376 771 293 l 933 963 l 1028 963 l 883 363 q 824 188 858 261 q 740 69 789 115 q 625 0 690 22 q 475 -22 560 -22 q 348 -2 401 -22 q 260 54 294 18 q 208 140 225 90 q 192 250 192 190 q 208 378 192 311 l 347 963 m 615 1282 l 818 1067 l 769 1018 l 542 1201 l 615 1282 z "},"Ú":{"ha":900,"x_min":192,"x_max":1028,"o":"m 347 963 l 442 963 l 301 381 q 290 317 294 349 q 285 257 285 286 q 294 180 285 215 q 328 118 304 144 q 389 76 351 92 q 483 61 426 61 q 596 79 547 61 q 681 135 644 97 q 744 233 718 174 q 792 376 771 293 l 933 963 l 1028 963 l 883 363 q 824 188 858 261 q 740 69 789 115 q 625 0 690 22 q 475 -22 560 -22 q 348 -2 401 -22 q 260 54 294 18 q 208 140 225 90 q 192 250 192 190 q 208 378 192 311 l 347 963 m 890 1196 l 647 1018 l 607 1079 l 838 1282 l 890 1196 z "},"Û":{"ha":900,"x_min":192,"x_max":1028,"o":"m 347 963 l 442 963 l 301 381 q 290 317 294 349 q 285 257 285 286 q 294 180 285 215 q 328 118 304 144 q 389 76 351 92 q 483 61 426 61 q 596 79 547 61 q 681 135 644 97 q 744 233 718 174 q 792 376 771 293 l 933 963 l 1028 963 l 883 363 q 824 188 858 261 q 740 69 789 115 q 625 0 690 22 q 475 -22 560 -22 q 348 -2 401 -22 q 260 54 294 18 q 208 140 225 90 q 192 250 192 190 q 208 378 192 311 l 347 963 m 554 1019 l 518 1065 l 753 1269 l 890 1065 l 843 1019 l 731 1153 l 554 1019 z "},"Ü":{"ha":900,"x_min":192,"x_max":1028,"o":"m 347 963 l 442 963 l 301 381 q 290 317 294 349 q 285 257 285 286 q 294 180 285 215 q 328 118 304 144 q 389 76 351 92 q 483 61 426 61 q 596 79 547 61 q 681 135 644 97 q 744 233 718 174 q 792 376 771 293 l 933 963 l 1028 963 l 883 363 q 824 188 858 261 q 740 69 789 115 q 625 0 690 22 q 475 -22 560 -22 q 348 -2 401 -22 q 260 54 294 18 q 208 140 225 90 q 192 250 192 190 q 208 378 192 311 l 347 963 m 853 1082 q 806 1099 821 1082 q 792 1140 792 1117 q 810 1192 792 1168 q 863 1215 829 1215 q 908 1197 893 1215 q 922 1157 922 1179 q 904 1106 922 1131 q 853 1082 886 1082 m 613 1082 q 567 1099 582 1082 q 553 1140 553 1117 q 571 1192 553 1168 q 622 1215 589 1215 q 669 1197 654 1215 q 683 1157 683 1179 q 665 1106 683 1131 q 613 1082 646 1082 z "},"Ý":{"ha":771,"x_min":250,"x_max":993,"o":"m 431 389 q 380 535 404 460 q 333 683 356 610 q 289 828 310 757 q 250 963 268 900 l 353 963 q 417 716 381 843 q 497 479 453 589 q 597 593 544 532 q 701 718 650 654 q 799 844 753 782 q 881 963 844 907 l 993 963 q 776 686 897 835 q 525 389 656 538 l 433 0 l 339 0 l 431 389 m 826 1196 l 583 1018 l 543 1079 l 774 1282 l 826 1196 z "},"Þ":{"ha":733,"x_min":115,"x_max":847,"o":"m 347 963 l 442 963 l 401 794 q 455 798 431 797 q 510 799 479 799 q 763 740 679 799 q 847 546 847 681 q 724 299 847 392 q 354 207 600 207 l 258 207 l 210 0 l 115 0 l 347 963 m 374 283 q 547 303 475 283 q 663 357 618 322 q 729 439 708 392 q 750 542 750 486 q 692 677 750 635 q 515 719 633 719 q 418 717 450 719 q 381 713 386 714 l 278 283 l 374 283 z "},"ß":{"ha":818,"x_min":-19,"x_max":844,"o":"m 238 142 q 205 19 221 75 q 169 -86 189 -37 q 122 -178 149 -135 q 60 -262 96 -221 l -19 -250 q 40 -163 15 -203 q 81 -85 64 -124 q 110 -6 97 -46 q 133 81 122 33 l 297 760 q 351 908 318 847 q 428 1006 385 968 q 525 1060 472 1043 q 636 1078 578 1078 q 790 1028 736 1078 q 844 894 844 979 q 826 806 844 846 q 782 733 808 767 q 724 673 756 700 q 667 621 693 646 q 622 573 640 596 q 604 526 604 550 q 620 479 604 499 q 660 444 636 460 q 711 410 683 428 q 763 369 739 393 q 802 309 786 344 q 818 222 818 274 q 794 116 818 161 q 732 42 771 71 q 642 -2 693 13 q 536 -17 592 -17 q 435 -6 486 -17 q 339 31 383 4 l 378 113 q 451 80 408 93 q 539 67 494 67 q 609 75 575 67 q 669 101 643 83 q 712 147 696 119 q 728 214 728 175 q 712 283 728 256 q 672 332 696 311 q 620 370 649 353 q 568 408 592 388 q 528 453 544 428 q 513 514 513 478 q 531 585 513 554 q 575 644 549 617 q 633 699 601 672 q 690 753 664 725 q 735 815 717 782 q 753 892 753 849 q 723 971 753 943 q 638 999 693 999 q 559 986 597 999 q 488 946 521 974 q 429 874 456 918 q 389 769 403 831 l 238 142 z "},"à":{"ha":725,"x_min":136,"x_max":783,"o":"m 676 640 q 631 649 651 646 q 588 651 610 651 q 435 618 501 651 q 322 531 368 585 q 252 407 276 476 q 228 265 228 338 q 239 170 228 208 q 269 109 250 132 q 315 76 289 86 q 369 65 340 65 q 476 92 426 65 q 571 169 526 119 q 582 256 571 207 q 603 343 593 304 l 676 640 m 596 -8 q 581 30 588 8 q 572 74 575 51 q 470 4 524 26 q 360 -18 417 -18 q 275 -3 315 -18 q 204 44 235 13 q 155 127 174 76 q 136 247 136 178 q 172 449 136 358 q 273 602 208 539 q 426 700 338 665 q 618 735 514 735 q 783 706 704 735 l 676 274 q 663 208 668 239 q 657 150 657 178 q 664 79 657 113 q 689 6 671 46 l 596 -8 m 504 1074 l 707 858 l 658 810 l 431 993 l 504 1074 z "},"á":{"ha":725,"x_min":136,"x_max":804,"o":"m 676 640 q 631 649 651 646 q 588 651 610 651 q 435 618 501 651 q 322 531 368 585 q 252 407 276 476 q 228 265 228 338 q 239 170 228 208 q 269 109 250 132 q 315 76 289 86 q 369 65 340 65 q 476 92 426 65 q 571 169 526 119 q 582 256 571 207 q 603 343 593 304 l 676 640 m 596 -8 q 581 30 588 8 q 572 74 575 51 q 470 4 524 26 q 360 -18 417 -18 q 275 -3 315 -18 q 204 44 235 13 q 155 127 174 76 q 136 247 136 178 q 172 449 136 358 q 273 602 208 539 q 426 700 338 665 q 618 735 514 735 q 783 706 704 735 l 676 274 q 663 208 668 239 q 657 150 657 178 q 664 79 657 113 q 689 6 671 46 l 596 -8 m 804 988 l 561 810 l 521 871 l 751 1074 l 804 988 z "},"â":{"ha":725,"x_min":136,"x_max":783,"o":"m 676 640 q 631 649 651 646 q 588 651 610 651 q 435 618 501 651 q 322 531 368 585 q 252 407 276 476 q 228 265 228 338 q 239 170 228 208 q 269 109 250 132 q 315 76 289 86 q 369 65 340 65 q 476 92 426 65 q 571 169 526 119 q 582 256 571 207 q 603 343 593 304 l 676 640 m 596 -8 q 581 30 588 8 q 572 74 575 51 q 470 4 524 26 q 360 -18 417 -18 q 275 -3 315 -18 q 204 44 235 13 q 155 127 174 76 q 136 247 136 178 q 172 449 136 358 q 273 602 208 539 q 426 700 338 665 q 618 735 514 735 q 783 706 704 735 l 676 274 q 663 208 668 239 q 657 150 657 178 q 664 79 657 113 q 689 6 671 46 l 596 -8 m 435 810 l 399 856 l 633 1060 l 771 856 l 724 810 l 611 943 l 435 810 z "},"ã":{"ha":725,"x_min":136,"x_max":833,"o":"m 676 640 q 631 649 651 646 q 588 651 610 651 q 435 618 501 651 q 322 531 368 585 q 252 407 276 476 q 228 265 228 338 q 239 170 228 208 q 269 109 250 132 q 315 76 289 86 q 369 65 340 65 q 476 92 426 65 q 571 169 526 119 q 582 256 571 207 q 603 343 593 304 l 676 640 m 596 -8 q 581 30 588 8 q 572 74 575 51 q 470 4 524 26 q 360 -18 417 -18 q 275 -3 315 -18 q 204 44 235 13 q 155 127 174 76 q 136 247 136 178 q 172 449 136 358 q 273 602 208 539 q 426 700 338 665 q 618 735 514 735 q 783 706 704 735 l 676 274 q 663 208 668 239 q 657 150 657 178 q 664 79 657 113 q 689 6 671 46 l 596 -8 m 672 874 q 626 882 646 874 q 589 901 607 890 q 552 919 571 911 q 508 928 533 928 q 458 912 478 928 q 417 864 439 896 l 367 894 q 392 933 378 914 q 424 968 406 953 q 468 992 443 983 q 528 1001 493 1001 q 572 993 553 1001 q 610 974 592 985 q 647 956 628 964 q 692 947 667 947 q 742 963 722 947 q 783 1011 761 979 l 833 979 q 808 940 822 960 q 776 906 794 921 q 732 883 757 892 q 672 874 707 874 z "},"ä":{"ha":725,"x_min":136,"x_max":799,"o":"m 676 640 q 631 649 651 646 q 588 651 610 651 q 435 618 501 651 q 322 531 368 585 q 252 407 276 476 q 228 265 228 338 q 239 170 228 208 q 269 109 250 132 q 315 76 289 86 q 369 65 340 65 q 476 92 426 65 q 571 169 526 119 q 582 256 571 207 q 603 343 593 304 l 676 640 m 596 -8 q 581 30 588 8 q 572 74 575 51 q 470 4 524 26 q 360 -18 417 -18 q 275 -3 315 -18 q 204 44 235 13 q 155 127 174 76 q 136 247 136 178 q 172 449 136 358 q 273 602 208 539 q 426 700 338 665 q 618 735 514 735 q 783 706 704 735 l 676 274 q 663 208 668 239 q 657 150 657 178 q 664 79 657 113 q 689 6 671 46 l 596 -8 m 729 868 q 683 885 697 868 q 668 926 668 903 q 687 978 668 954 q 739 1001 706 1001 q 784 983 769 1001 q 799 943 799 965 q 781 892 799 917 q 729 868 763 868 m 489 868 q 444 885 458 868 q 429 926 429 903 q 447 978 429 954 q 499 1001 465 1001 q 545 983 531 1001 q 560 943 560 965 q 541 892 560 917 q 489 868 522 868 z "},"å":{"ha":725,"x_min":136,"x_max":783,"o":"m 676 640 q 631 649 651 646 q 588 651 610 651 q 435 618 501 651 q 322 531 368 585 q 252 407 276 476 q 228 265 228 338 q 239 170 228 208 q 269 109 250 132 q 315 76 289 86 q 369 65 340 65 q 476 92 426 65 q 571 169 526 119 q 582 256 571 207 q 603 343 593 304 l 676 640 m 596 -8 q 581 30 588 8 q 572 74 575 51 q 470 4 524 26 q 360 -18 417 -18 q 275 -3 315 -18 q 204 44 235 13 q 155 127 174 76 q 136 247 136 178 q 172 449 136 358 q 273 602 208 539 q 426 700 338 665 q 618 735 514 735 q 783 706 704 735 l 676 274 q 663 208 668 239 q 657 150 657 178 q 664 79 657 113 q 689 6 671 46 l 596 -8 m 753 939 q 742 884 753 908 q 714 842 732 860 q 672 815 696 825 q 621 806 647 806 q 527 842 567 806 q 488 939 488 878 q 527 1035 488 999 q 621 1071 567 1071 q 672 1061 647 1071 q 714 1034 696 1051 q 742 992 732 1017 q 753 939 753 968 m 700 939 q 677 999 700 978 q 621 1021 654 1021 q 565 999 588 1021 q 542 939 542 978 q 565 878 542 899 q 621 857 588 857 q 677 878 654 857 q 700 939 700 899 z "},"æ":{"ha":1074,"x_min":75,"x_max":1135,"o":"m 406 735 q 566 692 508 735 q 646 579 624 650 q 778 696 699 657 q 936 735 857 735 q 1013 724 976 735 q 1076 690 1049 713 q 1119 632 1103 667 q 1135 550 1135 597 q 1104 418 1135 468 q 1011 339 1074 368 q 856 297 949 310 q 638 281 763 285 q 637 267 638 274 q 636 254 636 260 q 651 156 636 193 q 693 99 667 118 q 755 73 719 79 q 831 67 790 67 q 1018 115 917 67 l 1028 32 q 926 -2 986 13 q 804 -17 867 -17 q 643 25 700 -17 q 563 138 586 67 q 441 26 514 68 q 272 -17 368 -17 q 196 -5 232 -17 q 133 30 160 7 q 90 88 106 53 q 75 168 75 122 q 106 299 75 249 q 200 379 138 350 q 356 422 263 408 q 575 440 450 435 q 576 453 575 447 q 576 464 576 458 q 561 563 576 525 q 519 620 546 600 q 456 647 492 640 q 379 654 419 654 q 192 606 293 654 l 182 686 q 283 720 224 706 q 406 735 343 735 m 1043 544 q 1010 625 1043 597 q 924 653 978 653 q 840 636 882 653 q 761 584 799 619 q 694 494 724 549 q 651 363 665 439 q 846 376 769 364 q 966 411 922 389 q 1026 467 1010 433 q 1043 544 1043 500 m 167 174 q 199 93 167 121 q 286 65 232 65 q 371 82 328 65 q 451 133 414 99 q 517 223 489 168 q 561 353 546 278 q 365 338 442 350 q 244 304 288 326 q 183 249 200 282 q 167 174 167 217 z "},"ç":{"ha":632,"x_min":136,"x_max":718,"o":"m 214 -183 q 282 -196 244 -196 q 333 -186 314 -196 q 353 -153 353 -176 q 340 -119 353 -132 q 288 -92 326 -107 q 310 -53 296 -75 q 339 -12 324 -32 q 187 72 238 1 q 136 254 136 142 q 165 435 136 349 q 251 589 194 522 q 389 695 307 656 q 575 735 471 735 q 718 711 647 735 l 681 629 q 617 647 649 642 q 557 651 586 651 q 423 620 483 651 q 319 535 363 589 q 253 412 276 482 q 229 264 229 342 q 272 119 229 172 q 407 67 314 67 q 466 72 436 67 q 521 85 496 78 q 565 101 546 93 q 594 117 585 110 l 604 35 q 524 2 578 18 q 403 -17 469 -14 q 390 -36 396 -26 q 379 -53 383 -46 q 426 -90 411 -71 q 440 -142 440 -108 q 397 -229 440 -199 q 286 -260 353 -260 q 240 -257 263 -260 q 189 -243 217 -254 l 214 -183 z "},"è":{"ha":678,"x_min":136,"x_max":750,"o":"m 750 550 q 712 424 750 472 q 605 347 674 375 q 440 306 536 318 q 225 288 343 293 l 225 258 q 233 183 225 218 q 264 123 242 149 q 326 82 286 97 q 428 67 365 67 q 526 81 476 67 q 619 122 575 94 l 629 39 q 525 -2 582 13 q 410 -17 468 -17 q 281 3 333 -17 q 197 57 229 22 q 150 140 164 92 q 136 247 136 189 q 163 424 136 336 q 243 581 190 511 q 373 692 296 650 q 549 735 450 735 q 698 684 646 735 q 750 550 750 633 m 540 653 q 436 630 485 653 q 349 568 388 607 q 281 478 310 529 q 239 369 253 426 q 438 385 357 372 q 567 419 518 397 q 638 473 617 442 q 658 544 658 504 q 626 626 658 599 q 540 653 593 653 m 489 1074 l 692 858 l 643 810 l 415 993 l 489 1074 z "},"é":{"ha":678,"x_min":136,"x_max":750,"o":"m 750 550 q 712 424 750 472 q 605 347 674 375 q 440 306 536 318 q 225 288 343 293 l 225 258 q 233 183 225 218 q 264 123 242 149 q 326 82 286 97 q 428 67 365 67 q 526 81 476 67 q 619 122 575 94 l 629 39 q 525 -2 582 13 q 410 -17 468 -17 q 281 3 333 -17 q 197 57 229 22 q 150 140 164 92 q 136 247 136 189 q 163 424 136 336 q 243 581 190 511 q 373 692 296 650 q 549 735 450 735 q 698 684 646 735 q 750 550 750 633 m 540 653 q 436 630 485 653 q 349 568 388 607 q 281 478 310 529 q 239 369 253 426 q 438 385 357 372 q 567 419 518 397 q 638 473 617 442 q 658 544 658 504 q 626 626 658 599 q 540 653 593 653 m 721 988 l 478 810 l 438 871 l 668 1074 l 721 988 z "},"ê":{"ha":678,"x_min":136,"x_max":758,"o":"m 750 550 q 712 424 750 472 q 605 347 674 375 q 440 306 536 318 q 225 288 343 293 l 225 258 q 233 183 225 218 q 264 123 242 149 q 326 82 286 97 q 428 67 365 67 q 526 81 476 67 q 619 122 575 94 l 629 39 q 525 -2 582 13 q 410 -17 468 -17 q 281 3 333 -17 q 197 57 229 22 q 150 140 164 92 q 136 247 136 189 q 163 424 136 336 q 243 581 190 511 q 373 692 296 650 q 549 735 450 735 q 698 684 646 735 q 750 550 750 633 m 540 653 q 436 630 485 653 q 349 568 388 607 q 281 478 310 529 q 239 369 253 426 q 438 385 357 372 q 567 419 518 397 q 638 473 617 442 q 658 544 658 504 q 626 626 658 599 q 540 653 593 653 m 422 810 l 386 856 l 621 1060 l 758 856 l 711 810 l 599 943 l 422 810 z "},"ë":{"ha":678,"x_min":136,"x_max":774,"o":"m 750 550 q 712 424 750 472 q 605 347 674 375 q 440 306 536 318 q 225 288 343 293 l 225 258 q 233 183 225 218 q 264 123 242 149 q 326 82 286 97 q 428 67 365 67 q 526 81 476 67 q 619 122 575 94 l 629 39 q 525 -2 582 13 q 410 -17 468 -17 q 281 3 333 -17 q 197 57 229 22 q 150 140 164 92 q 136 247 136 189 q 163 424 136 336 q 243 581 190 511 q 373 692 296 650 q 549 735 450 735 q 698 684 646 735 q 750 550 750 633 m 540 653 q 436 630 485 653 q 349 568 388 607 q 281 478 310 529 q 239 369 253 426 q 438 385 357 372 q 567 419 518 397 q 638 473 617 442 q 658 544 658 504 q 626 626 658 599 q 540 653 593 653 m 704 868 q 658 885 672 868 q 643 926 643 903 q 662 978 643 954 q 714 1001 681 1001 q 759 983 744 1001 q 774 943 774 965 q 756 892 774 917 q 704 868 738 868 m 464 868 q 419 885 433 868 q 404 926 404 903 q 422 978 404 954 q 474 1001 440 1001 q 520 983 506 1001 q 535 943 535 965 q 516 892 535 917 q 464 868 497 868 z "},"ì":{"ha":326,"x_min":115,"x_max":463,"o":"m 289 718 l 379 718 l 206 0 l 115 0 l 289 718 m 260 1074 l 463 858 l 414 810 l 186 993 l 260 1074 z "},"í":{"ha":326,"x_min":115,"x_max":538,"o":"m 289 718 l 379 718 l 206 0 l 115 0 l 289 718 m 538 988 l 294 810 l 254 871 l 485 1074 l 538 988 z "},"î":{"ha":326,"x_min":115,"x_max":550,"o":"m 289 718 l 379 718 l 206 0 l 115 0 l 289 718 m 214 810 l 178 856 l 413 1060 l 550 856 l 503 810 l 390 943 l 214 810 z "},"ï":{"ha":326,"x_min":115,"x_max":563,"o":"m 289 718 l 379 718 l 206 0 l 115 0 l 289 718 m 493 868 q 447 885 461 868 q 432 926 432 903 q 451 978 432 954 q 503 1001 469 1001 q 548 983 533 1001 q 563 943 563 965 q 544 892 563 917 q 493 868 526 868 m 253 868 q 208 885 222 868 q 193 926 193 903 q 211 978 193 954 q 263 1001 229 1001 q 309 983 294 1001 q 324 943 324 965 q 305 892 324 917 q 253 868 286 868 z "},"ð":{"ha":781,"x_min":136,"x_max":922,"o":"m 764 871 q 821 592 821 744 q 813 476 821 540 q 785 343 804 411 q 733 210 765 275 q 653 95 701 146 q 540 14 606 44 q 389 -17 475 -17 q 279 4 326 -17 q 200 63 232 25 q 152 151 168 100 q 136 261 136 201 q 169 434 136 357 q 255 565 201 511 q 377 649 308 619 q 519 678 446 678 q 631 663 583 678 q 726 611 678 649 q 713 727 725 668 q 676 843 701 786 l 493 785 l 483 857 l 640 907 q 588 972 617 942 q 522 1028 558 1003 l 597 1078 q 671 1015 638 1050 q 731 935 704 979 l 913 993 l 922 921 l 764 871 m 403 65 q 535 103 479 65 q 631 204 592 142 q 691 346 669 267 q 721 507 713 425 q 633 575 678 554 q 519 596 589 596 q 398 571 451 596 q 307 501 344 546 q 250 397 269 457 q 231 269 231 338 q 241 189 231 226 q 272 124 251 151 q 326 81 293 97 q 403 65 358 65 z "},"ñ":{"ha":758,"x_min":115,"x_max":803,"o":"m 281 693 q 396 720 335 708 q 517 732 457 732 q 611 722 567 732 q 689 685 656 711 q 742 615 722 658 q 761 508 761 572 q 756 434 761 472 q 740 357 750 396 l 654 0 l 564 0 l 640 319 q 660 413 651 365 q 671 503 669 460 q 658 574 671 546 q 622 618 644 601 q 568 642 599 635 q 504 649 538 649 q 431 643 468 649 q 357 629 393 638 l 206 0 l 115 0 l 281 693 m 642 874 q 596 882 615 874 q 558 901 576 890 q 522 919 540 911 q 478 928 503 928 q 428 912 447 928 q 386 864 408 896 l 336 894 q 361 933 347 914 q 394 968 375 953 q 438 992 413 983 q 497 1001 463 1001 q 542 993 522 1001 q 579 974 561 985 q 617 956 597 964 q 661 947 636 947 q 711 963 692 947 q 753 1011 731 979 l 803 979 q 778 940 792 960 q 745 906 764 921 q 701 883 726 892 q 642 874 676 874 z "},"ò":{"ha":731,"x_min":136,"x_max":775,"o":"m 228 231 q 274 107 228 149 q 383 65 319 65 q 486 91 433 65 q 583 169 539 117 q 655 300 626 221 q 683 486 683 379 q 638 610 683 568 q 528 651 592 651 q 425 626 478 651 q 328 548 372 600 q 256 417 285 496 q 228 231 228 338 m 775 493 q 738 267 775 363 q 644 108 701 171 q 516 14 586 44 q 378 -17 446 -17 q 285 -1 329 -17 q 208 44 242 14 q 156 120 175 75 q 136 225 136 165 q 173 451 136 356 q 267 610 210 547 q 395 703 325 672 q 533 733 465 733 q 626 718 582 733 q 703 672 669 703 q 756 597 736 642 q 775 493 775 551 m 489 1074 l 692 858 l 643 810 l 415 993 l 489 1074 z "},"ó":{"ha":731,"x_min":136,"x_max":775,"o":"m 228 231 q 274 107 228 149 q 383 65 319 65 q 486 91 433 65 q 583 169 539 117 q 655 300 626 221 q 683 486 683 379 q 638 610 683 568 q 528 651 592 651 q 425 626 478 651 q 328 548 372 600 q 256 417 285 496 q 228 231 228 338 m 775 493 q 738 267 775 363 q 644 108 701 171 q 516 14 586 44 q 378 -17 446 -17 q 285 -1 329 -17 q 208 44 242 14 q 156 120 175 75 q 136 225 136 165 q 173 451 136 356 q 267 610 210 547 q 395 703 325 672 q 533 733 465 733 q 626 718 582 733 q 703 672 669 703 q 756 597 736 642 q 775 493 775 551 m 753 988 l 510 810 l 469 871 l 700 1074 l 753 988 z "},"ô":{"ha":731,"x_min":136,"x_max":775,"o":"m 228 231 q 274 107 228 149 q 383 65 319 65 q 486 91 433 65 q 583 169 539 117 q 655 300 626 221 q 683 486 683 379 q 638 610 683 568 q 528 651 592 651 q 425 626 478 651 q 328 548 372 600 q 256 417 285 496 q 228 231 228 338 m 775 493 q 738 267 775 363 q 644 108 701 171 q 516 14 586 44 q 378 -17 446 -17 q 285 -1 329 -17 q 208 44 242 14 q 156 120 175 75 q 136 225 136 165 q 173 451 136 356 q 267 610 210 547 q 395 703 325 672 q 533 733 465 733 q 626 718 582 733 q 703 672 669 703 q 756 597 736 642 q 775 493 775 551 m 424 810 l 388 856 l 622 1060 l 760 856 l 713 810 l 600 943 l 424 810 z "},"õ":{"ha":731,"x_min":136,"x_max":822,"o":"m 228 231 q 274 107 228 149 q 383 65 319 65 q 486 91 433 65 q 583 169 539 117 q 655 300 626 221 q 683 486 683 379 q 638 610 683 568 q 528 651 592 651 q 425 626 478 651 q 328 548 372 600 q 256 417 285 496 q 228 231 228 338 m 775 493 q 738 267 775 363 q 644 108 701 171 q 516 14 586 44 q 378 -17 446 -17 q 285 -1 329 -17 q 208 44 242 14 q 156 120 175 75 q 136 225 136 165 q 173 451 136 356 q 267 610 210 547 q 395 703 325 672 q 533 733 465 733 q 626 718 582 733 q 703 672 669 703 q 756 597 736 642 q 775 493 775 551 m 661 874 q 615 882 635 874 q 578 901 596 890 q 541 919 560 911 q 497 928 522 928 q 447 912 467 928 q 406 864 428 896 l 356 894 q 381 933 367 914 q 413 968 394 953 q 457 992 432 983 q 517 1001 482 1001 q 561 993 542 1001 q 599 974 581 985 q 636 956 617 964 q 681 947 656 947 q 731 963 711 947 q 772 1011 750 979 l 822 979 q 797 940 811 960 q 765 906 783 921 q 721 883 746 892 q 661 874 696 874 z "},"ö":{"ha":731,"x_min":136,"x_max":776,"o":"m 228 231 q 274 107 228 149 q 383 65 319 65 q 486 91 433 65 q 583 169 539 117 q 655 300 626 221 q 683 486 683 379 q 638 610 683 568 q 528 651 592 651 q 425 626 478 651 q 328 548 372 600 q 256 417 285 496 q 228 231 228 338 m 775 493 q 738 267 775 363 q 644 108 701 171 q 516 14 586 44 q 378 -17 446 -17 q 285 -1 329 -17 q 208 44 242 14 q 156 120 175 75 q 136 225 136 165 q 173 451 136 356 q 267 610 210 547 q 395 703 325 672 q 533 733 465 733 q 626 718 582 733 q 703 672 669 703 q 756 597 736 642 q 775 493 775 551 m 707 868 q 660 885 675 868 q 646 926 646 903 q 665 978 646 954 q 717 1001 683 1001 q 762 983 747 1001 q 776 943 776 965 q 758 892 776 917 q 707 868 740 868 m 467 868 q 422 885 436 868 q 407 926 407 903 q 425 978 407 954 q 476 1001 443 1001 q 523 983 508 1001 q 538 943 538 965 q 519 892 538 917 q 467 868 500 868 z "},"÷":{"ha":783,"x_min":168,"x_max":814,"o":"m 410 78 q 368 97 382 78 q 361 146 354 117 q 392 196 368 176 q 443 215 415 215 q 486 196 472 215 q 493 146 500 176 q 463 97 486 117 q 410 78 439 78 m 536 600 q 494 619 508 600 q 488 669 481 639 q 518 718 494 699 q 569 738 542 738 q 613 718 599 738 q 619 669 626 699 q 589 619 613 639 q 536 600 565 600 m 186 447 l 814 447 l 796 369 l 168 369 l 186 447 z "},"ø":{"ha":731,"x_min":104,"x_max":831,"o":"m 775 493 q 738 267 775 363 q 644 108 701 171 q 516 14 586 44 q 378 -17 446 -17 q 297 -6 336 -17 q 226 29 258 6 l 158 -49 l 104 -3 l 178 81 q 147 144 158 108 q 136 225 136 181 q 173 451 136 356 q 267 610 210 547 q 395 703 325 672 q 533 733 465 733 q 625 718 582 733 q 701 674 668 703 l 776 758 l 831 714 l 744 617 q 775 493 775 564 m 228 231 q 231 188 228 207 q 242 153 235 169 l 642 606 q 528 651 597 651 q 425 626 478 651 q 328 548 372 600 q 256 417 285 496 q 228 231 228 338 m 683 486 q 676 539 683 514 l 286 96 q 383 65 325 65 q 486 91 433 65 q 583 169 539 117 q 655 300 626 221 q 683 486 683 379 z "},"ù":{"ha":725,"x_min":136,"x_max":783,"o":"m 344 -17 q 244 -1 285 -17 q 181 41 204 14 q 147 105 157 68 q 136 185 136 142 q 143 270 136 225 q 161 361 150 315 l 247 718 l 338 718 l 261 401 q 237 299 250 353 q 224 197 224 246 q 230 146 224 169 q 251 104 236 122 q 292 76 267 86 q 356 67 317 67 q 473 93 422 67 q 568 169 524 119 q 579 256 568 207 q 600 343 590 304 l 693 718 l 783 718 l 674 274 q 660 208 665 239 q 654 150 654 178 q 661 79 654 113 q 686 6 668 46 l 593 -8 q 578 30 585 8 q 569 74 572 51 q 466 5 521 26 q 344 -17 411 -17 m 414 1074 l 617 858 l 568 810 l 340 993 l 414 1074 z "},"ú":{"ha":725,"x_min":136,"x_max":783,"o":"m 344 -17 q 244 -1 285 -17 q 181 41 204 14 q 147 105 157 68 q 136 185 136 142 q 143 270 136 225 q 161 361 150 315 l 247 718 l 338 718 l 261 401 q 237 299 250 353 q 224 197 224 246 q 230 146 224 169 q 251 104 236 122 q 292 76 267 86 q 356 67 317 67 q 473 93 422 67 q 568 169 524 119 q 579 256 568 207 q 600 343 590 304 l 693 718 l 783 718 l 674 274 q 660 208 665 239 q 654 150 654 178 q 661 79 654 113 q 686 6 668 46 l 593 -8 q 578 30 585 8 q 569 74 572 51 q 466 5 521 26 q 344 -17 411 -17 m 719 988 l 476 810 l 436 871 l 667 1074 l 719 988 z "},"û":{"ha":725,"x_min":136,"x_max":783,"o":"m 344 -17 q 244 -1 285 -17 q 181 41 204 14 q 147 105 157 68 q 136 185 136 142 q 143 270 136 225 q 161 361 150 315 l 247 718 l 338 718 l 261 401 q 237 299 250 353 q 224 197 224 246 q 230 146 224 169 q 251 104 236 122 q 292 76 267 86 q 356 67 317 67 q 473 93 422 67 q 568 169 524 119 q 579 256 568 207 q 600 343 590 304 l 693 718 l 783 718 l 674 274 q 660 208 665 239 q 654 150 654 178 q 661 79 654 113 q 686 6 668 46 l 593 -8 q 578 30 585 8 q 569 74 572 51 q 466 5 521 26 q 344 -17 411 -17 m 386 810 l 350 856 l 585 1060 l 722 856 l 675 810 l 563 943 l 386 810 z "},"ü":{"ha":725,"x_min":136,"x_max":783,"o":"m 344 -17 q 244 -1 285 -17 q 181 41 204 14 q 147 105 157 68 q 136 185 136 142 q 143 270 136 225 q 161 361 150 315 l 247 718 l 338 718 l 261 401 q 237 299 250 353 q 224 197 224 246 q 230 146 224 169 q 251 104 236 122 q 292 76 267 86 q 356 67 317 67 q 473 93 422 67 q 568 169 524 119 q 579 256 568 207 q 600 343 590 304 l 693 718 l 783 718 l 674 274 q 660 208 665 239 q 654 150 654 178 q 661 79 654 113 q 686 6 668 46 l 593 -8 q 578 30 585 8 q 569 74 572 51 q 466 5 521 26 q 344 -17 411 -17 m 674 868 q 627 885 642 868 q 613 926 613 903 q 631 978 613 954 q 683 1001 650 1001 q 728 983 714 1001 q 743 943 743 965 q 725 892 743 917 q 674 868 707 868 m 433 868 q 388 885 403 868 q 374 926 374 903 q 392 978 374 954 q 443 1001 410 1001 q 490 983 475 1001 q 504 943 504 965 q 485 892 504 917 q 433 868 467 868 z "},"ý":{"ha":628,"x_min":-82,"x_max":753,"o":"m -50 -161 q 35 -182 -12 -182 q 174 -143 106 -182 q 300 -25 242 -104 q 208 350 242 160 q 169 718 175 540 l 264 718 q 273 572 267 651 q 292 407 279 493 q 322 231 304 321 q 367 57 340 142 q 479 256 429 156 q 567 446 529 357 q 628 606 604 535 q 664 718 653 678 l 753 718 q 722 619 744 689 q 663 456 700 549 q 572 255 625 363 q 449 44 518 147 q 242 -188 342 -115 q 33 -261 142 -261 q -21 -257 8 -261 q -82 -236 -50 -253 l -50 -161 m 658 988 l 415 810 l 375 871 l 606 1074 l 658 988 z "},"þ":{"ha":721,"x_min":53,"x_max":765,"o":"m 379 718 q 513 735 446 735 q 703 668 640 735 q 765 471 765 601 q 735 288 765 375 q 645 133 704 200 q 501 27 586 67 q 306 -12 415 -12 q 206 0 251 -12 l 144 -257 l 53 -257 l 244 539 l 281 689 l 369 1061 l 464 1078 l 379 718 m 228 83 q 315 71 271 71 q 468 103 401 71 q 581 190 535 136 q 650 313 626 243 q 674 457 674 382 q 628 609 674 561 q 490 657 582 657 q 426 651 458 657 q 358 636 393 646 l 228 83 z "},"ÿ":{"ha":628,"x_min":-82,"x_max":753,"o":"m -50 -161 q 35 -182 -12 -182 q 174 -143 106 -182 q 300 -25 242 -104 q 208 350 242 160 q 169 718 175 540 l 264 718 q 273 572 267 651 q 292 407 279 493 q 322 231 304 321 q 367 57 340 142 q 479 256 429 156 q 567 446 529 357 q 628 606 604 535 q 664 718 653 678 l 753 718 q 722 619 744 689 q 663 456 700 549 q 572 255 625 363 q 449 44 518 147 q 242 -188 342 -115 q 33 -261 142 -261 q -21 -257 8 -261 q -82 -236 -50 -253 l -50 -161 m 606 868 q 559 885 574 868 q 544 926 544 903 q 563 978 544 954 q 615 1001 582 1001 q 660 983 646 1001 q 675 943 675 965 q 657 892 675 917 q 606 868 639 868 m 365 868 q 320 885 335 868 q 306 926 306 903 q 324 978 306 954 q 375 1001 342 1001 q 422 983 407 1001 q 436 943 436 965 q 417 892 436 917 q 365 868 399 868 z "},"Ā":{"ha":864,"x_min":28,"x_max":896,"o":"m 758 0 q 744 132 751 67 q 728 264 736 197 l 275 264 q 203 135 239 200 q 131 0 167 69 l 28 0 q 322 503 171 258 q 619 963 474 747 l 721 963 q 790 524 756 760 q 856 0 824 289 l 758 0 m 646 854 q 481 600 561 725 q 322 344 400 475 l 718 344 q 685 595 703 469 q 646 854 667 721 m 518 1093 l 536 1172 l 896 1172 l 878 1093 l 518 1093 z "},"ā":{"ha":725,"x_min":136,"x_max":783,"o":"m 676 640 q 631 649 651 646 q 588 651 610 651 q 435 618 501 651 q 322 531 368 585 q 252 407 276 476 q 228 265 228 338 q 239 170 228 208 q 269 109 250 132 q 315 76 289 86 q 369 65 340 65 q 476 92 426 65 q 571 169 526 119 q 582 256 571 207 q 603 343 593 304 l 676 640 m 596 -8 q 581 30 588 8 q 572 74 575 51 q 470 4 524 26 q 360 -18 417 -18 q 275 -3 315 -18 q 204 44 235 13 q 155 127 174 76 q 136 247 136 178 q 172 449 136 358 q 273 602 208 539 q 426 700 338 665 q 618 735 514 735 q 783 706 704 735 l 676 274 q 663 208 668 239 q 657 150 657 178 q 664 79 657 113 q 689 6 671 46 l 596 -8 m 404 899 l 422 978 l 782 978 l 764 899 l 404 899 z "},"Ă":{"ha":864,"x_min":28,"x_max":881,"o":"m 758 0 q 744 132 751 67 q 728 264 736 197 l 275 264 q 203 135 239 200 q 131 0 167 69 l 28 0 q 322 503 171 258 q 619 963 474 747 l 721 963 q 790 524 756 760 q 856 0 824 289 l 758 0 m 646 854 q 481 600 561 725 q 322 344 400 475 l 718 344 q 685 595 703 469 q 646 854 667 721 m 544 1254 l 603 1254 q 601 1242 601 1247 q 601 1231 601 1236 q 623 1169 601 1192 q 688 1147 644 1147 q 749 1160 725 1147 q 789 1191 774 1174 q 812 1226 804 1208 q 822 1254 819 1244 l 881 1254 q 815 1114 869 1158 q 675 1069 760 1069 q 573 1109 607 1069 q 539 1208 539 1149 q 540 1230 539 1218 q 544 1254 542 1242 z "},"ă":{"ha":725,"x_min":136,"x_max":788,"o":"m 676 640 q 631 649 651 646 q 588 651 610 651 q 435 618 501 651 q 322 531 368 585 q 252 407 276 476 q 228 265 228 338 q 239 170 228 208 q 269 109 250 132 q 315 76 289 86 q 369 65 340 65 q 476 92 426 65 q 571 169 526 119 q 582 256 571 207 q 603 343 593 304 l 676 640 m 596 -8 q 581 30 588 8 q 572 74 575 51 q 470 4 524 26 q 360 -18 417 -18 q 275 -3 315 -18 q 204 44 235 13 q 155 127 174 76 q 136 247 136 178 q 172 449 136 358 q 273 602 208 539 q 426 700 338 665 q 618 735 514 735 q 783 706 704 735 l 676 274 q 663 208 668 239 q 657 150 657 178 q 664 79 657 113 q 689 6 671 46 l 596 -8 m 451 1036 l 510 1036 q 508 1024 508 1029 q 508 1013 508 1018 q 530 951 508 974 q 594 929 551 929 q 656 942 632 929 q 696 973 681 956 q 719 1008 711 990 q 729 1036 726 1026 l 788 1036 q 722 896 776 940 q 582 851 667 851 q 480 891 514 851 q 446 990 446 931 q 447 1012 446 1000 q 451 1036 449 1024 z "},"Ą":{"ha":864,"x_min":28,"x_max":856,"o":"m 758 0 q 744 132 751 67 q 728 264 736 197 l 275 264 q 203 135 239 200 q 131 0 167 69 l 28 0 q 322 503 171 258 q 619 963 474 747 l 721 963 q 790 524 756 760 q 856 0 824 289 q 747 -85 778 -50 q 717 -149 717 -121 q 728 -174 717 -165 q 758 -185 740 -182 q 793 -185 775 -187 q 824 -181 811 -183 l 814 -249 q 777 -256 794 -253 q 740 -258 760 -258 q 699 -254 718 -258 q 664 -240 679 -250 q 640 -212 649 -229 q 631 -169 631 -196 q 643 -121 631 -144 q 674 -76 656 -97 q 717 -35 693 -54 q 763 0 740 -15 l 758 0 m 646 854 q 481 600 561 725 q 322 344 400 475 l 718 344 q 685 595 703 469 q 646 854 667 721 z "},"ą":{"ha":725,"x_min":136,"x_max":783,"o":"m 460 -169 q 472 -121 460 -144 q 503 -76 485 -97 q 546 -35 522 -54 q 592 0 569 -15 q 572 74 576 32 q 470 4 524 26 q 360 -18 417 -18 q 275 -3 315 -18 q 204 44 235 13 q 155 127 174 76 q 136 247 136 178 q 172 449 136 358 q 273 602 208 539 q 426 700 338 665 q 618 735 514 735 q 783 706 704 735 l 676 274 q 663 208 668 239 q 657 150 657 178 q 664 79 657 113 q 689 6 671 46 q 578 -83 611 -44 q 546 -149 546 -121 q 558 -174 546 -165 q 587 -185 569 -182 q 622 -185 604 -187 q 653 -181 640 -183 l 643 -249 q 606 -256 624 -253 q 569 -258 589 -258 q 528 -254 547 -258 q 493 -240 508 -250 q 469 -212 478 -229 q 460 -169 460 -196 m 676 640 q 631 649 651 646 q 588 651 610 651 q 435 618 501 651 q 322 531 368 585 q 252 407 276 476 q 228 265 228 338 q 239 170 228 208 q 269 109 250 132 q 315 76 289 86 q 369 65 340 65 q 476 92 426 65 q 571 169 526 119 q 582 256 571 207 q 603 343 593 304 l 676 640 z "},"Ć":{"ha":847,"x_min":192,"x_max":989,"o":"m 815 43 q 686 -4 758 13 q 543 -21 614 -21 q 401 1 465 -21 q 290 67 336 22 q 217 183 243 113 q 192 351 192 253 q 238 617 192 500 q 361 816 283 735 q 540 940 439 897 q 753 983 642 983 q 874 969 818 983 q 989 924 931 956 l 946 838 q 733 899 846 899 q 566 860 646 899 q 425 751 486 822 q 328 580 364 681 q 292 354 292 479 q 353 138 292 213 q 540 64 414 64 q 639 71 596 64 q 713 88 682 78 q 766 108 744 97 q 803 126 788 118 l 815 43 m 967 1196 l 724 1018 l 683 1079 l 914 1282 l 967 1196 z "},"ć":{"ha":632,"x_min":136,"x_max":754,"o":"m 604 35 q 519 0 576 17 q 390 -17 461 -17 q 200 56 264 -17 q 136 254 136 128 q 165 435 136 349 q 251 589 194 522 q 389 695 307 656 q 575 735 471 735 q 718 711 647 735 l 681 629 q 617 647 649 642 q 557 651 586 651 q 423 620 483 651 q 319 535 363 589 q 253 412 276 482 q 229 264 229 342 q 272 119 229 172 q 407 67 314 67 q 466 72 436 67 q 521 85 496 78 q 565 101 546 93 q 594 117 585 110 l 604 35 m 754 988 l 511 810 l 471 871 l 701 1074 l 754 988 z "},"Ĉ":{"ha":847,"x_min":192,"x_max":989,"o":"m 815 43 q 686 -4 758 13 q 543 -21 614 -21 q 401 1 465 -21 q 290 67 336 22 q 217 183 243 113 q 192 351 192 253 q 238 617 192 500 q 361 816 283 735 q 540 940 439 897 q 753 983 642 983 q 874 969 818 983 q 989 924 931 956 l 946 838 q 733 899 846 899 q 566 860 646 899 q 425 751 486 822 q 328 580 364 681 q 292 354 292 479 q 353 138 292 213 q 540 64 414 64 q 639 71 596 64 q 713 88 682 78 q 766 108 744 97 q 803 126 788 118 l 815 43 m 603 1019 l 567 1065 l 801 1269 l 939 1065 l 892 1019 l 779 1153 l 603 1019 z "},"ĉ":{"ha":632,"x_min":136,"x_max":743,"o":"m 604 35 q 519 0 576 17 q 390 -17 461 -17 q 200 56 264 -17 q 136 254 136 128 q 165 435 136 349 q 251 589 194 522 q 389 695 307 656 q 575 735 471 735 q 718 711 647 735 l 681 629 q 617 647 649 642 q 557 651 586 651 q 423 620 483 651 q 319 535 363 589 q 253 412 276 482 q 229 264 229 342 q 272 119 229 172 q 407 67 314 67 q 466 72 436 67 q 521 85 496 78 q 565 101 546 93 q 594 117 585 110 l 604 35 m 407 810 l 371 856 l 606 1060 l 743 856 l 696 810 l 583 943 l 407 810 z "},"Ċ":{"ha":847,"x_min":192,"x_max":989,"o":"m 815 43 q 686 -4 758 13 q 543 -21 614 -21 q 401 1 465 -21 q 290 67 336 22 q 217 183 243 113 q 192 351 192 253 q 238 617 192 500 q 361 816 283 735 q 540 940 439 897 q 753 983 642 983 q 874 969 818 983 q 989 924 931 956 l 946 838 q 733 899 846 899 q 566 860 646 899 q 425 751 486 822 q 328 580 364 681 q 292 354 292 479 q 353 138 292 213 q 540 64 414 64 q 639 71 596 64 q 713 88 682 78 q 766 108 744 97 q 803 126 788 118 l 815 43 m 783 1076 q 732 1096 747 1076 q 717 1140 717 1115 q 737 1196 717 1169 q 793 1222 757 1222 q 844 1203 829 1222 q 860 1158 860 1183 q 840 1103 860 1129 q 783 1076 819 1076 z "},"ċ":{"ha":632,"x_min":136,"x_max":718,"o":"m 604 35 q 519 0 576 17 q 390 -17 461 -17 q 200 56 264 -17 q 136 254 136 128 q 165 435 136 349 q 251 589 194 522 q 389 695 307 656 q 575 735 471 735 q 718 711 647 735 l 681 629 q 617 647 649 642 q 557 651 586 651 q 423 620 483 651 q 319 535 363 589 q 253 412 276 482 q 229 264 229 342 q 272 119 229 172 q 407 67 314 67 q 466 72 436 67 q 521 85 496 78 q 565 101 546 93 q 594 117 585 110 l 604 35 m 583 863 q 532 882 547 863 q 517 926 517 901 q 537 982 517 956 q 593 1008 557 1008 q 644 989 629 1008 q 660 944 660 969 q 640 889 660 915 q 583 863 619 863 z "},"Č":{"ha":847,"x_min":192,"x_max":1000,"o":"m 815 43 q 686 -4 758 13 q 543 -21 614 -21 q 401 1 465 -21 q 290 67 336 22 q 217 183 243 113 q 192 351 192 253 q 238 617 192 500 q 361 816 283 735 q 540 940 439 897 q 753 983 642 983 q 874 969 818 983 q 989 924 931 956 l 946 838 q 733 899 846 899 q 566 860 646 899 q 425 751 486 822 q 328 580 364 681 q 292 354 292 479 q 353 138 292 213 q 540 64 414 64 q 639 71 596 64 q 713 88 682 78 q 766 108 744 97 q 803 126 788 118 l 815 43 m 964 1272 l 1000 1226 l 765 1022 l 628 1226 l 675 1272 l 788 1139 l 964 1272 z "},"č":{"ha":632,"x_min":136,"x_max":792,"o":"m 604 35 q 519 0 576 17 q 390 -17 461 -17 q 200 56 264 -17 q 136 254 136 128 q 165 435 136 349 q 251 589 194 522 q 389 695 307 656 q 575 735 471 735 q 718 711 647 735 l 681 629 q 617 647 649 642 q 557 651 586 651 q 423 620 483 651 q 319 535 363 589 q 253 412 276 482 q 229 264 229 342 q 272 119 229 172 q 407 67 314 67 q 466 72 436 67 q 521 85 496 78 q 565 101 546 93 q 594 117 585 110 l 604 35 m 756 1060 l 792 1014 l 557 810 l 419 1014 l 467 1060 l 579 926 l 756 1060 z "},"Ď":{"ha":943,"x_min":115,"x_max":988,"o":"m 225 83 q 292 76 260 78 q 356 74 324 74 q 585 112 486 74 q 751 217 685 150 q 852 374 818 283 q 886 572 886 465 q 806 811 886 732 q 557 890 726 890 q 487 888 522 890 q 415 879 451 885 l 225 83 m 336 944 q 460 965 404 960 q 569 971 515 971 q 885 868 782 971 q 988 576 988 765 q 946 341 988 449 q 823 156 904 233 q 621 35 742 78 q 342 -8 500 -8 q 283 -6 314 -8 q 222 -1 251 -4 q 164 6 192 1 q 115 18 136 11 l 336 944 m 842 1272 l 878 1226 l 643 1022 l 506 1226 l 553 1272 l 665 1139 l 842 1272 z "},"ď":{"ha":750,"x_min":136,"x_max":1071,"o":"m 685 644 q 642 649 665 647 q 599 651 618 651 q 431 616 501 651 q 316 524 361 581 q 249 399 271 468 q 228 264 228 331 q 235 187 228 222 q 260 124 243 151 q 303 82 276 97 q 367 67 329 67 q 433 76 401 67 q 491 101 464 86 q 540 133 518 115 q 578 168 563 151 q 588 249 578 204 q 610 343 597 294 l 685 644 m 603 -8 q 589 28 596 6 q 579 74 582 51 q 547 44 567 60 q 499 15 526 28 q 436 -8 471 1 q 360 -17 401 -17 q 258 5 300 -17 q 188 63 215 26 q 149 148 161 99 q 136 251 136 197 q 165 425 136 339 q 252 580 193 511 q 401 692 311 649 q 614 735 492 735 q 704 726 658 735 l 783 1061 l 878 1078 l 678 249 q 667 200 671 224 q 664 154 664 176 q 671 78 664 114 q 696 6 678 42 l 603 -8 m 1071 1078 l 964 776 l 899 776 l 972 1078 l 1071 1078 z "},"Đ":{"ha":961,"x_min":129,"x_max":1006,"o":"m 240 465 l 129 465 l 147 542 l 258 542 l 354 944 q 478 965 422 960 q 588 971 533 971 q 897 877 788 971 q 1006 592 1006 783 q 972 374 1006 482 q 863 182 939 267 q 663 44 786 97 q 360 -8 540 -8 q 301 -6 332 -8 q 240 -1 269 -4 q 182 6 210 1 q 133 18 154 11 l 240 465 m 353 542 l 535 542 l 517 465 l 335 465 l 243 83 q 310 76 278 78 q 374 74 342 74 q 596 110 497 74 q 763 215 694 147 q 869 381 832 283 q 906 597 906 478 q 879 734 906 678 q 808 825 853 790 q 703 875 763 860 q 575 890 643 890 q 505 888 540 890 q 433 879 469 885 l 353 542 z "},"đ":{"ha":750,"x_min":136,"x_max":954,"o":"m 603 -8 q 589 28 596 6 q 579 74 582 51 q 547 44 567 60 q 499 15 526 28 q 436 -8 471 1 q 360 -17 401 -17 q 258 5 300 -17 q 188 63 215 26 q 149 148 161 99 q 136 251 136 197 q 165 425 136 339 q 252 580 193 511 q 401 692 311 649 q 614 735 492 735 q 704 726 658 735 l 736 865 l 522 865 l 539 938 l 754 938 l 783 1061 l 878 1078 l 843 938 l 954 938 l 938 865 l 826 865 l 678 249 q 667 200 671 224 q 664 154 664 176 q 671 78 664 114 q 696 6 678 42 l 603 -8 m 685 644 q 642 649 665 647 q 599 651 618 651 q 431 616 501 651 q 316 524 361 581 q 249 399 271 468 q 228 264 228 331 q 235 187 228 222 q 260 124 243 151 q 303 82 276 97 q 367 67 329 67 q 433 76 401 67 q 491 101 464 86 q 540 133 518 115 q 578 168 563 151 q 588 249 578 204 q 610 343 597 294 l 685 644 z "},"Ē":{"ha":728,"x_min":115,"x_max":883,"o":"m 346 963 l 883 963 l 865 881 l 419 881 l 338 546 l 735 546 l 717 465 l 322 465 l 226 82 l 704 82 l 688 0 l 115 0 l 346 963 m 467 1093 l 485 1172 l 844 1172 l 826 1093 l 467 1093 z "},"ē":{"ha":678,"x_min":136,"x_max":781,"o":"m 750 550 q 712 424 750 472 q 605 347 674 375 q 440 306 536 318 q 225 288 343 293 l 225 258 q 233 183 225 218 q 264 123 242 149 q 326 82 286 97 q 428 67 365 67 q 526 81 476 67 q 619 122 575 94 l 629 39 q 525 -2 582 13 q 410 -17 468 -17 q 281 3 333 -17 q 197 57 229 22 q 150 140 164 92 q 136 247 136 189 q 163 424 136 336 q 243 581 190 511 q 373 692 296 650 q 549 735 450 735 q 698 684 646 735 q 750 550 750 633 m 540 653 q 436 630 485 653 q 349 568 388 607 q 281 478 310 529 q 239 369 253 426 q 438 385 357 372 q 567 419 518 397 q 638 473 617 442 q 658 544 658 504 q 626 626 658 599 q 540 653 593 653 m 403 899 l 421 978 l 781 978 l 763 899 l 403 899 z "},"Ĕ":{"ha":728,"x_min":115,"x_max":883,"o":"m 346 963 l 883 963 l 865 881 l 419 881 l 338 546 l 735 546 l 717 465 l 322 465 l 226 82 l 704 82 l 688 0 l 115 0 l 346 963 m 513 1254 l 571 1254 q 569 1242 569 1247 q 569 1231 569 1236 q 591 1169 569 1192 q 656 1147 613 1147 q 717 1160 693 1147 q 757 1191 742 1174 q 780 1226 772 1208 q 790 1254 788 1244 l 849 1254 q 783 1114 838 1158 q 643 1069 728 1069 q 541 1109 575 1069 q 507 1208 507 1149 q 508 1230 507 1218 q 513 1254 510 1242 z "},"ĕ":{"ha":678,"x_min":136,"x_max":768,"o":"m 750 550 q 712 424 750 472 q 605 347 674 375 q 440 306 536 318 q 225 288 343 293 l 225 258 q 233 183 225 218 q 264 123 242 149 q 326 82 286 97 q 428 67 365 67 q 526 81 476 67 q 619 122 575 94 l 629 39 q 525 -2 582 13 q 410 -17 468 -17 q 281 3 333 -17 q 197 57 229 22 q 150 140 164 92 q 136 247 136 189 q 163 424 136 336 q 243 581 190 511 q 373 692 296 650 q 549 735 450 735 q 698 684 646 735 q 750 550 750 633 m 540 653 q 436 630 485 653 q 349 568 388 607 q 281 478 310 529 q 239 369 253 426 q 438 385 357 372 q 567 419 518 397 q 638 473 617 442 q 658 544 658 504 q 626 626 658 599 q 540 653 593 653 m 432 1036 l 490 1036 q 489 1024 489 1029 q 489 1013 489 1018 q 510 951 489 974 q 575 929 532 929 q 637 942 613 929 q 676 973 661 956 q 699 1008 692 990 q 710 1036 707 1026 l 768 1036 q 702 896 757 940 q 563 851 647 851 q 460 891 494 851 q 426 990 426 931 q 428 1012 426 1000 q 432 1036 429 1024 z "},"Ė":{"ha":728,"x_min":115,"x_max":883,"o":"m 346 963 l 883 963 l 865 881 l 419 881 l 338 546 l 735 546 l 717 465 l 322 465 l 226 82 l 704 82 l 688 0 l 115 0 l 346 963 m 663 1076 q 611 1096 626 1076 q 596 1140 596 1115 q 616 1196 596 1169 q 672 1222 636 1222 q 724 1203 708 1222 q 739 1158 739 1183 q 719 1103 739 1129 q 663 1076 699 1076 z "},"ė":{"ha":678,"x_min":136,"x_max":750,"o":"m 750 550 q 712 424 750 472 q 605 347 674 375 q 440 306 536 318 q 225 288 343 293 l 225 258 q 233 183 225 218 q 264 123 242 149 q 326 82 286 97 q 428 67 365 67 q 526 81 476 67 q 619 122 575 94 l 629 39 q 525 -2 582 13 q 410 -17 468 -17 q 281 3 333 -17 q 197 57 229 22 q 150 140 164 92 q 136 247 136 189 q 163 424 136 336 q 243 581 190 511 q 373 692 296 650 q 549 735 450 735 q 698 684 646 735 q 750 550 750 633 m 540 653 q 436 630 485 653 q 349 568 388 607 q 281 478 310 529 q 239 369 253 426 q 438 385 357 372 q 567 419 518 397 q 638 473 617 442 q 658 544 658 504 q 626 626 658 599 q 540 653 593 653 m 593 863 q 542 882 557 863 q 526 926 526 901 q 547 982 526 956 q 603 1008 567 1008 q 654 989 639 1008 q 669 944 669 969 q 649 889 669 915 q 593 863 629 863 z "},"Ę":{"ha":728,"x_min":115,"x_max":883,"o":"m 346 963 l 883 963 l 865 881 l 419 881 l 338 546 l 735 546 l 717 465 l 322 465 l 226 82 l 704 82 l 688 0 q 579 -85 610 -50 q 549 -149 549 -121 q 560 -174 549 -165 q 590 -185 572 -182 q 625 -185 607 -187 q 656 -181 643 -183 l 646 -249 q 609 -256 626 -253 q 572 -258 592 -258 q 531 -254 550 -258 q 496 -240 511 -250 q 472 -212 481 -229 q 463 -169 463 -196 q 475 -121 463 -144 q 506 -76 488 -97 q 549 -35 525 -54 q 594 0 572 -15 l 115 0 l 346 963 z "},"ę":{"ha":678,"x_min":136,"x_max":750,"o":"m 363 -169 q 373 -125 363 -147 q 399 -83 383 -103 q 436 -44 415 -62 q 478 -11 457 -26 q 444 -15 461 -14 q 410 -17 426 -17 q 281 3 333 -17 q 197 57 229 22 q 150 140 164 92 q 136 247 136 189 q 163 424 136 336 q 243 581 190 511 q 373 692 296 650 q 549 735 450 735 q 698 684 646 735 q 750 550 750 633 q 712 417 750 468 q 605 338 674 367 q 440 296 536 308 q 225 278 343 283 l 225 258 q 233 183 225 218 q 264 123 242 149 q 326 82 286 97 q 428 67 365 67 q 526 81 476 67 q 619 122 575 94 l 629 39 q 492 -70 535 -28 q 449 -149 449 -112 q 460 -174 449 -165 q 490 -185 472 -182 q 525 -185 507 -187 q 556 -181 543 -183 l 546 -249 q 509 -256 526 -253 q 472 -258 492 -258 q 431 -254 450 -258 q 396 -240 411 -250 q 372 -212 381 -229 q 363 -169 363 -196 m 540 653 q 435 630 483 653 q 347 567 386 607 q 279 476 307 528 q 238 365 251 424 q 438 379 357 367 q 567 413 518 392 q 638 467 617 435 q 658 544 658 500 q 626 626 658 599 q 540 653 593 653 z "},"Ě":{"ha":728,"x_min":115,"x_max":883,"o":"m 346 963 l 883 963 l 865 881 l 419 881 l 338 546 l 735 546 l 717 465 l 322 465 l 226 82 l 704 82 l 688 0 l 115 0 l 346 963 m 831 1272 l 867 1226 l 632 1022 l 494 1226 l 542 1272 l 654 1139 l 831 1272 z "},"ě":{"ha":678,"x_min":136,"x_max":768,"o":"m 750 550 q 712 424 750 472 q 605 347 674 375 q 440 306 536 318 q 225 288 343 293 l 225 258 q 233 183 225 218 q 264 123 242 149 q 326 82 286 97 q 428 67 365 67 q 526 81 476 67 q 619 122 575 94 l 629 39 q 525 -2 582 13 q 410 -17 468 -17 q 281 3 333 -17 q 197 57 229 22 q 150 140 164 92 q 136 247 136 189 q 163 424 136 336 q 243 581 190 511 q 373 692 296 650 q 549 735 450 735 q 698 684 646 735 q 750 550 750 633 m 540 653 q 436 630 485 653 q 349 568 388 607 q 281 478 310 529 q 239 369 253 426 q 438 385 357 372 q 567 419 518 397 q 638 473 617 442 q 658 544 658 504 q 626 626 658 599 q 540 653 593 653 m 732 1060 l 768 1014 l 533 810 l 396 1014 l 443 1060 l 556 926 l 732 1060 z "},"Ĝ":{"ha":889,"x_min":192,"x_max":1017,"o":"m 824 450 l 918 450 l 818 32 q 689 -7 756 7 q 560 -21 622 -21 q 394 6 464 -21 q 279 82 324 32 q 213 202 235 132 q 192 360 192 272 q 231 594 192 482 q 342 793 269 707 q 517 931 414 879 q 749 983 621 983 q 856 976 811 983 q 931 960 900 969 q 982 939 963 950 q 1017 921 1001 928 l 974 835 q 950 849 969 839 q 899 871 931 860 q 827 890 868 882 q 738 899 786 899 q 552 854 635 899 q 412 736 469 810 q 323 566 354 663 q 292 364 292 469 q 354 142 292 219 q 556 64 417 64 q 647 72 600 64 q 742 96 693 79 l 824 450 m 619 1019 l 583 1065 l 818 1269 l 956 1065 l 908 1019 l 796 1153 l 619 1019 z "},"ĝ":{"ha":728,"x_min":22,"x_max":786,"o":"m 683 642 q 597 653 639 653 q 431 619 501 653 q 315 534 361 586 q 247 419 269 482 q 225 297 225 356 q 232 226 225 260 q 256 167 239 192 q 301 127 272 142 q 376 113 331 113 q 474 130 424 113 q 571 176 525 147 l 683 642 m 61 -124 q 145 -162 90 -147 q 254 -178 200 -178 q 451 -119 382 -178 q 540 46 519 -61 l 547 82 q 458 42 506 56 q 364 29 411 29 q 260 49 304 29 q 189 102 217 68 q 147 181 161 136 q 133 278 133 226 q 162 438 133 357 q 250 585 190 519 q 399 693 310 651 q 613 735 489 735 q 707 724 663 735 q 786 694 751 714 l 631 47 q 594 -67 617 -11 q 529 -165 572 -122 q 415 -235 486 -208 q 231 -261 343 -261 q 181 -258 208 -261 q 124 -247 153 -254 q 69 -231 96 -240 q 22 -210 43 -222 l 61 -124 m 415 810 l 379 856 l 614 1060 l 751 856 l 704 810 l 592 943 l 415 810 z "},"Ğ":{"ha":889,"x_min":192,"x_max":1017,"o":"m 824 450 l 918 450 l 818 32 q 689 -7 756 7 q 560 -21 622 -21 q 394 6 464 -21 q 279 82 324 32 q 213 202 235 132 q 192 360 192 272 q 231 594 192 482 q 342 793 269 707 q 517 931 414 879 q 749 983 621 983 q 856 976 811 983 q 931 960 900 969 q 982 939 963 950 q 1017 921 1001 928 l 974 835 q 950 849 969 839 q 899 871 931 860 q 827 890 868 882 q 738 899 786 899 q 552 854 635 899 q 412 736 469 810 q 323 566 354 663 q 292 364 292 469 q 354 142 292 219 q 556 64 417 64 q 647 72 600 64 q 742 96 693 79 l 824 450 m 624 1254 l 682 1254 q 681 1242 681 1247 q 681 1231 681 1236 q 702 1169 681 1192 q 767 1147 724 1147 q 828 1160 804 1147 q 868 1191 853 1174 q 891 1226 883 1208 q 901 1254 899 1244 l 960 1254 q 894 1114 949 1158 q 754 1069 839 1069 q 652 1109 686 1069 q 618 1208 618 1149 q 619 1230 618 1218 q 624 1254 621 1242 z "},"ğ":{"ha":728,"x_min":22,"x_max":799,"o":"m 683 642 q 597 653 639 653 q 431 619 501 653 q 315 534 361 586 q 247 419 269 482 q 225 297 225 356 q 232 226 225 260 q 256 167 239 192 q 301 127 272 142 q 376 113 331 113 q 474 130 424 113 q 571 176 525 147 l 683 642 m 61 -124 q 145 -162 90 -147 q 254 -178 200 -178 q 451 -119 382 -178 q 540 46 519 -61 l 547 82 q 458 42 506 56 q 364 29 411 29 q 260 49 304 29 q 189 102 217 68 q 147 181 161 136 q 133 278 133 226 q 162 438 133 357 q 250 585 190 519 q 399 693 310 651 q 613 735 489 735 q 707 724 663 735 q 786 694 751 714 l 631 47 q 594 -67 617 -11 q 529 -165 572 -122 q 415 -235 486 -208 q 231 -261 343 -261 q 181 -258 208 -261 q 124 -247 153 -254 q 69 -231 96 -240 q 22 -210 43 -222 l 61 -124 m 463 1036 l 521 1036 q 519 1024 519 1029 q 519 1013 519 1018 q 541 951 519 974 q 606 929 563 929 q 667 942 643 929 q 707 973 692 956 q 730 1008 722 990 q 740 1036 738 1026 l 799 1036 q 733 896 788 940 q 593 851 678 851 q 491 891 525 851 q 457 990 457 931 q 458 1012 457 1000 q 463 1036 460 1024 z "},"Ġ":{"ha":889,"x_min":192,"x_max":1017,"o":"m 824 450 l 918 450 l 818 32 q 689 -7 756 7 q 560 -21 622 -21 q 394 6 464 -21 q 279 82 324 32 q 213 202 235 132 q 192 360 192 272 q 231 594 192 482 q 342 793 269 707 q 517 931 414 879 q 749 983 621 983 q 856 976 811 983 q 931 960 900 969 q 982 939 963 950 q 1017 921 1001 928 l 974 835 q 950 849 969 839 q 899 871 931 860 q 827 890 868 882 q 738 899 786 899 q 552 854 635 899 q 412 736 469 810 q 323 566 354 663 q 292 364 292 469 q 354 142 292 219 q 556 64 417 64 q 647 72 600 64 q 742 96 693 79 l 824 450 m 779 1076 q 728 1096 743 1076 q 713 1140 713 1115 q 733 1196 713 1169 q 789 1222 753 1222 q 840 1203 825 1222 q 856 1158 856 1183 q 835 1103 856 1129 q 779 1076 815 1076 z "},"ġ":{"ha":728,"x_min":22,"x_max":786,"o":"m 683 642 q 597 653 639 653 q 431 619 501 653 q 315 534 361 586 q 247 419 269 482 q 225 297 225 356 q 232 226 225 260 q 256 167 239 192 q 301 127 272 142 q 376 113 331 113 q 474 130 424 113 q 571 176 525 147 l 683 642 m 61 -124 q 145 -162 90 -147 q 254 -178 200 -178 q 451 -119 382 -178 q 540 46 519 -61 l 547 82 q 458 42 506 56 q 364 29 411 29 q 260 49 304 29 q 189 102 217 68 q 147 181 161 136 q 133 278 133 226 q 162 438 133 357 q 250 585 190 519 q 399 693 310 651 q 613 735 489 735 q 707 724 663 735 q 786 694 751 714 l 631 47 q 594 -67 617 -11 q 529 -165 572 -122 q 415 -235 486 -208 q 231 -261 343 -261 q 181 -258 208 -261 q 124 -247 153 -254 q 69 -231 96 -240 q 22 -210 43 -222 l 61 -124 m 624 863 q 572 882 588 863 q 557 926 557 901 q 577 982 557 956 q 633 1008 597 1008 q 685 989 669 1008 q 700 944 700 969 q 680 889 700 915 q 624 863 660 863 z "},"Ģ":{"ha":889,"x_min":192,"x_max":1017,"o":"m 824 450 l 918 450 l 818 32 q 689 -7 756 7 q 560 -21 622 -21 q 394 6 464 -21 q 279 82 324 32 q 213 202 235 132 q 192 360 192 272 q 231 594 192 482 q 342 793 269 707 q 517 931 414 879 q 749 983 621 983 q 856 976 811 983 q 931 960 900 969 q 982 939 963 950 q 1017 921 1001 928 l 974 835 q 950 849 969 839 q 899 871 931 860 q 827 890 868 882 q 738 899 786 899 q 552 854 635 899 q 412 736 469 810 q 323 566 354 663 q 292 364 292 469 q 354 142 292 219 q 556 64 417 64 q 647 72 600 64 q 742 96 693 79 l 824 450 m 349 -193 q 399 -188 378 -197 q 433 -162 419 -179 q 454 -121 446 -144 q 469 -69 463 -97 l 569 -69 q 545 -147 564 -110 q 496 -212 526 -185 q 424 -253 465 -240 q 333 -253 383 -265 l 349 -193 z "},"ģ":{"ha":728,"x_min":22,"x_max":786,"o":"m 683 642 q 597 653 639 653 q 431 619 501 653 q 315 534 361 586 q 247 419 269 482 q 225 297 225 356 q 232 226 225 260 q 256 167 239 192 q 301 127 272 142 q 376 113 331 113 q 474 130 424 113 q 571 176 525 147 l 683 642 m 61 -124 q 145 -162 90 -147 q 254 -178 200 -178 q 451 -119 382 -178 q 540 46 519 -61 l 547 82 q 458 42 506 56 q 364 29 411 29 q 260 49 304 29 q 189 102 217 68 q 147 181 161 136 q 133 278 133 226 q 162 438 133 357 q 250 585 190 519 q 399 693 310 651 q 613 735 489 735 q 707 724 663 735 q 786 694 751 714 l 631 47 q 594 -67 617 -11 q 529 -165 572 -122 q 415 -235 486 -208 q 231 -261 343 -261 q 181 -258 208 -261 q 124 -247 153 -254 q 69 -231 96 -240 q 22 -210 43 -222 l 61 -124 m 522 853 q 542 935 526 897 q 582 1001 557 972 q 640 1049 607 1031 q 711 1075 674 1068 l 740 1026 q 696 1001 715 1014 q 663 968 676 988 q 638 922 649 949 q 618 853 626 894 l 522 853 z "},"Ĥ":{"ha":910,"x_min":115,"x_max":1031,"o":"m 346 963 l 440 963 l 338 544 l 836 544 l 936 963 l 1031 963 l 801 0 l 707 0 l 818 463 l 321 463 l 210 0 l 115 0 l 346 963 m 556 1019 l 519 1065 l 754 1269 l 892 1065 l 844 1019 l 732 1153 l 556 1019 z "},"ĥ":{"ha":757,"x_min":115,"x_max":760,"o":"m 206 0 l 115 0 l 368 1061 l 463 1078 l 371 699 q 536 735 458 735 q 624 721 583 735 q 694 679 664 707 q 742 609 725 651 q 760 508 760 567 q 754 434 760 472 q 739 357 749 396 l 653 0 l 563 0 l 639 319 q 660 413 650 365 q 669 503 669 460 q 656 573 669 544 q 622 619 643 601 q 571 644 600 636 q 510 651 542 651 q 428 643 469 651 q 351 622 388 635 l 206 0 m 339 1199 l 521 1329 l 647 1190 l 606 1144 l 506 1240 l 369 1146 l 339 1199 z "},"Ħ":{"ha":938,"x_min":129,"x_max":1117,"o":"m 306 739 l 193 739 l 211 814 l 324 814 l 360 963 l 454 963 l 417 814 l 914 814 l 950 963 l 1044 963 l 1008 814 l 1117 814 l 1099 739 l 990 739 l 815 0 l 721 0 l 832 463 l 335 463 l 224 0 l 129 0 l 306 739 m 850 544 l 896 739 l 399 739 l 351 544 l 850 544 z "},"ħ":{"ha":757,"x_min":115,"x_max":760,"o":"m 646 865 l 411 865 l 371 699 q 536 735 458 735 q 624 721 583 735 q 694 679 664 707 q 742 609 725 651 q 760 508 760 567 q 754 434 760 472 q 739 357 749 396 l 653 0 l 563 0 l 639 319 q 660 413 650 365 q 669 503 669 460 q 656 573 669 544 q 622 619 643 601 q 571 644 600 636 q 510 651 542 651 q 428 643 469 651 q 351 622 388 635 l 206 0 l 115 0 l 321 865 l 231 865 l 247 938 l 339 938 l 368 1061 l 463 1078 l 428 938 l 663 938 l 646 865 z "},"Ĩ":{"ha":319,"x_min":115,"x_max":664,"o":"m 346 963 l 440 963 l 211 0 l 115 0 l 346 963 m 503 1085 q 457 1093 476 1085 q 419 1112 438 1101 q 383 1131 401 1122 q 339 1139 364 1139 q 289 1123 308 1139 q 247 1075 269 1107 l 197 1106 q 222 1144 208 1125 q 255 1179 236 1164 q 299 1203 274 1194 q 358 1213 324 1213 q 403 1204 383 1213 q 440 1185 422 1196 q 478 1167 458 1175 q 522 1158 497 1158 q 572 1174 553 1158 q 614 1222 592 1190 l 664 1190 q 639 1151 653 1171 q 606 1117 625 1132 q 563 1094 588 1103 q 503 1085 538 1085 z "},"ĩ":{"ha":326,"x_min":115,"x_max":618,"o":"m 289 718 l 379 718 l 206 0 l 115 0 l 289 718 m 457 874 q 411 882 431 874 q 374 901 392 890 q 337 919 356 911 q 293 928 318 928 q 243 912 263 928 q 201 864 224 896 l 151 894 q 176 933 163 914 q 209 968 190 953 q 253 992 228 983 q 313 1001 278 1001 q 357 993 338 1001 q 394 974 376 985 q 432 956 413 964 q 476 947 451 947 q 526 963 507 947 q 568 1011 546 979 l 618 979 q 593 940 607 960 q 560 906 579 921 q 517 883 542 892 q 457 874 492 874 z "},"Ī":{"ha":319,"x_min":115,"x_max":618,"o":"m 346 963 l 440 963 l 211 0 l 115 0 l 346 963 m 240 1117 l 258 1196 l 618 1196 l 600 1117 l 240 1117 z "},"ī":{"ha":326,"x_min":115,"x_max":574,"o":"m 289 718 l 379 718 l 206 0 l 115 0 l 289 718 m 196 899 l 214 978 l 574 978 l 556 899 l 196 899 z "},"Ĭ":{"ha":319,"x_min":115,"x_max":601,"o":"m 346 963 l 440 963 l 211 0 l 115 0 l 346 963 m 265 1254 l 324 1254 q 322 1242 322 1247 q 322 1231 322 1236 q 344 1169 322 1192 q 408 1147 365 1147 q 470 1160 446 1147 q 510 1191 494 1174 q 533 1226 525 1208 q 543 1254 540 1244 l 601 1254 q 535 1114 590 1158 q 396 1069 481 1069 q 294 1109 328 1069 q 260 1208 260 1149 q 261 1230 260 1218 q 265 1254 263 1242 z "},"ĭ":{"ha":326,"x_min":115,"x_max":558,"o":"m 289 718 l 379 718 l 206 0 l 115 0 l 289 718 m 222 1036 l 281 1036 q 279 1024 279 1029 q 279 1013 279 1018 q 301 951 279 974 q 365 929 322 929 q 427 942 403 929 q 467 973 451 956 q 490 1008 482 990 q 500 1036 497 1026 l 558 1036 q 492 896 547 940 q 353 851 438 851 q 251 891 285 851 q 217 990 217 931 q 218 1012 217 1000 q 222 1036 219 1024 z "},"Į":{"ha":319,"x_min":-14,"x_max":440,"o":"m 346 963 l 440 963 l 211 0 q 103 -85 133 -50 q 72 -149 72 -121 q 84 -174 72 -165 q 113 -185 96 -182 q 149 -185 131 -187 q 179 -181 167 -183 l 169 -249 q 133 -256 150 -253 q 96 -258 115 -258 q 54 -254 74 -258 q 19 -240 35 -250 q -5 -212 4 -229 q -14 -169 -14 -196 q -1 -121 -14 -144 q 30 -76 11 -97 q 72 -35 49 -54 q 118 0 96 -15 l 115 0 l 346 963 z "},"į":{"ha":326,"x_min":-19,"x_max":447,"o":"m -19 -169 q -7 -121 -19 -144 q 26 -76 6 -97 q 69 -35 46 -54 q 115 0 93 -15 l 289 718 l 379 718 l 206 0 q 97 -85 128 -50 q 67 -149 67 -121 q 78 -174 67 -165 q 108 -185 90 -182 q 143 -185 125 -187 q 174 -181 161 -183 l 164 -249 q 127 -256 144 -253 q 90 -258 110 -258 q 49 -254 68 -258 q 14 -240 29 -250 q -10 -212 -1 -229 q -19 -169 -19 -196 m 325 928 q 345 983 325 964 q 389 1001 365 1001 q 432 984 417 1001 q 447 939 447 967 q 425 888 447 906 q 381 869 403 869 q 339 885 353 869 q 325 928 325 901 z "},"İ":{"ha":319,"x_min":115,"x_max":497,"o":"m 346 963 l 440 963 l 211 0 l 115 0 l 346 963 m 421 1076 q 369 1096 385 1076 q 354 1140 354 1115 q 374 1196 354 1169 q 431 1222 394 1222 q 482 1203 467 1222 q 497 1158 497 1183 q 477 1103 497 1129 q 421 1076 457 1076 z "},"ı":{"ha":326,"x_min":115,"x_max":379,"o":"m 289 718 l 379 718 l 206 0 l 115 0 l 289 718 z "},"Ĳ":{"ha":972,"x_min":122,"x_max":1093,"o":"m 353 963 l 447 963 l 218 0 l 122 0 l 353 963 m 421 132 q 490 88 442 111 q 606 64 539 64 q 676 72 643 64 q 739 101 710 79 q 792 165 768 124 q 832 272 815 206 l 999 963 l 1093 963 l 926 261 q 875 124 907 178 q 801 37 843 69 q 709 -8 760 4 q 601 -21 658 -21 q 472 1 529 -21 q 372 60 414 24 l 421 132 z "},"ĳ":{"ha":632,"x_min":113,"x_max":756,"o":"m 286 718 l 376 718 l 203 0 l 113 0 l 286 718 m 322 928 q 342 983 322 964 q 386 1001 363 1001 q 429 984 414 1001 q 444 939 444 967 q 422 888 444 906 q 378 869 400 869 q 336 885 350 869 q 322 928 322 901 m 172 -160 q 215 -176 194 -171 q 261 -182 235 -182 q 325 -167 299 -182 q 372 -124 351 -151 q 405 -60 392 -97 q 429 22 418 -22 l 594 718 l 685 718 l 522 39 q 483 -92 504 -36 q 430 -186 461 -149 q 355 -242 399 -224 q 250 -261 311 -261 q 191 -253 215 -261 q 151 -236 167 -246 l 172 -160 m 633 928 q 653 983 633 964 q 697 1001 674 1001 q 740 984 725 1001 q 756 939 756 967 q 733 888 756 906 q 689 869 711 869 q 647 885 661 869 q 633 928 633 901 z "},"Ĵ":{"ha":625,"x_min":25,"x_max":908,"o":"m 74 132 q 143 88 94 111 q 258 64 192 64 q 329 72 296 64 q 392 101 363 79 q 444 165 421 124 q 485 272 468 206 l 651 963 l 746 963 l 579 261 q 528 124 560 178 q 454 37 496 69 q 362 -8 413 4 q 254 -21 311 -21 q 124 1 182 -21 q 25 60 67 24 l 74 132 m 572 1019 l 536 1065 l 771 1269 l 908 1065 l 861 1019 l 749 1153 l 572 1019 z "},"ĵ":{"ha":326,"x_min":-140,"x_max":549,"o":"m -119 -160 q -77 -176 -97 -171 q -31 -182 -57 -182 q 33 -167 7 -182 q 80 -124 60 -151 q 113 -60 100 -97 q 138 22 126 -22 l 303 718 l 393 718 l 231 39 q 191 -92 213 -36 q 138 -186 169 -149 q 63 -242 107 -224 q -42 -261 19 -261 q -101 -253 -76 -261 q -140 -236 -125 -246 l -119 -160 m 213 810 l 176 856 l 411 1060 l 549 856 l 501 810 l 389 943 l 213 810 z "},"Ķ":{"ha":832,"x_min":115,"x_max":1006,"o":"m 346 963 l 439 963 l 333 519 q 481 631 401 568 q 638 756 561 693 q 778 873 714 818 q 881 963 843 928 l 1006 963 q 889 861 960 921 q 739 738 818 801 q 580 610 660 674 q 436 497 500 547 q 540 399 486 460 q 645 269 594 339 q 739 129 696 200 q 807 0 782 58 l 704 0 q 531 278 624 156 q 324 483 439 400 l 210 0 l 115 0 l 346 963 m 286 -193 q 336 -188 315 -197 q 370 -162 357 -179 q 392 -121 383 -144 q 407 -69 400 -97 l 507 -69 q 483 -147 501 -110 q 433 -212 464 -185 q 362 -253 403 -240 q 271 -253 321 -265 l 286 -193 z "},"ķ":{"ha":693,"x_min":115,"x_max":765,"o":"m 371 1061 l 465 1078 l 306 414 q 408 490 356 447 q 508 574 460 532 q 594 655 556 617 q 656 718 633 693 l 765 718 q 694 640 740 686 q 595 547 647 594 q 492 459 543 500 q 408 399 442 418 q 501 314 456 363 q 583 211 546 265 q 651 102 621 157 q 697 0 681 47 l 600 0 q 461 224 539 131 q 297 376 383 318 l 206 0 l 115 0 l 371 1061 m 213 -193 q 263 -188 242 -197 q 297 -162 283 -179 q 318 -121 310 -144 q 333 -69 326 -97 l 433 -69 q 409 -147 428 -110 q 360 -212 390 -185 q 288 -253 329 -240 q 197 -253 247 -265 l 213 -193 z "},"ĸ":{"ha":700,"x_min":115,"x_max":776,"o":"m 289 718 l 379 718 l 306 414 q 410 490 356 447 q 514 574 464 532 q 604 655 564 617 q 667 718 644 693 l 776 718 q 703 640 751 686 q 598 545 654 593 q 489 456 542 497 q 403 396 436 415 q 498 311 450 360 q 587 209 546 263 q 660 101 628 156 q 708 0 692 47 l 611 0 q 467 224 550 131 q 297 376 383 318 l 206 0 l 115 0 l 289 718 z "},"Ĺ":{"ha":658,"x_min":115,"x_max":654,"o":"m 344 963 l 439 963 l 228 81 l 654 81 l 636 0 l 115 0 l 344 963 m 624 1196 l 381 1018 l 340 1079 l 571 1282 l 624 1196 z "},"ĺ":{"ha":369,"x_min":150,"x_max":572,"o":"m 349 1061 l 442 1078 l 269 354 q 248 265 258 307 q 238 186 238 222 q 242 145 238 164 q 258 112 246 126 q 294 86 271 97 q 353 67 317 75 l 332 -12 q 190 49 231 0 q 150 174 150 99 q 156 244 150 207 q 171 321 161 281 l 349 1061 m 342 1143 l 324 1197 l 549 1304 l 572 1222 l 342 1143 z "},"Ļ":{"ha":658,"x_min":115,"x_max":654,"o":"m 344 963 l 439 963 l 228 81 l 654 81 l 636 0 l 115 0 l 344 963 m 231 -193 q 281 -188 260 -197 q 315 -162 301 -179 q 336 -121 328 -144 q 351 -69 344 -97 l 451 -69 q 427 -147 446 -110 q 378 -212 408 -185 q 306 -253 347 -240 q 215 -253 265 -265 l 231 -193 z "},"ļ":{"ha":369,"x_min":35,"x_max":442,"o":"m 349 1061 l 442 1078 l 269 354 q 248 265 258 307 q 238 186 238 222 q 242 145 238 164 q 258 112 246 126 q 294 86 271 97 q 353 67 317 75 l 332 -12 q 190 49 231 0 q 150 174 150 99 q 156 244 150 207 q 171 321 161 281 l 349 1061 m 50 -193 q 100 -188 79 -197 q 134 -162 121 -179 q 156 -121 147 -144 q 171 -69 164 -97 l 271 -69 q 247 -147 265 -110 q 197 -212 228 -185 q 126 -253 167 -240 q 35 -253 85 -265 l 50 -193 z "},"Ľ":{"ha":658,"x_min":115,"x_max":663,"o":"m 344 963 l 439 963 l 228 81 l 654 81 l 636 0 l 115 0 l 344 963 m 663 964 l 556 663 l 490 663 l 564 964 l 663 964 z "},"ľ":{"ha":369,"x_min":150,"x_max":650,"o":"m 349 1061 l 442 1078 l 269 354 q 248 265 258 307 q 238 186 238 222 q 242 145 238 164 q 258 112 246 126 q 294 86 271 97 q 353 67 317 75 l 332 -12 q 190 49 231 0 q 150 174 150 99 q 156 244 150 207 q 171 321 161 281 l 349 1061 m 650 1078 l 543 776 l 478 776 l 551 1078 l 650 1078 z "},"Ŀ":{"ha":672,"x_min":115,"x_max":679,"o":"m 344 963 l 439 963 l 228 81 l 654 81 l 636 0 l 115 0 l 344 963 m 603 404 q 551 424 567 404 q 536 468 536 443 q 556 524 536 497 q 613 550 576 550 q 664 531 649 550 q 679 486 679 511 q 659 431 679 457 q 603 404 639 404 z "},"ŀ":{"ha":425,"x_min":150,"x_max":536,"o":"m 460 404 q 408 424 424 404 q 393 468 393 443 q 413 524 393 497 q 469 550 433 550 q 521 531 506 550 q 536 486 536 511 q 516 431 536 457 q 460 404 496 404 m 349 1061 l 442 1078 l 269 354 q 248 265 258 307 q 238 186 238 222 q 242 145 238 164 q 258 112 246 126 q 294 86 271 97 q 353 67 317 75 l 332 -12 q 190 49 231 0 q 150 174 150 99 q 156 244 150 207 q 171 321 161 281 l 349 1061 z "},"Ł":{"ha":704,"x_min":119,"x_max":700,"o":"m 260 414 l 139 360 l 119 438 l 282 511 l 390 963 l 485 963 l 388 558 l 564 638 l 583 560 l 364 461 l 274 81 l 700 81 l 682 0 l 161 0 l 260 414 z "},"ł":{"ha":397,"x_min":107,"x_max":478,"o":"m 224 483 l 124 439 l 107 504 l 243 565 l 363 1061 l 456 1078 l 344 610 l 463 664 l 478 599 l 325 529 l 283 354 q 262 265 272 307 q 251 186 251 222 q 275 112 251 142 q 368 68 299 82 l 346 -12 q 258 6 293 -10 q 201 45 222 21 q 172 102 181 69 q 164 174 164 135 q 169 244 164 207 q 185 321 175 281 l 224 483 z "},"Ń":{"ha":929,"x_min":115,"x_max":1050,"o":"m 346 963 l 439 963 q 541 764 490 874 q 637 542 592 654 q 716 328 682 431 q 768 151 750 225 l 957 963 l 1050 963 l 822 0 l 729 0 q 667 198 704 85 q 585 428 629 311 q 496 652 542 544 q 408 835 450 760 l 208 0 l 115 0 l 346 963 m 900 1196 l 657 1018 l 617 1079 l 847 1282 l 900 1196 z "},"ń":{"ha":758,"x_min":115,"x_max":761,"o":"m 281 693 q 396 720 335 708 q 517 732 457 732 q 611 722 567 732 q 689 685 656 711 q 742 615 722 658 q 761 508 761 572 q 756 434 761 472 q 740 357 750 396 l 654 0 l 564 0 l 640 319 q 660 413 651 365 q 671 503 669 460 q 658 574 671 546 q 622 618 644 601 q 568 642 599 635 q 504 649 538 649 q 431 643 468 649 q 357 629 393 638 l 206 0 l 115 0 l 281 693 m 757 988 l 514 810 l 474 871 l 704 1074 l 757 988 z "},"Ņ":{"ha":929,"x_min":115,"x_max":1050,"o":"m 346 963 l 439 963 q 541 764 490 874 q 637 542 592 654 q 716 328 682 431 q 768 151 750 225 l 957 963 l 1050 963 l 822 0 l 729 0 q 667 198 704 85 q 585 428 629 311 q 496 652 542 544 q 408 835 450 760 l 208 0 l 115 0 l 346 963 m 293 -193 q 343 -188 322 -197 q 377 -162 364 -179 q 399 -121 390 -144 q 414 -69 407 -97 l 514 -69 q 490 -147 508 -110 q 440 -212 471 -185 q 369 -253 410 -240 q 278 -253 328 -265 l 293 -193 z "},"ņ":{"ha":758,"x_min":115,"x_max":761,"o":"m 281 693 q 396 720 335 708 q 517 732 457 732 q 611 722 567 732 q 689 685 656 711 q 742 615 722 658 q 761 508 761 572 q 756 434 761 472 q 740 357 750 396 l 654 0 l 564 0 l 640 319 q 660 413 651 365 q 671 503 669 460 q 658 574 671 546 q 622 618 644 601 q 568 642 599 635 q 504 649 538 649 q 431 643 468 649 q 357 629 393 638 l 206 0 l 115 0 l 281 693 m 192 -193 q 242 -188 221 -197 q 276 -162 263 -179 q 297 -121 289 -144 q 313 -69 306 -97 l 413 -69 q 388 -147 407 -110 q 339 -212 369 -185 q 267 -253 308 -240 q 176 -253 226 -265 l 192 -193 z "},"Ň":{"ha":929,"x_min":115,"x_max":1050,"o":"m 346 963 l 439 963 q 541 764 490 874 q 637 542 592 654 q 716 328 682 431 q 768 151 750 225 l 957 963 l 1050 963 l 822 0 l 729 0 q 667 198 704 85 q 585 428 629 311 q 496 652 542 544 q 408 835 450 760 l 208 0 l 115 0 l 346 963 m 904 1272 l 940 1226 l 706 1022 l 568 1226 l 615 1272 l 728 1139 l 904 1272 z "},"ň":{"ha":758,"x_min":115,"x_max":799,"o":"m 281 693 q 396 720 335 708 q 517 732 457 732 q 611 722 567 732 q 689 685 656 711 q 742 615 722 658 q 761 508 761 572 q 756 434 761 472 q 740 357 750 396 l 654 0 l 564 0 l 640 319 q 660 413 651 365 q 671 503 669 460 q 658 574 671 546 q 622 618 644 601 q 568 642 599 635 q 504 649 538 649 q 431 643 468 649 q 357 629 393 638 l 206 0 l 115 0 l 281 693 m 763 1060 l 799 1014 l 564 810 l 426 1014 l 474 1060 l 586 926 l 763 1060 z "},"ŉ":{"ha":758,"x_min":115,"x_max":761,"o":"m 281 693 q 396 720 335 708 q 517 732 457 732 q 611 722 567 732 q 689 685 656 711 q 742 615 722 658 q 761 508 761 572 q 756 434 761 472 q 740 357 750 396 l 654 0 l 564 0 l 640 319 q 660 413 651 365 q 671 503 669 460 q 658 574 671 546 q 622 618 644 601 q 568 642 599 635 q 504 649 538 649 q 431 643 468 649 q 357 629 393 638 l 206 0 l 115 0 l 281 693 m 171 814 q 217 881 196 846 q 255 952 239 917 q 280 1020 271 988 q 290 1078 289 1053 l 392 1078 q 335 935 376 1004 q 232 790 294 865 l 171 814 z "},"Ŋ":{"ha":929,"x_min":115,"x_max":1050,"o":"m 729 0 q 667 198 704 85 q 585 428 629 311 q 496 652 542 544 q 408 835 450 760 l 208 0 l 115 0 l 346 963 l 439 963 q 541 764 490 874 q 637 542 592 654 q 716 328 682 431 q 768 151 750 225 l 957 963 l 1050 963 l 818 -12 q 790 -122 803 -75 q 753 -199 776 -168 q 688 -244 729 -229 q 574 -260 646 -260 q 556 -258 567 -260 q 536 -253 546 -256 q 520 -249 526 -251 q 515 -244 514 -246 l 533 -181 q 553 -187 538 -183 q 592 -192 568 -192 q 652 -178 629 -192 q 688 -140 675 -165 q 710 -80 701 -115 q 729 0 718 -44 z "},"ŋ":{"ha":758,"x_min":115,"x_max":763,"o":"m 381 -183 q 397 -190 383 -186 q 428 -193 410 -193 q 479 -182 458 -193 q 514 -151 500 -171 q 538 -101 528 -131 q 556 -36 547 -72 l 640 319 q 664 416 653 368 q 675 507 675 464 q 638 614 675 575 q 503 653 600 653 q 422 647 463 653 q 358 633 382 640 l 206 0 l 115 0 l 281 693 q 355 712 315 704 q 431 724 394 719 q 496 730 467 728 q 540 732 525 732 q 645 715 603 732 q 713 669 688 699 q 751 599 739 639 q 763 511 763 558 q 756 436 763 475 q 740 357 750 397 l 651 -14 q 628 -108 638 -64 q 595 -186 618 -153 q 528 -240 572 -219 q 401 -260 485 -260 q 377 -256 396 -260 q 357 -247 358 -253 l 381 -183 z "},"Ō":{"ha":1039,"x_min":192,"x_max":1083,"o":"m 192 358 q 239 617 192 501 q 364 815 286 733 q 540 940 442 896 q 740 983 638 983 q 871 960 808 983 q 981 891 933 938 q 1056 773 1028 844 q 1083 606 1083 701 q 1036 345 1083 461 q 911 148 989 229 q 735 23 833 67 q 535 -21 636 -21 q 403 2 465 -21 q 294 72 342 25 q 219 190 247 118 q 192 358 192 261 m 292 343 q 311 219 292 272 q 365 133 331 167 q 445 81 400 99 q 543 64 490 64 q 707 101 628 64 q 847 208 786 138 q 946 383 908 279 q 983 619 983 486 q 964 743 983 690 q 910 830 944 796 q 829 881 875 864 q 732 899 783 899 q 568 862 647 899 q 427 754 489 825 q 328 580 365 683 q 292 343 292 476 m 592 1117 l 610 1196 l 969 1196 l 951 1117 l 592 1117 z "},"ō":{"ha":731,"x_min":136,"x_max":778,"o":"m 228 231 q 274 107 228 149 q 383 65 319 65 q 486 91 433 65 q 583 169 539 117 q 655 300 626 221 q 683 486 683 379 q 638 610 683 568 q 528 651 592 651 q 425 626 478 651 q 328 548 372 600 q 256 417 285 496 q 228 231 228 338 m 775 493 q 738 267 775 363 q 644 108 701 171 q 516 14 586 44 q 378 -17 446 -17 q 285 -1 329 -17 q 208 44 242 14 q 156 120 175 75 q 136 225 136 165 q 173 451 136 356 q 267 610 210 547 q 395 703 325 672 q 533 733 465 733 q 626 718 582 733 q 703 672 669 703 q 756 597 736 642 q 775 493 775 551 m 400 899 l 418 978 l 778 978 l 760 899 l 400 899 z "},"Ŏ":{"ha":1039,"x_min":192,"x_max":1083,"o":"m 192 358 q 239 617 192 501 q 364 815 286 733 q 540 940 442 896 q 740 983 638 983 q 871 960 808 983 q 981 891 933 938 q 1056 773 1028 844 q 1083 606 1083 701 q 1036 345 1083 461 q 911 148 989 229 q 735 23 833 67 q 535 -21 636 -21 q 403 2 465 -21 q 294 72 342 25 q 219 190 247 118 q 192 358 192 261 m 292 343 q 311 219 292 272 q 365 133 331 167 q 445 81 400 99 q 543 64 490 64 q 707 101 628 64 q 847 208 786 138 q 946 383 908 279 q 983 619 983 486 q 964 743 983 690 q 910 830 944 796 q 829 881 875 864 q 732 899 783 899 q 568 862 647 899 q 427 754 489 825 q 328 580 365 683 q 292 343 292 476 m 644 1254 l 703 1254 q 701 1242 701 1247 q 701 1231 701 1236 q 723 1169 701 1192 q 788 1147 744 1147 q 849 1160 825 1147 q 889 1191 874 1174 q 912 1226 904 1208 q 922 1254 919 1244 l 981 1254 q 915 1114 969 1158 q 775 1069 860 1069 q 673 1109 707 1069 q 639 1208 639 1149 q 640 1230 639 1218 q 644 1254 642 1242 z "},"ŏ":{"ha":731,"x_min":136,"x_max":775,"o":"m 228 231 q 274 107 228 149 q 383 65 319 65 q 486 91 433 65 q 583 169 539 117 q 655 300 626 221 q 683 486 683 379 q 638 610 683 568 q 528 651 592 651 q 425 626 478 651 q 328 548 372 600 q 256 417 285 496 q 228 231 228 338 m 775 493 q 738 267 775 363 q 644 108 701 171 q 516 14 586 44 q 378 -17 446 -17 q 285 -1 329 -17 q 208 44 242 14 q 156 120 175 75 q 136 225 136 165 q 173 451 136 356 q 267 610 210 547 q 395 703 325 672 q 533 733 465 733 q 626 718 582 733 q 703 672 669 703 q 756 597 736 642 q 775 493 775 551 m 431 1036 l 489 1036 q 488 1024 488 1029 q 488 1013 488 1018 q 509 951 488 974 q 574 929 531 929 q 635 942 611 929 q 675 973 660 956 q 698 1008 690 990 q 708 1036 706 1026 l 767 1036 q 701 896 756 940 q 561 851 646 851 q 459 891 493 851 q 425 990 425 931 q 426 1012 425 1000 q 431 1036 428 1024 z "},"Ő":{"ha":1039,"x_min":192,"x_max":1089,"o":"m 192 358 q 239 617 192 501 q 364 815 286 733 q 540 940 442 896 q 740 983 638 983 q 871 960 808 983 q 981 891 933 938 q 1056 773 1028 844 q 1083 606 1083 701 q 1036 345 1083 461 q 911 148 989 229 q 735 23 833 67 q 535 -21 636 -21 q 403 2 465 -21 q 294 72 342 25 q 219 190 247 118 q 192 358 192 261 m 292 343 q 311 219 292 272 q 365 133 331 167 q 445 81 400 99 q 543 64 490 64 q 707 101 628 64 q 847 208 786 138 q 946 383 908 279 q 983 619 983 486 q 964 743 983 690 q 910 830 944 796 q 829 881 875 864 q 732 899 783 899 q 568 862 647 899 q 427 754 489 825 q 328 580 365 683 q 292 343 292 476 m 651 1021 l 610 1067 l 808 1286 l 871 1219 l 651 1021 m 869 1021 l 828 1067 l 1026 1286 l 1089 1219 l 869 1021 z "},"ő":{"ha":731,"x_min":136,"x_max":871,"o":"m 228 231 q 274 107 228 149 q 383 65 319 65 q 486 91 433 65 q 583 169 539 117 q 655 300 626 221 q 683 486 683 379 q 638 610 683 568 q 528 651 592 651 q 425 626 478 651 q 328 548 372 600 q 256 417 285 496 q 228 231 228 338 m 775 493 q 738 267 775 363 q 644 108 701 171 q 516 14 586 44 q 378 -17 446 -17 q 285 -1 329 -17 q 208 44 242 14 q 156 120 175 75 q 136 225 136 165 q 173 451 136 356 q 267 610 210 547 q 395 703 325 672 q 533 733 465 733 q 626 718 582 733 q 703 672 669 703 q 756 597 736 642 q 775 493 775 551 m 433 808 l 392 854 l 590 1074 l 653 1007 l 433 808 m 651 808 l 610 854 l 808 1074 l 871 1007 l 651 808 z "},"Ŕ":{"ha":822,"x_min":115,"x_max":894,"o":"m 567 971 q 813 905 731 971 q 894 718 894 839 q 825 528 894 610 q 614 411 756 447 q 654 331 631 381 q 702 225 678 282 q 749 109 726 168 q 788 0 772 50 l 688 0 q 602 220 649 118 q 515 393 556 322 q 419 389 469 389 l 303 389 l 210 0 l 115 0 l 342 944 q 448 963 390 954 q 567 971 506 971 m 436 469 q 703 535 610 469 q 796 721 796 601 q 738 849 796 808 q 553 889 679 889 q 483 885 517 889 q 421 879 449 882 l 321 469 l 436 469 m 814 1196 l 571 1018 l 531 1079 l 761 1282 l 814 1196 z "},"ŕ":{"ha":508,"x_min":115,"x_max":681,"o":"m 279 686 q 395 721 332 707 q 519 735 458 735 q 581 731 551 735 q 636 717 610 726 l 613 635 q 501 651 558 651 q 429 646 465 651 q 357 629 393 640 l 206 0 l 115 0 l 279 686 m 681 988 l 438 810 l 397 871 l 628 1074 l 681 988 z "},"Ŗ":{"ha":822,"x_min":115,"x_max":894,"o":"m 567 971 q 813 905 731 971 q 894 718 894 839 q 825 528 894 610 q 614 411 756 447 q 654 331 631 381 q 702 225 678 282 q 749 109 726 168 q 788 0 772 50 l 688 0 q 602 220 649 118 q 515 393 556 322 q 419 389 469 389 l 303 389 l 210 0 l 115 0 l 342 944 q 448 963 390 954 q 567 971 506 971 m 436 469 q 703 535 610 469 q 796 721 796 601 q 738 849 796 808 q 553 889 679 889 q 483 885 517 889 q 421 879 449 882 l 321 469 l 436 469 m 265 -193 q 315 -188 294 -197 q 349 -162 336 -179 q 371 -121 363 -144 q 386 -69 379 -97 l 486 -69 q 462 -147 481 -110 q 413 -212 443 -185 q 341 -253 382 -240 q 250 -253 300 -265 l 265 -193 z "},"ŗ":{"ha":508,"x_min":-39,"x_max":636,"o":"m 279 686 q 395 721 332 707 q 519 735 458 735 q 581 731 551 735 q 636 717 610 726 l 613 635 q 501 651 558 651 q 429 646 465 651 q 357 629 393 640 l 206 0 l 115 0 l 279 686 m -24 -193 q 26 -188 6 -197 q 60 -162 47 -179 q 82 -121 74 -144 q 97 -69 90 -97 l 197 -69 q 173 -147 192 -110 q 124 -212 154 -185 q 52 -253 93 -240 q -39 -253 11 -265 l -24 -193 z "},"Ř":{"ha":822,"x_min":115,"x_max":894,"o":"m 567 971 q 813 905 731 971 q 894 718 894 839 q 825 528 894 610 q 614 411 756 447 q 654 331 631 381 q 702 225 678 282 q 749 109 726 168 q 788 0 772 50 l 688 0 q 602 220 649 118 q 515 393 556 322 q 419 389 469 389 l 303 389 l 210 0 l 115 0 l 342 944 q 448 963 390 954 q 567 971 506 971 m 436 469 q 703 535 610 469 q 796 721 796 601 q 738 849 796 808 q 553 889 679 889 q 483 885 517 889 q 421 879 449 882 l 321 469 l 436 469 m 797 1272 l 833 1226 l 599 1022 l 461 1226 l 508 1272 l 621 1139 l 797 1272 z "},"ř":{"ha":508,"x_min":115,"x_max":731,"o":"m 279 686 q 395 721 332 707 q 519 735 458 735 q 581 731 551 735 q 636 717 610 726 l 613 635 q 501 651 558 651 q 429 646 465 651 q 357 629 393 640 l 206 0 l 115 0 l 279 686 m 694 1060 l 731 1014 l 496 810 l 358 1014 l 406 1060 l 518 926 l 694 1060 z "},"Ś":{"ha":676,"x_min":67,"x_max":818,"o":"m 115 129 q 213 80 156 99 q 333 61 271 61 q 430 73 383 61 q 513 110 476 85 q 572 176 550 136 q 594 271 594 215 q 568 361 594 326 q 502 421 542 396 q 416 467 463 446 q 330 519 369 489 q 264 594 290 550 q 238 708 238 638 q 258 808 238 758 q 323 896 279 857 q 433 959 367 935 q 589 983 499 983 q 702 972 649 983 q 818 929 756 960 l 769 850 q 673 891 721 879 q 572 903 625 903 q 484 892 526 903 q 408 860 442 882 q 355 803 375 839 q 335 718 335 768 q 361 628 335 663 q 428 568 388 593 q 514 522 468 543 q 600 470 560 500 q 667 394 640 440 q 693 275 693 349 q 672 167 693 221 q 603 72 650 114 q 485 5 557 31 q 314 -21 414 -21 q 184 -3 247 -21 q 67 47 121 15 l 115 129 m 792 1196 l 549 1018 l 508 1079 l 739 1282 l 792 1196 z "},"ś":{"ha":556,"x_min":67,"x_max":665,"o":"m 106 114 q 196 76 157 86 q 283 67 235 67 q 350 74 318 67 q 406 97 382 82 q 443 138 429 113 q 457 196 457 163 q 437 256 457 232 q 387 297 417 279 q 322 331 357 314 q 258 369 288 347 q 208 425 228 392 q 188 511 188 458 q 210 613 188 571 q 269 683 232 656 q 356 722 307 710 q 456 735 404 735 q 544 727 500 735 q 628 704 588 719 l 592 624 q 525 644 563 636 q 447 651 488 651 q 383 644 414 651 q 328 622 351 638 q 290 581 304 606 q 275 522 275 557 q 295 463 275 486 q 344 421 315 439 q 409 387 374 403 q 474 349 444 371 q 523 295 503 326 q 543 215 543 264 q 520 110 543 154 q 460 38 497 65 q 374 -3 422 10 q 274 -17 325 -17 q 165 -5 219 -17 q 67 32 111 7 l 106 114 m 665 988 l 422 810 l 382 871 l 613 1074 l 665 988 z "},"Ŝ":{"ha":676,"x_min":67,"x_max":818,"o":"m 115 129 q 213 80 156 99 q 333 61 271 61 q 430 73 383 61 q 513 110 476 85 q 572 176 550 136 q 594 271 594 215 q 568 361 594 326 q 502 421 542 396 q 416 467 463 446 q 330 519 369 489 q 264 594 290 550 q 238 708 238 638 q 258 808 238 758 q 323 896 279 857 q 433 959 367 935 q 589 983 499 983 q 702 972 649 983 q 818 929 756 960 l 769 850 q 673 891 721 879 q 572 903 625 903 q 484 892 526 903 q 408 860 442 882 q 355 803 375 839 q 335 718 335 768 q 361 628 335 663 q 428 568 388 593 q 514 522 468 543 q 600 470 560 500 q 667 394 640 440 q 693 275 693 349 q 672 167 693 221 q 603 72 650 114 q 485 5 557 31 q 314 -21 414 -21 q 184 -3 247 -21 q 67 47 121 15 l 115 129 m 453 1019 l 417 1065 l 651 1269 l 789 1065 l 742 1019 l 629 1153 l 453 1019 z "},"ŝ":{"ha":556,"x_min":67,"x_max":658,"o":"m 106 114 q 196 76 157 86 q 283 67 235 67 q 350 74 318 67 q 406 97 382 82 q 443 138 429 113 q 457 196 457 163 q 437 256 457 232 q 387 297 417 279 q 322 331 357 314 q 258 369 288 347 q 208 425 228 392 q 188 511 188 458 q 210 613 188 571 q 269 683 232 656 q 356 722 307 710 q 456 735 404 735 q 544 727 500 735 q 628 704 588 719 l 592 624 q 525 644 563 636 q 447 651 488 651 q 383 644 414 651 q 328 622 351 638 q 290 581 304 606 q 275 522 275 557 q 295 463 275 486 q 344 421 315 439 q 409 387 374 403 q 474 349 444 371 q 523 295 503 326 q 543 215 543 264 q 520 110 543 154 q 460 38 497 65 q 374 -3 422 10 q 274 -17 325 -17 q 165 -5 219 -17 q 67 32 111 7 l 106 114 m 322 810 l 286 856 l 521 1060 l 658 856 l 611 810 l 499 943 l 322 810 z "},"Ş":{"ha":676,"x_min":67,"x_max":818,"o":"m 171 -183 q 239 -196 201 -196 q 290 -186 271 -196 q 310 -153 310 -176 q 297 -119 310 -132 q 244 -92 283 -107 q 265 -58 251 -76 q 290 -19 278 -39 q 173 0 231 -17 q 67 47 115 17 l 115 129 q 213 80 156 99 q 333 61 271 61 q 430 73 383 61 q 513 110 476 85 q 572 176 550 136 q 594 271 594 215 q 568 361 594 326 q 502 421 542 396 q 416 467 463 446 q 330 519 369 489 q 264 594 290 550 q 238 708 238 638 q 258 808 238 758 q 323 896 279 857 q 433 959 367 935 q 589 983 499 983 q 702 972 649 983 q 818 929 756 960 l 769 850 q 673 891 721 879 q 572 903 625 903 q 484 892 526 903 q 408 860 442 882 q 355 803 375 839 q 335 718 335 768 q 361 628 335 663 q 428 568 388 593 q 514 522 468 543 q 600 470 560 500 q 667 394 640 440 q 693 275 693 349 q 674 174 693 224 q 614 83 654 124 q 510 15 574 42 q 358 -18 446 -12 q 346 -37 351 -28 q 336 -53 340 -46 q 383 -90 368 -71 q 397 -142 397 -108 q 353 -229 397 -199 q 243 -260 310 -260 q 197 -257 219 -260 q 146 -243 174 -254 l 171 -183 z "},"ş":{"ha":556,"x_min":67,"x_max":628,"o":"m 122 -183 q 190 -196 153 -196 q 242 -186 222 -196 q 261 -153 261 -176 q 248 -119 261 -132 q 196 -92 235 -107 q 217 -56 204 -76 q 244 -15 231 -35 q 151 -1 197 -12 q 67 32 106 10 l 106 114 q 196 76 157 86 q 283 67 235 67 q 350 74 318 67 q 406 97 382 82 q 443 138 429 113 q 457 196 457 163 q 437 255 457 232 q 387 295 417 278 q 322 328 357 313 q 258 367 288 344 q 208 424 228 390 q 188 511 188 458 q 210 613 188 571 q 269 683 232 656 q 356 722 307 710 q 456 735 404 735 q 544 727 500 735 q 628 704 588 719 l 592 624 q 525 644 563 636 q 447 651 488 651 q 383 644 414 651 q 327 622 351 638 q 288 583 303 607 q 274 522 274 558 q 294 463 274 486 q 344 423 314 440 q 408 390 374 406 q 473 351 443 374 q 523 297 503 329 q 543 215 543 265 q 524 119 543 160 q 474 49 506 78 q 401 6 443 21 q 313 -14 358 -10 q 299 -35 306 -25 q 288 -53 292 -44 q 334 -90 319 -71 q 349 -142 349 -108 q 305 -229 349 -199 q 194 -260 261 -260 q 148 -257 171 -260 q 97 -243 125 -254 l 122 -183 z "},"Ţ":{"ha":725,"x_min":172,"x_max":935,"o":"m 528 881 l 233 881 l 251 963 l 935 963 l 915 881 l 622 881 l 411 0 l 399 0 q 378 -28 388 -14 q 363 -53 369 -42 q 409 -90 394 -71 q 424 -142 424 -108 q 380 -229 424 -199 q 269 -260 336 -260 q 223 -257 246 -260 q 172 -243 200 -254 l 197 -183 q 265 -196 228 -196 q 317 -186 297 -196 q 336 -153 336 -176 q 323 -119 336 -132 q 271 -92 310 -107 q 299 -46 281 -72 q 332 0 317 -19 l 317 0 l 528 881 z "},"ţ":{"ha":524,"x_min":146,"x_max":624,"o":"m 171 -183 q 239 -196 201 -196 q 290 -186 271 -196 q 310 -153 310 -176 q 297 -119 310 -132 q 244 -92 283 -107 q 267 -54 253 -75 q 294 -14 281 -33 q 240 1 265 -10 q 197 31 215 11 q 167 81 178 51 q 157 151 157 110 q 176 289 157 211 l 331 929 l 425 946 l 371 718 l 624 718 l 606 640 l 351 640 l 267 289 q 255 235 260 264 q 250 179 250 207 q 281 92 250 117 q 357 67 311 67 q 434 76 401 67 q 503 103 467 86 l 511 21 q 440 -3 479 7 q 360 -15 400 -12 q 347 -36 353 -26 q 336 -53 340 -46 q 383 -90 368 -71 q 397 -142 397 -108 q 353 -229 397 -199 q 243 -260 310 -260 q 197 -257 219 -260 q 146 -243 174 -254 l 171 -183 z "},"Ť":{"ha":731,"x_min":236,"x_max":939,"o":"m 531 881 l 236 881 l 254 963 l 939 963 l 919 881 l 625 881 l 414 0 l 319 0 l 531 881 m 801 1272 l 838 1226 l 603 1022 l 465 1226 l 513 1272 l 625 1139 l 801 1272 z "},"ť":{"ha":524,"x_min":157,"x_max":650,"o":"m 331 929 l 425 946 l 371 718 l 624 718 l 606 640 l 351 640 l 267 289 q 255 235 260 264 q 250 179 250 207 q 281 92 250 117 q 357 67 311 67 q 434 76 401 67 q 503 103 467 86 l 511 21 q 427 -6 474 6 q 335 -17 381 -17 q 267 -8 299 -17 q 210 19 235 0 q 172 71 186 39 q 157 151 157 103 q 176 289 157 211 l 331 929 m 551 1078 l 650 1078 l 556 808 l 485 808 l 551 1078 z "},"Ŧ":{"ha":731,"x_min":236,"x_max":938,"o":"m 429 460 l 258 460 l 275 532 l 447 532 l 531 881 l 236 881 l 254 963 l 938 963 l 918 881 l 625 881 l 542 532 l 728 532 l 711 460 l 524 460 l 414 0 l 319 0 l 429 460 z "},"ŧ":{"ha":524,"x_min":157,"x_max":624,"o":"m 331 929 l 425 946 l 371 718 l 624 718 l 606 640 l 351 640 l 296 413 l 553 413 l 536 340 l 279 340 l 267 289 q 255 235 260 264 q 250 179 250 207 q 281 92 250 117 q 357 67 311 67 q 434 76 401 67 q 503 103 467 86 l 511 21 q 427 -6 474 6 q 335 -17 381 -17 q 267 -8 299 -17 q 210 19 235 0 q 172 71 186 39 q 157 151 157 103 q 176 289 157 211 l 331 929 z "},"Ũ":{"ha":900,"x_min":192,"x_max":1028,"o":"m 347 963 l 442 963 l 301 381 q 290 317 294 349 q 285 257 285 286 q 294 180 285 215 q 328 118 304 144 q 389 76 351 92 q 483 61 426 61 q 596 79 547 61 q 681 135 644 97 q 744 233 718 174 q 792 376 771 293 l 933 963 l 1028 963 l 883 363 q 824 188 858 261 q 740 69 789 115 q 625 0 690 22 q 475 -22 560 -22 q 348 -2 401 -22 q 260 54 294 18 q 208 140 225 90 q 192 250 192 190 q 208 378 192 311 l 347 963 m 796 1085 q 750 1093 769 1085 q 713 1112 731 1101 q 676 1131 694 1122 q 632 1139 657 1139 q 582 1123 601 1139 q 540 1075 563 1107 l 490 1106 q 515 1144 501 1125 q 548 1179 529 1164 q 592 1203 567 1194 q 651 1213 617 1213 q 696 1204 676 1213 q 733 1185 715 1196 q 771 1167 751 1175 q 815 1158 790 1158 q 865 1174 846 1158 q 907 1222 885 1190 l 957 1190 q 932 1151 946 1171 q 899 1117 918 1132 q 856 1094 881 1103 q 796 1085 831 1085 z "},"ũ":{"ha":725,"x_min":136,"x_max":793,"o":"m 344 -17 q 244 -1 285 -17 q 181 41 204 14 q 147 105 157 68 q 136 185 136 142 q 143 270 136 225 q 161 361 150 315 l 247 718 l 338 718 l 261 401 q 237 299 250 353 q 224 197 224 246 q 230 146 224 169 q 251 104 236 122 q 292 76 267 86 q 356 67 317 67 q 473 93 422 67 q 568 169 524 119 q 579 256 568 207 q 600 343 590 304 l 693 718 l 783 718 l 674 274 q 660 208 665 239 q 654 150 654 178 q 661 79 654 113 q 686 6 668 46 l 593 -8 q 578 30 585 8 q 569 74 572 51 q 466 5 521 26 q 344 -17 411 -17 m 632 874 q 586 882 606 874 q 549 901 567 890 q 512 919 531 911 q 468 928 493 928 q 418 912 438 928 q 376 864 399 896 l 326 894 q 351 933 338 914 q 384 968 365 953 q 428 992 403 983 q 488 1001 453 1001 q 532 993 513 1001 q 569 974 551 985 q 607 956 588 964 q 651 947 626 947 q 701 963 682 947 q 743 1011 721 979 l 793 979 q 768 940 782 960 q 735 906 754 921 q 692 883 717 892 q 632 874 667 874 z "},"Ū":{"ha":900,"x_min":192,"x_max":1028,"o":"m 347 963 l 442 963 l 301 381 q 290 317 294 349 q 285 257 285 286 q 294 180 285 215 q 328 118 304 144 q 389 76 351 92 q 483 61 426 61 q 596 79 547 61 q 681 135 644 97 q 744 233 718 174 q 792 376 771 293 l 933 963 l 1028 963 l 883 363 q 824 188 858 261 q 740 69 789 115 q 625 0 690 22 q 475 -22 560 -22 q 348 -2 401 -22 q 260 54 294 18 q 208 140 225 90 q 192 250 192 190 q 208 378 192 311 l 347 963 m 536 1093 l 554 1172 l 914 1172 l 896 1093 l 536 1093 z "},"ū":{"ha":725,"x_min":136,"x_max":783,"o":"m 344 -17 q 244 -1 285 -17 q 181 41 204 14 q 147 105 157 68 q 136 185 136 142 q 143 270 136 225 q 161 361 150 315 l 247 718 l 338 718 l 261 401 q 237 299 250 353 q 224 197 224 246 q 230 146 224 169 q 251 104 236 122 q 292 76 267 86 q 356 67 317 67 q 473 93 422 67 q 568 169 524 119 q 579 256 568 207 q 600 343 590 304 l 693 718 l 783 718 l 674 274 q 660 208 665 239 q 654 150 654 178 q 661 79 654 113 q 686 6 668 46 l 593 -8 q 578 30 585 8 q 569 74 572 51 q 466 5 521 26 q 344 -17 411 -17 m 374 899 l 392 978 l 751 978 l 733 899 l 374 899 z "},"Ŭ":{"ha":900,"x_min":192,"x_max":1028,"o":"m 347 963 l 442 963 l 301 381 q 290 317 294 349 q 285 257 285 286 q 294 180 285 215 q 328 118 304 144 q 389 76 351 92 q 483 61 426 61 q 596 79 547 61 q 681 135 644 97 q 744 233 718 174 q 792 376 771 293 l 933 963 l 1028 963 l 883 363 q 824 188 858 261 q 740 69 789 115 q 625 0 690 22 q 475 -22 560 -22 q 348 -2 401 -22 q 260 54 294 18 q 208 140 225 90 q 192 250 192 190 q 208 378 192 311 l 347 963 m 568 1254 l 626 1254 q 625 1242 625 1247 q 625 1231 625 1236 q 647 1169 625 1192 q 711 1147 668 1147 q 773 1160 749 1147 q 813 1191 797 1174 q 835 1226 828 1208 q 846 1254 843 1244 l 904 1254 q 838 1114 893 1158 q 699 1069 783 1069 q 597 1109 631 1069 q 563 1208 563 1149 q 564 1230 563 1218 q 568 1254 565 1242 z "},"ŭ":{"ha":725,"x_min":136,"x_max":783,"o":"m 344 -17 q 244 -1 285 -17 q 181 41 204 14 q 147 105 157 68 q 136 185 136 142 q 143 270 136 225 q 161 361 150 315 l 247 718 l 338 718 l 261 401 q 237 299 250 353 q 224 197 224 246 q 230 146 224 169 q 251 104 236 122 q 292 76 267 86 q 356 67 317 67 q 473 93 422 67 q 568 169 524 119 q 579 256 568 207 q 600 343 590 304 l 693 718 l 783 718 l 674 274 q 660 208 665 239 q 654 150 654 178 q 661 79 654 113 q 686 6 668 46 l 593 -8 q 578 30 585 8 q 569 74 572 51 q 466 5 521 26 q 344 -17 411 -17 m 418 1036 l 476 1036 q 475 1024 475 1029 q 475 1013 475 1018 q 497 951 475 974 q 561 929 518 929 q 623 942 599 929 q 663 973 647 956 q 685 1008 678 990 q 696 1036 693 1026 l 754 1036 q 688 896 743 940 q 549 851 633 851 q 447 891 481 851 q 413 990 413 931 q 414 1012 413 1000 q 418 1036 415 1024 z "},"Ů":{"ha":900,"x_min":192,"x_max":1028,"o":"m 347 963 l 442 963 l 301 381 q 290 317 294 349 q 285 257 285 286 q 294 180 285 215 q 328 118 304 144 q 389 76 351 92 q 483 61 426 61 q 596 79 547 61 q 681 135 644 97 q 744 233 718 174 q 792 376 771 293 l 933 963 l 1028 963 l 883 363 q 824 188 858 261 q 740 69 789 115 q 625 0 690 22 q 475 -22 560 -22 q 348 -2 401 -22 q 260 54 294 18 q 208 140 225 90 q 192 250 192 190 q 208 378 192 311 l 347 963 m 846 1160 q 835 1105 846 1129 q 807 1063 825 1081 q 765 1036 789 1046 q 714 1026 740 1026 q 620 1063 660 1026 q 581 1160 581 1099 q 620 1256 581 1219 q 714 1292 660 1292 q 765 1282 740 1292 q 807 1255 789 1272 q 835 1213 825 1238 q 846 1160 846 1189 m 793 1160 q 770 1220 793 1199 q 714 1242 747 1242 q 658 1220 681 1242 q 635 1160 635 1199 q 658 1099 635 1119 q 714 1078 681 1078 q 770 1099 747 1078 q 793 1160 793 1119 z "},"ů":{"ha":725,"x_min":136,"x_max":783,"o":"m 344 -17 q 244 -1 285 -17 q 181 41 204 14 q 147 105 157 68 q 136 185 136 142 q 143 270 136 225 q 161 361 150 315 l 247 718 l 338 718 l 261 401 q 237 299 250 353 q 224 197 224 246 q 230 146 224 169 q 251 104 236 122 q 292 76 267 86 q 356 67 317 67 q 473 93 422 67 q 568 169 524 119 q 579 256 568 207 q 600 343 590 304 l 693 718 l 783 718 l 674 274 q 660 208 665 239 q 654 150 654 178 q 661 79 654 113 q 686 6 668 46 l 593 -8 q 578 30 585 8 q 569 74 572 51 q 466 5 521 26 q 344 -17 411 -17 m 681 939 q 670 884 681 908 q 642 842 660 860 q 599 815 624 825 q 549 806 575 806 q 455 842 494 806 q 415 939 415 878 q 455 1035 415 999 q 549 1071 494 1071 q 599 1061 575 1071 q 642 1034 624 1051 q 670 992 660 1017 q 681 939 681 968 m 628 939 q 605 999 628 978 q 549 1021 582 1021 q 492 999 515 1021 q 469 939 469 978 q 492 878 469 899 q 549 857 515 857 q 605 878 582 857 q 628 939 628 899 z "},"Ű":{"ha":900,"x_min":192,"x_max":1028,"o":"m 347 963 l 442 963 l 301 381 q 290 317 294 349 q 285 257 285 286 q 294 180 285 215 q 328 118 304 144 q 389 76 351 92 q 483 61 426 61 q 596 79 547 61 q 681 135 644 97 q 744 233 718 174 q 792 376 771 293 l 933 963 l 1028 963 l 883 363 q 824 188 858 261 q 740 69 789 115 q 625 0 690 22 q 475 -22 560 -22 q 348 -2 401 -22 q 260 54 294 18 q 208 140 225 90 q 192 250 192 190 q 208 378 192 311 l 347 963 m 579 1021 l 538 1067 l 736 1286 l 799 1219 l 579 1021 m 797 1021 l 756 1067 l 954 1286 l 1017 1219 l 797 1021 z "},"ű":{"ha":725,"x_min":136,"x_max":857,"o":"m 344 -17 q 244 -1 285 -17 q 181 41 204 14 q 147 105 157 68 q 136 185 136 142 q 143 270 136 225 q 161 361 150 315 l 247 718 l 338 718 l 261 401 q 237 299 250 353 q 224 197 224 246 q 230 146 224 169 q 251 104 236 122 q 292 76 267 86 q 356 67 317 67 q 473 93 422 67 q 568 169 524 119 q 579 256 568 207 q 600 343 590 304 l 693 718 l 783 718 l 674 274 q 660 208 665 239 q 654 150 654 178 q 661 79 654 113 q 686 6 668 46 l 593 -8 q 578 30 585 8 q 569 74 572 51 q 466 5 521 26 q 344 -17 411 -17 m 419 808 l 378 854 l 576 1074 l 639 1007 l 419 808 m 638 808 l 596 854 l 794 1074 l 857 1007 l 638 808 z "},"Ų":{"ha":900,"x_min":192,"x_max":1028,"o":"m 347 963 l 442 963 l 301 381 q 290 317 294 349 q 285 257 285 286 q 294 180 285 215 q 328 118 304 144 q 389 76 351 92 q 483 61 426 61 q 596 79 547 61 q 681 135 644 97 q 744 233 718 174 q 792 376 771 293 l 933 963 l 1028 963 l 883 363 q 772 105 843 194 q 583 -11 701 15 q 490 -89 517 -56 q 463 -149 463 -122 q 474 -174 463 -165 q 503 -185 486 -182 q 539 -185 521 -187 q 569 -181 557 -183 l 560 -249 q 523 -256 540 -253 q 486 -258 506 -258 q 444 -254 464 -258 q 410 -240 425 -250 q 385 -212 394 -229 q 376 -169 376 -196 q 408 -91 376 -129 q 478 -22 439 -53 l 475 -22 q 348 -2 401 -22 q 260 54 294 18 q 208 140 225 90 q 192 250 192 190 q 208 378 192 311 l 347 963 z "},"ų":{"ha":725,"x_min":136,"x_max":783,"o":"m 344 -17 q 244 -1 285 -17 q 181 41 204 14 q 147 105 157 68 q 136 185 136 142 q 143 270 136 225 q 161 361 150 315 l 247 718 l 338 718 l 261 401 q 237 299 250 353 q 224 197 224 246 q 230 146 224 169 q 251 104 236 122 q 292 76 267 86 q 356 67 317 67 q 473 93 422 67 q 568 169 524 119 q 579 256 568 207 q 600 343 590 304 l 693 718 l 783 718 l 674 274 q 660 208 665 239 q 654 150 654 178 q 661 79 654 113 q 686 6 668 46 q 574 -83 608 -44 q 540 -149 540 -121 q 552 -174 540 -165 q 581 -185 564 -182 q 617 -185 599 -187 q 647 -181 635 -183 l 638 -249 q 601 -256 618 -253 q 564 -258 583 -258 q 522 -254 542 -258 q 488 -240 503 -250 q 463 -212 472 -229 q 454 -169 454 -196 q 467 -121 454 -144 q 499 -75 479 -97 q 542 -33 518 -53 q 588 1 565 -14 q 569 74 574 36 q 466 5 521 26 q 344 -17 411 -17 z "},"Ŵ":{"ha":1204,"x_min":233,"x_max":1413,"o":"m 257 0 q 237 475 233 236 q 256 963 240 714 l 347 963 q 328 538 333 753 q 332 104 324 324 q 441 278 390 196 q 542 445 492 360 q 644 626 592 531 q 761 839 697 721 l 844 839 q 861 632 851 735 q 881 434 871 529 q 903 255 892 339 q 926 106 915 171 q 1021 287 972 186 q 1118 499 1069 388 q 1215 728 1167 610 q 1310 963 1264 846 l 1413 963 q 1189 445 1300 682 q 960 0 1078 208 l 860 0 q 811 319 833 146 q 774 693 789 492 q 569 338 671 506 q 357 0 467 169 l 257 0 m 703 1004 l 667 1050 l 901 1254 l 1039 1050 l 992 1004 l 879 1138 l 703 1004 z "},"ŵ":{"ha":1060,"x_min":181,"x_max":1199,"o":"m 342 0 l 247 0 q 201 335 218 153 q 181 718 183 517 l 269 718 q 275 558 271 644 q 286 385 279 471 q 301 222 293 299 q 321 94 310 146 q 412 233 365 157 q 501 392 458 310 q 580 558 543 475 q 642 718 617 642 l 735 718 q 738 569 735 650 q 747 406 742 489 q 760 242 753 322 q 778 94 768 161 q 859 208 811 132 q 956 373 907 283 q 1047 554 1004 463 q 1110 718 1089 646 l 1199 718 q 1115 508 1167 615 q 1006 303 1064 400 q 892 127 949 207 q 792 0 835 47 l 697 0 q 671 264 683 122 q 656 543 658 406 q 591 403 628 478 q 513 256 554 329 q 427 117 471 183 q 342 0 383 50 m 558 810 l 522 856 l 757 1060 l 894 856 l 847 810 l 735 943 l 558 810 z "},"Ŷ":{"ha":771,"x_min":250,"x_max":993,"o":"m 431 389 q 380 535 404 460 q 333 683 356 610 q 289 828 310 757 q 250 963 268 900 l 353 963 q 417 716 381 843 q 497 479 453 589 q 597 593 544 532 q 701 718 650 654 q 799 844 753 782 q 881 963 844 907 l 993 963 q 776 686 897 835 q 525 389 656 538 l 433 0 l 339 0 l 431 389 m 475 1004 l 439 1050 l 674 1254 l 811 1050 l 764 1004 l 651 1138 l 475 1004 z "},"ŷ":{"ha":628,"x_min":-82,"x_max":753,"o":"m -50 -161 q 35 -182 -12 -182 q 174 -143 106 -182 q 300 -25 242 -104 q 208 350 242 160 q 169 718 175 540 l 264 718 q 273 572 267 651 q 292 407 279 493 q 322 231 304 321 q 367 57 340 142 q 479 256 429 156 q 567 446 529 357 q 628 606 604 535 q 664 718 653 678 l 753 718 q 722 619 744 689 q 663 456 700 549 q 572 255 625 363 q 449 44 518 147 q 242 -188 342 -115 q 33 -261 142 -261 q -21 -257 8 -261 q -82 -236 -50 -253 l -50 -161 m 326 810 l 290 856 l 525 1060 l 663 856 l 615 810 l 503 943 l 326 810 z "},"Ź":{"ha":760,"x_min":56,"x_max":926,"o":"m 71 71 q 167 197 111 128 q 288 340 224 265 q 422 492 353 415 q 557 640 490 568 q 685 773 624 711 q 794 881 746 835 l 290 881 l 310 963 l 926 963 l 907 876 q 811 785 867 840 q 691 663 756 729 q 558 522 626 597 q 423 372 490 447 q 294 222 356 296 q 185 82 233 147 l 722 82 l 704 0 l 56 0 l 71 71 m 806 1196 l 563 1018 l 522 1079 l 753 1282 l 806 1196 z "},"ź":{"ha":594,"x_min":56,"x_max":733,"o":"m 71 64 q 140 161 99 108 q 230 268 182 214 q 329 376 278 322 q 430 479 381 431 q 523 569 479 528 q 600 640 567 611 l 226 640 l 243 718 l 733 718 l 717 647 q 642 578 688 621 q 543 483 596 535 q 435 373 490 431 q 328 261 379 315 q 238 159 278 207 q 176 78 197 111 l 586 78 l 569 0 l 56 0 l 71 64 m 686 988 l 443 810 l 403 871 l 633 1074 l 686 988 z "},"Ż":{"ha":760,"x_min":56,"x_max":926,"o":"m 71 71 q 167 197 111 128 q 288 340 224 265 q 422 492 353 415 q 557 640 490 568 q 685 773 624 711 q 794 881 746 835 l 290 881 l 310 963 l 926 963 l 907 876 q 811 785 867 840 q 691 663 756 729 q 558 522 626 597 q 423 372 490 447 q 294 222 356 296 q 185 82 233 147 l 722 82 l 704 0 l 56 0 l 71 71 m 654 1076 q 603 1096 618 1076 q 588 1140 588 1115 q 608 1196 588 1169 q 664 1222 628 1222 q 715 1203 700 1222 q 731 1158 731 1183 q 710 1103 731 1129 q 654 1076 690 1076 z "},"ż":{"ha":594,"x_min":56,"x_max":733,"o":"m 71 64 q 140 161 99 108 q 230 268 182 214 q 329 376 278 322 q 430 479 381 431 q 523 569 479 528 q 600 640 567 611 l 226 640 l 243 718 l 733 718 l 717 647 q 642 578 688 621 q 543 483 596 535 q 435 373 490 431 q 328 261 379 315 q 238 159 278 207 q 176 78 197 111 l 586 78 l 569 0 l 56 0 l 71 64 m 522 863 q 471 882 486 863 q 456 926 456 901 q 476 982 456 956 q 532 1008 496 1008 q 583 989 568 1008 q 599 944 599 969 q 578 889 599 915 q 522 863 558 863 z "},"Ž":{"ha":760,"x_min":56,"x_max":926,"o":"m 71 71 q 167 197 111 128 q 288 340 224 265 q 422 492 353 415 q 557 640 490 568 q 685 773 624 711 q 794 881 746 835 l 290 881 l 310 963 l 926 963 l 907 876 q 811 785 867 840 q 691 663 756 729 q 558 522 626 597 q 423 372 490 447 q 294 222 356 296 q 185 82 233 147 l 722 82 l 704 0 l 56 0 l 71 71 m 797 1269 l 833 1224 l 599 1019 l 461 1224 l 508 1269 l 621 1136 l 797 1269 z "},"ž":{"ha":594,"x_min":56,"x_max":733,"o":"m 71 64 q 140 161 99 108 q 230 268 182 214 q 329 376 278 322 q 430 479 381 431 q 523 569 479 528 q 600 640 567 611 l 226 640 l 243 718 l 733 718 l 717 647 q 642 578 688 621 q 543 483 596 535 q 435 373 490 431 q 328 261 379 315 q 238 159 278 207 q 176 78 197 111 l 586 78 l 569 0 l 56 0 l 71 64 m 671 1060 l 707 1014 l 472 810 l 335 1014 l 382 1060 l 494 926 l 671 1060 z "},"ſ":{"ha":340,"x_min":-19,"x_max":760,"o":"m 238 142 q 205 19 221 75 q 169 -86 189 -37 q 122 -178 149 -135 q 60 -262 96 -221 l -19 -250 q 40 -163 15 -203 q 81 -85 64 -124 q 110 -6 97 -46 q 133 81 122 33 l 306 796 q 358 933 325 879 q 431 1019 390 988 q 519 1065 472 1051 q 615 1078 567 1078 q 697 1069 663 1078 q 760 1050 731 1061 l 717 978 q 662 993 688 988 q 601 999 636 999 q 535 989 565 999 q 478 956 504 979 q 431 892 451 932 q 396 793 410 853 l 238 142 z "},"Ș":{"ha":676,"x_min":67,"x_max":818,"o":"m 115 129 q 213 80 156 99 q 333 61 271 61 q 430 73 383 61 q 513 110 476 85 q 572 176 550 136 q 594 271 594 215 q 568 361 594 326 q 502 421 542 396 q 416 467 463 446 q 330 519 369 489 q 264 594 290 550 q 238 708 238 638 q 258 808 238 758 q 323 896 279 857 q 433 959 367 935 q 589 983 499 983 q 702 972 649 983 q 818 929 756 960 l 769 850 q 673 891 721 879 q 572 903 625 903 q 484 892 526 903 q 408 860 442 882 q 355 803 375 839 q 335 718 335 768 q 361 628 335 663 q 428 568 388 593 q 514 522 468 543 q 600 470 560 500 q 667 394 640 440 q 693 275 693 349 q 672 167 693 221 q 603 72 650 114 q 485 5 557 31 q 314 -21 414 -21 q 184 -3 247 -21 q 67 47 121 15 l 115 129 m 153 -193 q 203 -188 182 -197 q 237 -162 224 -179 q 258 -121 250 -144 q 274 -69 267 -97 l 374 -69 q 349 -147 368 -110 q 300 -212 331 -185 q 228 -253 269 -240 q 138 -253 188 -265 l 153 -193 z "},"ș":{"ha":556,"x_min":67,"x_max":628,"o":"m 106 114 q 196 76 157 86 q 283 67 235 67 q 350 74 318 67 q 406 97 382 82 q 443 138 429 113 q 457 196 457 163 q 437 256 457 232 q 387 297 417 279 q 322 331 357 314 q 258 369 288 347 q 208 425 228 392 q 188 511 188 458 q 210 613 188 571 q 269 683 232 656 q 356 722 307 710 q 456 735 404 735 q 544 727 500 735 q 628 704 588 719 l 592 624 q 525 644 563 636 q 447 651 488 651 q 383 644 414 651 q 328 622 351 638 q 290 581 304 606 q 275 522 275 557 q 295 463 275 486 q 344 421 315 439 q 409 387 374 403 q 474 349 444 371 q 523 295 503 326 q 543 215 543 264 q 520 110 543 154 q 460 38 497 65 q 374 -3 422 10 q 274 -17 325 -17 q 165 -5 219 -17 q 67 32 111 7 l 106 114 m 83 -193 q 133 -188 113 -197 q 167 -162 154 -179 q 189 -121 181 -144 q 204 -69 197 -97 l 304 -69 q 280 -147 299 -110 q 231 -212 261 -185 q 159 -253 200 -240 q 68 -253 118 -265 l 83 -193 z "},"Ț":{"ha":731,"x_min":165,"x_max":939,"o":"m 531 881 l 236 881 l 254 963 l 939 963 l 919 881 l 625 881 l 414 0 l 319 0 l 531 881 m 181 -193 q 231 -188 210 -197 q 265 -162 251 -179 q 286 -121 278 -144 q 301 -69 294 -97 l 401 -69 q 377 -147 396 -110 q 328 -212 358 -185 q 256 -253 297 -240 q 165 -253 215 -265 l 181 -193 z "},"ț":{"ha":524,"x_min":114,"x_max":624,"o":"m 331 929 l 425 946 l 371 718 l 624 718 l 606 640 l 351 640 l 267 289 q 255 235 260 264 q 250 179 250 207 q 281 92 250 117 q 357 67 311 67 q 434 76 401 67 q 503 103 467 86 l 511 21 q 427 -6 474 6 q 335 -17 381 -17 q 267 -8 299 -17 q 210 19 235 0 q 172 71 186 39 q 157 151 157 103 q 176 289 157 211 l 331 929 m 129 -193 q 179 -188 158 -197 q 213 -162 200 -179 q 235 -121 226 -144 q 250 -69 243 -97 l 350 -69 q 326 -147 344 -110 q 276 -212 307 -185 q 205 -253 246 -240 q 114 -253 164 -265 l 129 -193 z "},"ȷ":{"ha":326,"x_min":-140,"x_max":393,"o":"m -119 -160 q -77 -176 -97 -171 q -31 -182 -57 -182 q 33 -167 7 -182 q 80 -124 60 -151 q 113 -60 100 -97 q 138 22 126 -22 l 303 718 l 393 718 l 231 39 q 191 -92 213 -36 q 138 -186 169 -149 q 63 -242 107 -224 q -42 -261 19 -261 q -101 -253 -76 -261 q -140 -236 -125 -246 l -119 -160 z "},"ʼ":{"ha":328,"x_min":261,"x_max":482,"o":"m 261 814 q 308 881 286 846 q 345 952 329 917 q 370 1020 361 988 q 381 1078 379 1053 l 482 1078 q 426 935 467 1004 q 322 790 385 865 l 261 814 z "},"ˇ":{"ha":467,"x_min":278,"x_max":650,"o":"m 614 1060 l 650 1014 l 415 810 l 278 1014 l 325 1060 l 438 926 l 614 1060 z "},"ˉ":{"ha":467,"x_min":244,"x_max":622,"o":"m 244 899 l 263 978 l 622 978 l 604 899 l 244 899 z "},"˘":{"ha":467,"x_min":303,"x_max":644,"o":"m 308 1036 l 367 1036 q 365 1024 365 1029 q 365 1013 365 1018 q 387 951 365 974 q 451 929 408 929 q 513 942 489 929 q 553 973 538 956 q 576 1008 568 990 q 586 1036 583 1026 l 644 1036 q 578 896 633 940 q 439 851 524 851 q 337 891 371 851 q 303 990 303 931 q 304 1012 303 1000 q 308 1036 306 1024 z "},"˙":{"ha":467,"x_min":372,"x_max":515,"o":"m 439 863 q 388 882 403 863 q 372 926 372 901 q 392 982 372 956 q 449 1008 413 1008 q 500 989 485 1008 q 515 944 515 969 q 495 889 515 915 q 439 863 475 863 z "},"˚":{"ha":467,"x_min":303,"x_max":568,"o":"m 568 939 q 558 884 568 908 q 529 842 547 860 q 487 815 511 825 q 436 806 463 806 q 342 842 382 806 q 303 939 303 878 q 342 1035 303 999 q 436 1071 382 1071 q 487 1061 463 1071 q 529 1034 511 1051 q 558 992 547 1017 q 568 939 568 968 m 515 939 q 492 999 515 978 q 436 1021 469 1021 q 380 999 403 1021 q 357 939 357 978 q 380 878 357 899 q 436 857 403 857 q 492 878 469 857 q 515 939 515 899 z "},"˛":{"ha":467,"x_min":68,"x_max":301,"o":"m 68 -169 q 81 -119 68 -144 q 115 -72 94 -94 q 160 -30 136 -50 q 208 6 185 -10 l 301 6 q 187 -84 219 -47 q 154 -149 154 -121 q 166 -174 154 -165 q 195 -185 178 -182 q 231 -185 213 -187 q 261 -181 249 -183 l 251 -249 q 215 -256 232 -253 q 178 -258 197 -258 q 136 -254 156 -258 q 101 -240 117 -250 q 77 -212 86 -229 q 68 -169 68 -196 z "},"˝":{"ha":467,"x_min":219,"x_max":699,"o":"m 261 808 l 219 854 l 418 1074 l 481 1007 l 261 808 m 479 808 l 438 854 l 636 1074 l 699 1007 l 479 808 z "},"Ẁ":{"ha":1204,"x_min":233,"x_max":1413,"o":"m 257 0 q 237 475 233 236 q 256 963 240 714 l 347 963 q 328 538 333 753 q 332 104 324 324 q 441 278 390 196 q 542 445 492 360 q 644 626 592 531 q 761 839 697 721 l 844 839 q 861 632 851 735 q 881 434 871 529 q 903 255 892 339 q 926 106 915 171 q 1021 287 972 186 q 1118 499 1069 388 q 1215 728 1167 610 q 1310 963 1264 846 l 1413 963 q 1189 445 1300 682 q 960 0 1078 208 l 860 0 q 811 319 833 146 q 774 693 789 492 q 569 338 671 506 q 357 0 467 169 l 257 0 m 760 1289 l 963 1074 l 914 1025 l 686 1208 l 760 1289 z "},"ẁ":{"ha":1060,"x_min":181,"x_max":1199,"o":"m 342 0 l 247 0 q 201 335 218 153 q 181 718 183 517 l 269 718 q 275 558 271 644 q 286 385 279 471 q 301 222 293 299 q 321 94 310 146 q 412 233 365 157 q 501 392 458 310 q 580 558 543 475 q 642 718 617 642 l 735 718 q 738 569 735 650 q 747 406 742 489 q 760 242 753 322 q 778 94 768 161 q 859 208 811 132 q 956 373 907 283 q 1047 554 1004 463 q 1110 718 1089 646 l 1199 718 q 1115 508 1167 615 q 1006 303 1064 400 q 892 127 949 207 q 792 0 835 47 l 697 0 q 671 264 683 122 q 656 543 658 406 q 591 403 628 478 q 513 256 554 329 q 427 117 471 183 q 342 0 383 50 m 638 1074 l 840 858 l 792 810 l 564 993 l 638 1074 z "},"Ẃ":{"ha":1204,"x_min":233,"x_max":1413,"o":"m 257 0 q 237 475 233 236 q 256 963 240 714 l 347 963 q 328 538 333 753 q 332 104 324 324 q 441 278 390 196 q 542 445 492 360 q 644 626 592 531 q 761 839 697 721 l 844 839 q 861 632 851 735 q 881 434 871 529 q 903 255 892 339 q 926 106 915 171 q 1021 287 972 186 q 1118 499 1069 388 q 1215 728 1167 610 q 1310 963 1264 846 l 1413 963 q 1189 445 1300 682 q 960 0 1078 208 l 860 0 q 811 319 833 146 q 774 693 789 492 q 569 338 671 506 q 357 0 467 169 l 257 0 m 1032 1203 l 789 1025 l 749 1086 l 979 1289 l 1032 1203 z "},"ẃ":{"ha":1060,"x_min":181,"x_max":1199,"o":"m 342 0 l 247 0 q 201 335 218 153 q 181 718 183 517 l 269 718 q 275 558 271 644 q 286 385 279 471 q 301 222 293 299 q 321 94 310 146 q 412 233 365 157 q 501 392 458 310 q 580 558 543 475 q 642 718 617 642 l 735 718 q 738 569 735 650 q 747 406 742 489 q 760 242 753 322 q 778 94 768 161 q 859 208 811 132 q 956 373 907 283 q 1047 554 1004 463 q 1110 718 1089 646 l 1199 718 q 1115 508 1167 615 q 1006 303 1064 400 q 892 127 949 207 q 792 0 835 47 l 697 0 q 671 264 683 122 q 656 543 658 406 q 591 403 628 478 q 513 256 554 329 q 427 117 471 183 q 342 0 383 50 m 899 988 l 656 810 l 615 871 l 846 1074 l 899 988 z "},"Ẅ":{"ha":1204,"x_min":233,"x_max":1413,"o":"m 257 0 q 237 475 233 236 q 256 963 240 714 l 347 963 q 328 538 333 753 q 332 104 324 324 q 441 278 390 196 q 542 445 492 360 q 644 626 592 531 q 761 839 697 721 l 844 839 q 861 632 851 735 q 881 434 871 529 q 903 255 892 339 q 926 106 915 171 q 1021 287 972 186 q 1118 499 1069 388 q 1215 728 1167 610 q 1310 963 1264 846 l 1413 963 q 1189 445 1300 682 q 960 0 1078 208 l 860 0 q 811 319 833 146 q 774 693 789 492 q 569 338 671 506 q 357 0 467 169 l 257 0 m 993 1089 q 947 1106 961 1089 q 932 1147 932 1124 q 951 1199 932 1175 q 1003 1222 969 1222 q 1048 1204 1033 1222 q 1063 1164 1063 1186 q 1044 1113 1063 1138 q 993 1089 1026 1089 m 753 1089 q 708 1106 722 1089 q 693 1147 693 1124 q 711 1199 693 1175 q 763 1222 729 1222 q 809 1204 794 1222 q 824 1164 824 1186 q 805 1113 824 1138 q 753 1089 786 1089 z "},"ẅ":{"ha":1060,"x_min":181,"x_max":1199,"o":"m 342 0 l 247 0 q 201 335 218 153 q 181 718 183 517 l 269 718 q 275 558 271 644 q 286 385 279 471 q 301 222 293 299 q 321 94 310 146 q 412 233 365 157 q 501 392 458 310 q 580 558 543 475 q 642 718 617 642 l 735 718 q 738 569 735 650 q 747 406 742 489 q 760 242 753 322 q 778 94 768 161 q 859 208 811 132 q 956 373 907 283 q 1047 554 1004 463 q 1110 718 1089 646 l 1199 718 q 1115 508 1167 615 q 1006 303 1064 400 q 892 127 949 207 q 792 0 835 47 l 697 0 q 671 264 683 122 q 656 543 658 406 q 591 403 628 478 q 513 256 554 329 q 427 117 471 183 q 342 0 383 50 m 843 868 q 797 885 811 868 q 782 926 782 903 q 801 978 782 954 q 853 1001 819 1001 q 898 983 883 1001 q 913 943 913 965 q 894 892 913 917 q 843 868 876 868 m 603 868 q 558 885 572 868 q 543 926 543 903 q 561 978 543 954 q 613 1001 579 1001 q 659 983 644 1001 q 674 943 674 965 q 655 892 674 917 q 603 868 636 868 z "},"Ỳ":{"ha":771,"x_min":250,"x_max":993,"o":"m 431 389 q 380 535 404 460 q 333 683 356 610 q 289 828 310 757 q 250 963 268 900 l 353 963 q 417 716 381 843 q 497 479 453 589 q 597 593 544 532 q 701 718 650 654 q 799 844 753 782 q 881 963 844 907 l 993 963 q 776 686 897 835 q 525 389 656 538 l 433 0 l 339 0 l 431 389 m 531 1282 l 733 1067 l 685 1018 l 457 1201 l 531 1282 z "},"ỳ":{"ha":628,"x_min":-82,"x_max":753,"o":"m -50 -161 q 35 -182 -12 -182 q 174 -143 106 -182 q 300 -25 242 -104 q 208 350 242 160 q 169 718 175 540 l 264 718 q 273 572 267 651 q 292 407 279 493 q 322 231 304 321 q 367 57 340 142 q 479 256 429 156 q 567 446 529 357 q 628 606 604 535 q 664 718 653 678 l 753 718 q 722 619 744 689 q 663 456 700 549 q 572 255 625 363 q 449 44 518 147 q 242 -188 342 -115 q 33 -261 142 -261 q -21 -257 8 -261 q -82 -236 -50 -253 l -50 -161 m 376 1074 l 579 858 l 531 810 l 303 993 l 376 1074 z "},"⁄":{"ha":238,"x_min":-194,"x_max":682,"o":"m 585 963 l 682 963 l -97 0 l -194 0 l 585 963 z "},"⁰":{"ha":504,"x_min":201,"x_max":629,"o":"m 201 600 q 226 763 201 692 q 290 883 251 835 q 377 958 329 932 q 471 983 425 983 q 528 973 500 983 q 579 942 557 963 q 615 888 601 921 q 629 811 629 856 q 604 648 629 719 q 540 528 579 576 q 453 453 501 479 q 360 428 406 428 q 302 438 331 428 q 251 469 274 449 q 215 523 229 490 q 201 600 201 556 m 550 796 q 531 885 550 854 q 463 915 511 915 q 380 882 414 915 q 324 801 346 849 q 291 701 301 753 q 281 615 281 650 q 300 526 281 557 q 368 496 319 496 q 450 529 415 496 q 507 610 485 563 q 540 709 529 658 q 550 796 550 760 z "},"⁴":{"ha":504,"x_min":190,"x_max":618,"o":"m 190 574 l 201 619 q 264 703 224 654 q 353 801 304 751 q 454 897 401 851 q 553 971 507 942 l 618 971 l 538 635 l 604 635 l 589 574 l 524 574 l 492 440 l 418 440 l 449 574 l 190 574 m 465 635 l 525 885 q 398 769 461 835 q 283 635 335 703 l 465 635 z "},"⁵":{"ha":504,"x_min":181,"x_max":643,"o":"m 210 524 q 273 501 238 508 q 344 493 308 493 q 404 499 375 493 q 456 519 433 506 q 491 556 478 533 q 504 608 504 578 q 497 647 504 629 q 465 677 489 664 q 397 698 442 690 q 276 707 351 706 q 322 833 300 769 q 365 971 344 896 l 643 971 l 625 904 l 414 904 q 392 835 406 875 q 365 767 378 794 q 527 726 475 760 q 579 614 579 693 q 558 528 579 564 q 503 472 538 493 q 423 440 468 450 q 331 429 378 429 q 181 460 238 429 l 210 524 z "},"⁶":{"ha":504,"x_min":222,"x_max":629,"o":"m 624 910 q 434 862 510 908 q 324 740 358 815 q 390 763 356 754 q 457 771 425 771 q 522 759 494 771 q 567 727 549 747 q 593 681 585 707 q 601 628 601 656 q 585 542 601 579 q 540 480 568 506 q 473 441 511 454 q 392 428 435 428 q 326 438 357 428 q 272 469 294 447 q 235 524 249 490 q 222 606 222 557 q 254 758 222 690 q 342 874 286 826 q 472 948 397 922 q 629 976 546 974 l 624 910 m 435 710 q 365 700 399 710 q 303 679 331 690 q 298 644 300 663 q 296 607 296 626 q 301 567 296 588 q 317 529 306 546 q 347 502 328 513 q 393 492 365 492 q 449 503 425 492 q 490 531 474 514 q 515 572 507 549 q 524 619 524 594 q 435 710 524 710 z "},"⁷":{"ha":504,"x_min":264,"x_max":681,"o":"m 264 440 q 317 567 285 503 q 390 693 350 632 q 475 808 431 754 q 563 901 519 861 l 294 901 l 311 971 l 681 971 l 668 917 q 593 845 638 892 q 501 736 549 799 q 410 599 454 674 q 338 440 367 524 l 264 440 z "},"⁸":{"ha":504,"x_min":210,"x_max":636,"o":"m 210 551 q 242 642 210 596 q 346 717 275 689 q 303 753 319 732 q 286 810 286 774 q 303 878 286 846 q 349 933 319 910 q 416 970 378 957 q 497 983 454 983 q 602 951 568 983 q 636 874 636 918 q 606 784 636 829 q 519 710 576 739 q 569 672 549 694 q 590 610 590 649 q 571 533 590 567 q 519 476 551 499 q 445 440 486 453 q 363 428 404 428 q 247 465 285 428 q 210 551 210 501 m 518 597 q 507 633 518 618 q 478 658 496 647 q 438 678 461 669 q 393 694 415 686 q 353 674 374 686 q 317 644 333 661 q 292 607 301 628 q 282 561 282 586 q 286 535 282 549 q 301 513 290 522 q 331 497 313 503 q 378 490 350 490 q 442 500 415 490 q 485 526 468 510 q 510 560 501 542 q 518 597 518 579 m 358 815 q 367 785 358 797 q 392 763 376 772 q 426 747 407 754 q 467 731 446 739 q 501 752 483 739 q 533 781 518 765 q 556 817 547 797 q 565 860 565 836 q 546 903 565 885 q 482 922 526 922 q 392 892 425 922 q 358 815 358 861 z "},"⁹":{"ha":504,"x_min":208,"x_max":635,"o":"m 219 504 q 425 549 347 504 q 536 672 503 594 q 467 649 501 657 q 400 640 432 640 q 335 652 363 640 q 290 683 308 664 q 264 729 272 703 q 256 783 256 756 q 272 868 256 831 q 317 931 289 906 q 384 970 346 957 q 465 983 422 983 q 531 974 500 983 q 585 943 563 964 q 622 888 608 922 q 635 806 635 854 q 604 651 635 719 q 517 536 574 583 q 383 463 461 489 q 208 438 304 438 l 219 504 m 422 701 q 492 710 458 701 q 554 731 526 719 q 560 767 558 749 q 561 804 561 785 q 556 846 561 825 q 540 883 551 867 q 510 909 529 899 q 464 919 492 919 q 408 908 432 919 q 367 880 383 897 q 342 840 350 863 q 333 792 333 817 q 422 701 333 701 z "},"₀":{"ha":504,"x_min":106,"x_max":533,"o":"m 106 154 q 131 317 106 246 q 194 438 156 389 q 281 512 233 486 q 375 538 329 538 q 433 527 404 538 q 483 496 461 517 q 519 442 506 475 q 533 365 533 410 q 508 202 533 274 q 444 82 483 131 q 358 8 406 33 q 264 -18 310 -18 q 206 -8 235 -18 q 156 24 178 3 q 119 77 133 44 q 106 154 106 110 m 454 350 q 435 439 454 408 q 367 469 415 469 q 284 436 318 469 q 228 355 250 403 q 195 256 206 307 q 185 169 185 204 q 204 81 185 111 q 272 50 224 50 q 354 83 319 50 q 411 165 389 117 q 444 263 433 213 q 454 350 454 314 z "},"₁":{"ha":504,"x_min":218,"x_max":476,"o":"m 275 -6 l 378 422 q 293 378 338 394 q 229 357 249 363 l 218 415 q 335 465 286 439 q 426 525 383 490 l 476 525 l 350 -6 l 275 -6 z "},"₂":{"ha":504,"x_min":113,"x_max":533,"o":"m 113 -6 q 144 101 117 57 q 209 176 171 144 q 290 233 247 208 q 370 281 333 257 q 431 333 407 306 q 456 401 456 361 q 434 453 456 436 q 381 471 413 471 q 301 457 338 471 q 239 424 264 443 l 213 475 q 294 523 253 508 q 382 538 336 538 q 438 531 411 538 q 487 510 465 525 q 521 470 508 496 q 533 407 533 444 q 510 328 533 363 q 453 265 488 293 q 378 213 419 238 q 299 165 336 189 q 235 117 263 142 q 200 61 207 92 l 464 61 l 447 -6 l 113 -6 z "},"₃":{"ha":504,"x_min":90,"x_max":519,"o":"m 119 78 q 178 57 144 64 q 246 50 211 50 q 365 81 321 50 q 408 163 408 113 q 373 227 408 207 q 254 247 338 247 l 246 247 l 261 310 l 292 310 q 406 340 367 310 q 444 411 444 371 q 363 472 444 472 q 289 462 326 472 q 231 440 251 451 l 215 496 q 292 526 250 515 q 379 538 335 538 q 485 503 450 538 q 519 422 519 468 q 490 341 519 382 q 403 278 461 300 q 467 233 447 263 q 486 167 486 203 q 472 102 486 135 q 429 43 458 69 q 353 0 400 17 q 242 -17 307 -17 q 162 -8 201 -17 q 90 17 122 0 l 119 78 z "},"₄":{"ha":504,"x_min":96,"x_max":524,"o":"m 96 128 l 107 174 q 169 257 129 208 q 258 356 210 306 q 360 451 307 406 q 458 525 413 496 l 524 525 l 443 189 l 510 189 l 494 128 l 429 128 l 397 -6 l 324 -6 l 354 128 l 96 128 m 371 189 l 431 439 q 303 323 367 389 q 189 189 240 257 l 371 189 z "},"₅":{"ha":504,"x_min":78,"x_max":540,"o":"m 107 78 q 170 55 135 63 q 242 47 206 47 q 301 53 272 47 q 353 74 331 60 q 388 110 375 88 q 401 163 401 132 q 394 201 401 183 q 363 231 386 218 q 294 252 339 244 q 174 261 249 260 q 219 387 197 324 q 263 525 242 450 l 540 525 l 522 458 l 311 458 q 289 389 303 429 q 263 321 275 349 q 424 281 372 314 q 476 168 476 247 q 456 83 476 118 q 400 26 435 47 q 320 -6 365 4 q 228 -17 275 -17 q 78 14 135 -17 l 107 78 z "},"₆":{"ha":504,"x_min":115,"x_max":522,"o":"m 517 464 q 327 416 403 463 q 217 294 251 369 q 283 317 249 308 q 350 325 318 325 q 415 313 388 325 q 460 281 442 301 q 486 235 478 261 q 494 182 494 210 q 478 97 494 133 q 433 34 461 60 q 366 -5 404 8 q 285 -18 328 -18 q 219 -8 250 -18 q 165 23 188 1 q 128 78 142 44 q 115 160 115 111 q 147 313 115 244 q 235 428 179 381 q 365 502 290 476 q 522 531 439 528 l 517 464 m 328 264 q 258 254 292 264 q 196 233 224 244 q 191 199 193 217 q 189 161 189 181 q 194 121 189 142 q 210 83 199 100 q 240 56 221 67 q 286 46 258 46 q 342 57 318 46 q 383 85 367 68 q 408 126 400 103 q 417 174 417 149 q 328 264 417 264 z "},"₇":{"ha":504,"x_min":172,"x_max":589,"o":"m 172 -6 q 226 122 193 57 q 299 247 258 186 q 383 362 339 308 q 471 456 428 415 l 203 456 l 219 525 l 589 525 l 576 471 q 501 399 546 446 q 410 290 457 353 q 319 153 363 228 q 246 -6 275 78 l 172 -6 z "},"₈":{"ha":504,"x_min":111,"x_max":538,"o":"m 111 106 q 144 197 111 150 q 247 271 176 243 q 204 307 221 286 q 188 364 188 328 q 204 432 188 400 q 250 488 221 464 q 317 524 279 511 q 399 538 356 538 q 503 505 469 538 q 538 428 538 472 q 508 338 538 383 q 421 264 478 293 q 471 226 450 249 q 492 164 492 203 q 472 87 492 121 q 420 30 453 53 q 347 -6 388 7 q 264 -18 306 -18 q 149 19 186 -18 q 111 106 111 56 m 419 151 q 408 187 419 172 q 380 213 397 201 q 340 232 363 224 q 294 249 317 240 q 255 228 275 240 q 219 199 235 215 q 193 161 203 182 q 183 115 183 140 q 188 90 183 103 q 203 67 192 76 q 233 51 214 57 q 279 44 251 44 q 343 54 317 44 q 386 80 369 64 q 411 115 403 96 q 419 151 419 133 m 260 369 q 269 339 260 351 q 293 317 278 326 q 328 301 308 308 q 368 285 347 293 q 402 306 385 293 q 434 335 419 319 q 458 371 449 351 q 467 414 467 390 q 447 458 467 439 q 383 476 428 476 q 293 446 326 476 q 260 369 260 415 z "},"₉":{"ha":504,"x_min":94,"x_max":521,"o":"m 106 58 q 311 103 233 58 q 422 226 389 149 q 353 203 388 211 q 286 194 318 194 q 222 206 249 194 q 176 238 194 218 q 150 283 158 257 q 142 338 142 310 q 158 422 142 385 q 203 485 175 460 q 270 524 232 511 q 351 538 308 538 q 417 528 386 538 q 472 497 449 518 q 508 442 494 476 q 521 360 521 408 q 490 206 521 274 q 403 90 460 138 q 269 17 347 43 q 94 -8 190 -8 l 106 58 m 308 256 q 378 265 344 256 q 440 285 413 274 q 446 321 444 303 q 447 358 447 339 q 442 400 447 379 q 426 437 438 421 q 397 463 415 453 q 350 474 378 474 q 294 463 318 474 q 253 434 269 451 q 228 394 236 417 q 219 346 219 371 q 308 256 219 256 z "},"ℓ":{"ha":581,"x_min":100,"x_max":643,"o":"m 100 242 l 249 347 l 249 663 q 262 876 249 794 q 301 1002 275 957 q 366 1063 326 1047 q 458 1078 406 1078 q 551 1055 518 1078 q 601 998 585 1032 q 622 924 618 964 q 626 851 626 885 q 549 568 626 694 q 344 342 471 442 l 344 274 q 378 111 344 163 q 490 60 413 60 q 563 75 536 60 q 608 106 589 90 l 643 28 q 577 -7 618 8 q 478 -22 536 -22 q 353 3 400 -22 q 281 70 306 29 q 250 160 257 111 q 247 257 243 210 l 142 182 l 100 242 m 344 422 q 494 606 440 504 q 547 850 547 707 q 544 897 547 872 q 532 943 542 922 q 505 978 522 964 q 457 992 488 992 q 415 984 435 992 q 378 954 394 976 q 353 890 363 932 q 344 781 344 849 l 344 422 z "},"℮":{"ha":1294,"x_min":221,"x_max":1335,"o":"m 425 189 q 438 158 425 171 q 590 49 504 88 q 778 10 676 10 q 979 55 888 10 q 1138 175 1071 100 l 1217 175 q 1133 95 1181 131 q 1028 35 1085 60 q 907 -4 971 10 q 776 -18 843 -18 q 560 22 661 -18 q 383 128 458 61 q 265 287 308 196 q 221 482 221 378 q 265 677 221 586 q 383 836 308 768 q 560 944 458 904 q 776 983 661 983 q 994 944 892 983 q 1172 836 1096 904 q 1291 677 1247 768 q 1335 482 1335 586 l 1335 468 l 432 468 q 425 463 425 468 l 425 189 m 1124 494 q 1129 504 1129 494 l 1129 778 q 1117 811 1129 796 q 964 915 1050 878 q 778 953 878 953 q 592 913 679 953 q 439 806 504 872 q 428 791 432 800 q 425 772 425 782 l 425 504 q 432 494 425 494 l 1124 494 z "},"⅓":{"ha":1219,"x_min":228,"x_max":1178,"o":"m 1007 963 l 1104 963 l 325 0 l 228 0 l 1007 963 m 342 440 l 444 868 q 360 824 404 840 q 296 803 315 808 l 285 861 q 401 910 353 885 q 493 971 450 936 l 543 971 l 417 440 l 342 440 m 778 85 q 836 64 803 71 q 904 57 869 57 q 1023 88 979 57 q 1067 169 1067 119 q 1031 234 1067 214 q 913 254 996 254 l 904 254 l 919 317 l 950 317 q 1064 347 1025 317 q 1103 418 1103 378 q 1021 479 1103 479 q 947 469 985 479 q 889 447 910 458 l 874 503 q 951 533 908 522 q 1038 544 993 544 q 1143 510 1108 544 q 1178 429 1178 475 q 1149 348 1178 389 q 1061 285 1119 307 q 1125 240 1106 269 q 1144 174 1144 210 q 1131 109 1144 142 q 1088 50 1117 76 q 1012 7 1058 24 q 900 -10 965 -10 q 820 -1 860 -10 q 749 24 781 7 l 778 85 z "},"⅔":{"ha":1219,"x_min":207,"x_max":1192,"o":"m 1065 963 l 1163 963 l 383 0 l 286 0 l 1065 963 m 207 440 q 238 547 211 503 q 303 622 265 590 q 385 678 342 654 q 465 727 428 703 q 526 779 501 751 q 550 847 550 807 q 528 899 550 882 q 475 917 507 917 q 395 903 432 917 q 333 869 358 889 l 307 921 q 389 969 347 954 q 476 983 431 983 q 533 977 506 983 q 581 956 560 971 q 615 916 603 942 q 628 853 628 890 q 605 774 628 808 q 548 711 582 739 q 472 659 514 683 q 394 611 431 635 q 329 563 357 588 q 294 507 301 538 l 558 507 l 542 440 l 207 440 m 792 85 q 850 64 817 71 q 918 57 883 57 q 1037 88 993 57 q 1081 169 1081 119 q 1045 234 1081 214 q 926 254 1010 254 l 918 254 l 933 317 l 964 317 q 1078 347 1039 317 q 1117 418 1117 378 q 1035 479 1117 479 q 961 469 999 479 q 903 447 924 458 l 888 503 q 965 533 922 522 q 1051 544 1007 544 q 1157 510 1122 544 q 1192 429 1192 475 q 1163 348 1192 389 q 1075 285 1133 307 q 1139 240 1119 269 q 1158 174 1158 210 q 1144 109 1158 142 q 1101 50 1131 76 q 1026 7 1072 24 q 914 -10 979 -10 q 834 -1 874 -10 q 763 24 794 7 l 792 85 z "},"⅛":{"ha":1219,"x_min":207,"x_max":1175,"o":"m 986 963 l 1083 963 l 304 0 l 207 0 l 986 963 m 321 440 l 424 868 q 339 824 383 840 q 275 803 294 808 l 264 861 q 381 910 332 885 q 472 971 429 936 l 522 971 l 396 440 l 321 440 m 749 113 q 781 203 749 157 q 885 278 814 250 q 842 314 858 293 q 825 371 825 335 q 842 439 825 407 q 888 494 858 471 q 955 531 917 518 q 1036 544 993 544 q 1141 512 1107 544 q 1175 435 1175 479 q 1145 345 1175 390 q 1058 271 1115 300 q 1108 233 1088 256 q 1129 171 1129 210 q 1110 94 1129 128 q 1058 37 1090 60 q 984 1 1025 14 q 901 -11 943 -11 q 786 26 824 -11 q 749 113 749 63 m 1057 158 q 1046 194 1057 179 q 1017 219 1035 208 q 977 239 1000 231 q 932 256 954 247 q 892 235 913 247 q 856 206 872 222 q 831 168 840 189 q 821 122 821 147 q 825 97 821 110 q 840 74 829 83 q 870 58 851 64 q 917 51 889 51 q 981 61 954 51 q 1024 87 1007 71 q 1049 122 1040 103 q 1057 158 1057 140 m 897 376 q 906 346 897 358 q 931 324 915 333 q 965 308 946 315 q 1006 292 985 300 q 1040 313 1022 300 q 1072 342 1057 326 q 1095 378 1086 358 q 1104 421 1104 397 q 1085 465 1104 446 q 1021 483 1065 483 q 931 453 964 483 q 897 376 897 422 z "},"⅜":{"ha":1219,"x_min":175,"x_max":1203,"o":"m 1058 963 l 1156 963 l 376 0 l 279 0 l 1058 963 m 776 113 q 809 203 776 157 q 913 278 842 250 q 869 314 886 293 q 853 371 853 335 q 869 439 853 407 q 915 494 886 471 q 983 531 944 518 q 1064 544 1021 544 q 1169 512 1135 544 q 1203 435 1203 479 q 1173 345 1203 390 q 1086 271 1143 300 q 1136 233 1115 256 q 1157 171 1157 210 q 1138 94 1157 128 q 1085 37 1118 60 q 1012 1 1053 14 q 929 -11 971 -11 q 814 26 851 -11 q 776 113 776 63 m 1085 158 q 1074 194 1085 179 q 1045 219 1063 208 q 1005 239 1028 231 q 960 256 982 247 q 920 235 940 247 q 884 206 900 222 q 858 168 868 189 q 849 122 849 147 q 853 97 849 110 q 868 74 857 83 q 898 58 879 64 q 944 51 917 51 q 1008 61 982 51 q 1051 87 1035 71 q 1076 122 1068 103 q 1085 158 1085 140 m 925 376 q 934 346 925 358 q 958 324 943 333 q 993 308 974 315 q 1033 292 1013 300 q 1067 313 1050 300 q 1099 342 1085 326 q 1123 378 1114 358 q 1132 421 1132 397 q 1113 465 1132 446 q 1049 483 1093 483 q 958 453 992 483 q 925 376 925 422 m 204 524 q 263 503 229 510 q 331 496 296 496 q 449 527 406 496 q 493 608 493 558 q 458 673 493 653 q 339 693 422 693 l 331 693 l 346 756 l 376 756 q 490 786 451 756 q 529 857 529 817 q 447 918 529 918 q 374 908 411 918 q 315 886 336 897 l 300 942 q 377 972 335 961 q 464 983 419 983 q 569 949 535 983 q 604 868 604 914 q 575 787 604 828 q 488 724 546 746 q 551 678 532 708 q 571 613 571 649 q 557 548 571 581 q 514 489 543 515 q 438 446 485 463 q 326 429 392 429 q 247 438 286 429 q 175 463 207 446 l 204 524 z "}}}
